<svg width="150" height="150" viewBox="0 0 150 150" fill="none" xmlns="http://www.w3.org/2000/svg">
<g clip-path="url(#clip0_548_19)">
<mask id="path-1-inside-1_548_19" fill="white">
<path d="M140.04 68.2472C139.525 68.3615 138.496 68.3615 138.496 68.3615C138.496 68.3615 139.868 68.4759 140.04 68.5331C140.211 68.5903 140.385 68.7432 140.554 68.9334C140.728 69.128 140.826 69.2549 140.898 69.5054C141.012 69.9057 141.069 71.8502 141.069 71.8502C141.069 71.8502 141.069 69.9629 141.184 69.5054C141.25 69.2409 141.395 69.13 141.584 68.9334C141.76 68.7498 141.876 68.6574 142.099 68.5331C142.213 68.4692 143.814 68.3615 143.814 68.3615C143.814 68.3615 142.372 68.3615 142.099 68.2472C141.886 68.1585 141.756 68.1138 141.584 67.9612C141.366 67.7679 141.208 67.6223 141.184 67.3321C141.126 66.6458 141.069 64.5298 141.069 64.5298C141.069 64.5298 141.012 66.8097 140.898 67.3321C140.838 67.6055 140.757 67.7682 140.554 67.9612C140.388 68.1198 140.264 68.1973 140.04 68.2472Z"/>
</mask>
<path d="M140.04 68.2472C139.525 68.3615 138.496 68.3615 138.496 68.3615C138.496 68.3615 139.868 68.4759 140.04 68.5331C140.211 68.5903 140.385 68.7432 140.554 68.9334C140.728 69.128 140.826 69.2549 140.898 69.5054C141.012 69.9057 141.069 71.8502 141.069 71.8502C141.069 71.8502 141.069 69.9629 141.184 69.5054C141.25 69.2409 141.395 69.13 141.584 68.9334C141.76 68.7498 141.876 68.6574 142.099 68.5331C142.213 68.4692 143.814 68.3615 143.814 68.3615C143.814 68.3615 142.372 68.3615 142.099 68.2472C141.886 68.1585 141.756 68.1138 141.584 67.9612C141.366 67.7679 141.208 67.6223 141.184 67.3321C141.126 66.6458 141.069 64.5298 141.069 64.5298C141.069 64.5298 141.012 66.8097 140.898 67.3321C140.838 67.6055 140.757 67.7682 140.554 67.9612C140.388 68.1198 140.264 68.1973 140.04 68.2472Z" fill="white"/>
<path d="M138.496 68.3615V31.3615L135.423 105.234L138.496 68.3615ZM140.04 68.2472L148.066 104.366L148.066 104.366L140.04 68.2472ZM140.554 67.9612L166.069 94.7571L166.069 94.7571L140.554 67.9612ZM140.898 67.3321L104.754 59.4185L104.754 59.4185L140.898 67.3321ZM141.069 64.5298L178.056 63.5302L104.081 63.602L141.069 64.5298ZM141.184 67.3321L178.056 64.2594L178.056 64.2594L141.184 67.3321ZM141.584 67.9612L117.027 95.6368L117.027 95.6368L141.584 67.9612ZM142.099 68.2472L127.824 102.383L142.099 68.2472ZM143.814 68.3615L146.296 105.278L143.814 31.3615V68.3615ZM142.099 68.5331L160.152 100.83L160.152 100.83L142.099 68.5331ZM141.584 68.9334L168.265 94.5673L168.265 94.5673L141.584 68.9334ZM141.069 71.8502L104.085 72.9379L178.069 71.8502H141.069ZM140.898 69.5054L176.474 59.3407L176.474 59.3407L140.898 69.5054ZM140.554 68.9334L112.914 93.5301L112.914 93.5301L140.554 68.9334ZM140.04 68.5331L151.74 33.4318L151.74 33.4318L140.04 68.5331ZM138.496 68.3615C138.496 105.362 138.498 105.362 138.5 105.362C138.5 105.362 138.502 105.362 138.504 105.362C138.506 105.362 138.509 105.362 138.512 105.362C138.517 105.362 138.523 105.362 138.529 105.362C138.54 105.362 138.552 105.362 138.564 105.361C138.589 105.361 138.615 105.361 138.642 105.361C138.697 105.361 138.758 105.361 138.824 105.36C138.957 105.359 139.116 105.357 139.297 105.354C139.645 105.348 140.138 105.337 140.717 105.311C140.999 105.298 144.312 105.2 148.066 104.366L132.013 32.1282C134.059 31.6737 135.632 31.522 136.073 31.48C136.723 31.4181 137.207 31.3937 137.432 31.3837C137.69 31.3723 137.893 31.3675 138.032 31.3652C138.108 31.3639 138.183 31.363 138.257 31.3624C138.295 31.3621 138.333 31.3619 138.373 31.3618C138.392 31.3617 138.412 31.3616 138.433 31.3616C138.443 31.3616 138.453 31.3616 138.464 31.3616C138.469 31.3616 138.474 31.3616 138.48 31.3615C138.482 31.3615 138.485 31.3615 138.488 31.3615C138.489 31.3615 138.491 31.3615 138.492 31.3615C138.494 31.3615 138.496 31.3615 138.496 68.3615ZM148.066 104.366C150.904 103.736 154.636 102.57 158.624 100.299C162.385 98.1585 164.93 95.8415 166.069 94.7571L115.04 41.1653C116.012 40.2395 118.412 38.0405 122.013 35.9905C125.842 33.8109 129.4 32.7089 132.013 32.1282L148.066 104.366ZM166.069 94.7571C168.266 92.6646 171.056 89.5177 173.402 85.1349C175.653 80.9277 176.611 77.2135 177.041 75.2457L104.754 59.4185C105.125 57.7241 106.012 54.228 108.157 50.2187C110.397 46.0339 113.045 43.0648 115.04 41.1653L166.069 94.7571ZM177.041 75.2457C177.48 73.2437 177.661 71.6047 177.71 71.1569C177.79 70.4413 177.84 69.8279 177.87 69.4291C177.93 68.621 177.967 67.8784 177.989 67.3988C178.012 66.8759 178.029 66.4085 178.039 66.0855C178.045 65.9189 178.049 65.778 178.052 65.672C178.053 65.6187 178.055 65.5736 178.055 65.5377C178.056 65.5197 178.056 65.5039 178.057 65.4906C178.057 65.4839 178.057 65.4778 178.057 65.4723C178.057 65.4695 178.057 65.4669 178.057 65.4645C178.057 65.4633 178.057 65.4621 178.057 65.4609C178.057 65.4604 178.057 65.4595 178.057 65.4592C178.058 65.4584 178.058 65.4576 141.069 64.5298C104.081 63.602 104.081 63.6012 104.081 63.6004C104.081 63.6001 104.081 63.5993 104.081 63.5988C104.081 63.5978 104.081 63.5969 104.081 63.5959C104.081 63.594 104.081 63.5923 104.081 63.5906C104.081 63.5873 104.081 63.5845 104.081 63.5821C104.081 63.5774 104.082 63.5745 104.082 63.5734C104.082 63.5711 104.081 63.5754 104.081 63.5856C104.081 63.6063 104.079 63.6476 104.078 63.7028C104.074 63.8237 104.069 63.9589 104.064 64.0713C104.057 64.2269 104.058 64.1523 104.075 63.9187C104.084 63.8071 104.11 63.4575 104.165 62.9666C104.19 62.7434 104.344 61.2899 104.754 59.4185L177.041 75.2457ZM141.069 64.5298C104.083 65.5294 104.083 65.5298 104.083 65.5301C104.083 65.5302 104.083 65.5306 104.083 65.5308C104.083 65.5313 104.083 65.5319 104.083 65.5325C104.083 65.5336 104.083 65.5349 104.083 65.5363C104.083 65.5391 104.083 65.5425 104.083 65.5463C104.083 65.5541 104.084 65.5639 104.084 65.5756C104.085 65.5991 104.085 65.6304 104.087 65.6688C104.089 65.7453 104.092 65.8507 104.096 65.9775C104.103 66.2277 104.114 66.5777 104.127 66.9635C104.14 67.3151 104.193 68.9883 104.311 70.4048L178.056 64.2594C178.117 64.9896 178.113 65.2617 178.082 64.3837C178.074 64.1547 178.067 63.9328 178.062 63.7648C178.06 63.6825 178.058 63.6172 178.057 63.5753C178.056 63.5544 178.056 63.5397 178.056 63.5318C178.056 63.5279 178.056 63.5257 178.056 63.5254C178.056 63.5253 178.056 63.5256 178.056 63.5263C178.056 63.5267 178.056 63.5272 178.056 63.5279C178.056 63.5282 178.056 63.5285 178.056 63.5289C178.056 63.5291 178.056 63.5294 178.056 63.5295C178.056 63.5298 178.056 63.5302 141.069 64.5298ZM104.311 70.4048C104.908 77.562 107.488 84.0377 111.3 89.3245C112.923 91.5747 114.474 93.1986 115.41 94.1243C115.89 94.599 116.294 94.9742 116.547 95.2057C116.79 95.4272 116.993 95.6074 117.027 95.6368L166.141 40.2856C166.141 40.2856 166.15 40.2931 166.162 40.3044C166.175 40.3159 166.196 40.3344 166.222 40.3577C166.273 40.4029 166.357 40.479 166.463 40.5755C166.666 40.7609 167.022 41.0907 167.456 41.5201C168.3 42.3551 169.769 43.8881 171.322 46.0416C174.995 51.1347 177.483 57.3924 178.056 64.2594L104.311 70.4048ZM117.027 95.6368C119.529 97.8573 122.206 99.6494 124.956 101.058C126.107 101.648 127.048 102.055 127.468 102.233C127.532 102.26 128.402 102.625 127.824 102.383L156.373 34.1116C156.257 34.0628 156.13 34.0106 156.158 34.0224C156.159 34.0226 156.166 34.0257 156.178 34.0304C156.189 34.0351 156.207 34.0426 156.23 34.052C156.274 34.0703 156.346 34.1008 156.438 34.1396C156.768 34.2803 157.626 34.6495 158.696 35.1978C161.285 36.5243 163.811 38.2177 166.141 40.2856L117.027 95.6368ZM127.824 102.383C132 104.129 135.577 104.683 136.162 104.78C137.448 104.995 138.502 105.103 139.07 105.156C140.244 105.264 141.235 105.305 141.72 105.323C142.296 105.344 142.79 105.353 143.111 105.357C143.281 105.359 143.429 105.36 143.545 105.361C143.604 105.361 143.656 105.361 143.701 105.361C143.723 105.361 143.744 105.361 143.763 105.362C143.772 105.362 143.781 105.362 143.79 105.362C143.794 105.362 143.798 105.362 143.803 105.362C143.805 105.362 143.807 105.362 143.808 105.362C143.809 105.362 143.811 105.362 143.811 105.362C143.813 105.362 143.814 105.362 143.814 68.3615C143.814 31.3615 143.816 31.3615 143.817 31.3615C143.818 31.3615 143.819 31.3615 143.82 31.3615C143.822 31.3615 143.824 31.3615 143.826 31.3615C143.829 31.3615 143.833 31.3615 143.837 31.3616C143.844 31.3616 143.851 31.3616 143.857 31.3616C143.871 31.3616 143.883 31.3616 143.895 31.3616C143.919 31.3617 143.94 31.3618 143.959 31.3619C143.995 31.3621 144.028 31.3624 144.059 31.3628C144.101 31.3633 144.217 31.3649 144.398 31.3715C144.488 31.3747 145.067 31.3944 145.894 31.471C146.289 31.5075 147.185 31.5966 148.34 31.7894C148.793 31.865 152.265 32.3939 156.373 34.1116L127.824 102.383ZM143.814 68.3615C141.333 31.4448 141.332 31.4449 141.332 31.4449C141.331 31.4449 141.331 31.445 141.33 31.445C141.329 31.4451 141.329 31.4451 141.328 31.4452C141.326 31.4453 141.324 31.4455 141.322 31.4456C141.317 31.4459 141.313 31.4462 141.308 31.4466C141.297 31.4472 141.285 31.4481 141.272 31.449C141.245 31.4508 141.212 31.4531 141.172 31.4559C141.094 31.4613 140.99 31.4687 140.868 31.4776C140.636 31.4945 140.286 31.5209 139.896 31.5537C139.575 31.5807 138.923 31.6372 138.195 31.7208C137.884 31.7565 137.109 31.8474 136.161 32.0043C135.722 32.077 134.752 32.2438 133.544 32.5322C132.939 32.6768 131.91 32.9375 130.658 33.3449C129.701 33.6565 127.097 34.5304 124.045 36.2363L160.152 100.83C157.107 102.532 154.513 103.402 153.569 103.709C152.33 104.112 151.317 104.369 150.729 104.509C149.557 104.789 148.633 104.947 148.249 105.01C147.41 105.149 146.78 105.221 146.635 105.238C146.239 105.283 146.009 105.301 146.103 105.293C146.127 105.291 146.185 105.286 146.256 105.281C146.286 105.279 146.309 105.277 146.318 105.277C146.323 105.276 146.324 105.276 146.321 105.277C146.319 105.277 146.316 105.277 146.312 105.277C146.31 105.277 146.307 105.277 146.305 105.278C146.303 105.278 146.302 105.278 146.3 105.278C146.3 105.278 146.299 105.278 146.298 105.278C146.298 105.278 146.297 105.278 146.297 105.278C146.296 105.278 146.296 105.278 143.814 68.3615ZM124.045 36.2363C120.392 38.2786 117.411 40.6888 114.902 43.2996L168.265 94.5673C167.707 95.1486 166.431 96.4397 164.604 97.8672C162.734 99.3284 161.097 100.301 160.152 100.83L124.045 36.2363ZM114.902 43.2995C115.088 43.106 115.232 42.9609 115.245 42.9481C115.321 42.8713 115.137 43.0564 114.992 43.2052C114.679 43.5255 113.626 44.6026 112.435 46.0935C111.146 47.7064 109.658 49.8366 108.297 52.5009C106.929 55.1791 105.949 57.8868 105.288 60.5315L177.079 78.4792C176.451 80.9916 175.514 83.5863 174.198 86.1632C172.888 88.7262 171.461 90.7668 170.24 92.2944C169.117 93.6999 168.141 94.6959 167.91 94.9319C167.806 95.0386 167.665 95.1806 167.785 95.0592C167.842 95.0016 168.032 94.8101 168.265 94.5673L114.902 43.2995ZM105.288 60.5315C104.682 62.9561 104.454 64.9349 104.387 65.5192C104.286 66.4 104.23 67.1403 104.199 67.6035C104.137 68.5392 104.11 69.3632 104.097 69.8497C104.082 70.3918 104.076 70.867 104.073 71.1889C104.071 71.3568 104.07 71.5001 104.07 71.6107C104.069 71.6664 104.069 71.7147 104.069 71.7547C104.069 71.7747 104.069 71.7928 104.069 71.8087C104.069 71.8167 104.069 71.8241 104.069 71.831C104.069 71.8345 104.069 71.8378 104.069 71.841C104.069 71.8426 104.069 71.8442 104.069 71.8457C104.069 71.8464 104.069 71.8476 104.069 71.8479C104.069 71.8491 104.069 71.8502 141.069 71.8502C178.069 71.8502 178.069 71.8513 178.069 71.8523C178.069 71.8527 178.069 71.8538 178.069 71.8545C178.069 71.8559 178.069 71.8573 178.069 71.8586C178.069 71.8614 178.069 71.864 178.069 71.8666C178.069 71.8716 178.069 71.8764 178.069 71.8808C178.069 71.8895 178.069 71.8969 178.069 71.903C178.069 71.9151 178.069 71.9225 178.069 71.9256C178.069 71.9312 178.069 71.9236 178.069 71.9073C178.07 71.8611 178.07 71.8359 178.07 71.849C178.07 71.8591 178.068 71.9122 178.064 72.0016C178.061 72.0821 178.053 72.2664 178.035 72.5259C178.021 72.7479 177.984 73.2657 177.905 73.9557C177.859 74.3493 177.656 76.1689 177.079 78.4792L105.288 60.5315ZM141.069 71.8502C178.053 70.7624 178.053 70.7614 178.053 70.7605C178.053 70.7601 178.053 70.7592 178.053 70.7585C178.053 70.7571 178.053 70.7558 178.053 70.7544C178.053 70.7516 178.053 70.7486 178.053 70.7455C178.052 70.7394 178.052 70.7327 178.052 70.7255C178.052 70.711 178.051 70.6945 178.051 70.6759C178.049 70.6388 178.048 70.5935 178.046 70.5408C178.043 70.4361 178.038 70.2991 178.032 70.1382C178.02 69.8294 178.001 69.3735 177.974 68.8574C177.949 68.3979 177.904 67.6116 177.824 66.7281C177.785 66.2965 177.715 65.5721 177.597 64.7079C177.536 64.2627 177.244 62.0355 176.474 59.3407L105.321 79.67C104.58 77.0753 104.315 74.9964 104.279 74.7342C104.186 74.0529 104.139 73.5461 104.121 73.3531C104.085 72.9468 104.075 72.7217 104.079 72.7984C104.08 72.8185 104.082 72.8736 104.085 72.9419C104.086 72.9696 104.087 72.9876 104.087 72.9908C104.087 72.9921 104.087 72.9889 104.086 72.9805C104.086 72.9763 104.086 72.9707 104.086 72.9637C104.086 72.9602 104.086 72.9563 104.086 72.952C104.086 72.9498 104.085 72.9476 104.085 72.9452C104.085 72.9441 104.085 72.9429 104.085 72.9417C104.085 72.941 104.085 72.9401 104.085 72.9398C104.085 72.9389 104.085 72.9379 141.069 71.8502ZM176.474 59.3407C174.143 51.1813 169.747 46.081 168.195 44.3368L112.914 93.5301C112.898 93.5125 111.184 91.6509 109.486 88.9639C107.461 85.7597 106.147 82.5588 105.321 79.67L176.474 59.3407ZM168.195 44.3368C167.478 43.5309 161.804 36.7864 151.74 33.4318L128.339 103.634C122.848 101.804 119.068 99.0894 117.123 97.5267C115.057 95.8666 113.633 94.3383 112.914 93.5301L168.195 44.3368ZM151.74 33.4318C149.594 32.7164 147.85 32.3625 147.4 32.2706C146.674 32.1223 146.084 32.0241 145.749 31.9707C145.071 31.8626 144.512 31.7919 144.236 31.7581C143.639 31.6847 143.103 31.6308 142.813 31.6024C142.476 31.5693 142.174 31.542 141.972 31.5242C141.866 31.5148 141.777 31.507 141.709 31.5012C141.674 31.4983 141.645 31.4958 141.622 31.4938C141.61 31.4928 141.6 31.492 141.591 31.4912C141.586 31.4908 141.582 31.4905 141.578 31.4902C141.576 31.49 141.575 31.4899 141.573 31.4897C141.572 31.4897 141.571 31.4896 141.571 31.4895C141.57 31.4895 141.57 31.4895 141.569 31.4894C141.569 31.4894 141.568 31.4894 138.496 68.3615C135.423 105.234 135.422 105.234 135.422 105.234C135.422 105.234 135.421 105.234 135.421 105.234C135.42 105.233 135.419 105.233 135.419 105.233C135.417 105.233 135.416 105.233 135.415 105.233C135.412 105.233 135.41 105.233 135.408 105.233C135.405 105.232 135.402 105.232 135.4 105.232C135.397 105.232 135.398 105.232 135.401 105.232C135.409 105.233 135.428 105.234 135.453 105.236C135.514 105.242 135.566 105.247 135.593 105.249C135.668 105.257 135.508 105.242 135.216 105.206C135.093 105.191 134.669 105.139 134.099 105.048C133.819 105.003 133.275 104.913 132.588 104.773C132.177 104.689 130.464 104.343 128.339 103.634L151.74 33.4318Z" fill="white" mask="url(#path-1-inside-1_548_19)"/>
<mask id="path-3-inside-2_548_19" fill="white">
<path d="M60.592 47.6993C60.0361 47.8229 58.9243 47.8229 58.9243 47.8229C58.9243 47.8229 60.4067 47.9464 60.592 48.0082C60.7773 48.0699 60.9651 48.2351 61.1479 48.4405C61.3349 48.6507 61.4412 48.7877 61.5185 49.0582C61.642 49.4905 61.7038 51.5906 61.7038 51.5906C61.7038 51.5906 61.7038 49.5523 61.8273 49.0582C61.8987 48.7725 62.0557 48.6528 62.2597 48.4405C62.4502 48.2422 62.5755 48.1424 62.8156 48.0082C62.9391 47.9391 64.6685 47.8229 64.6685 47.8229C64.6685 47.8229 63.111 47.8229 62.8156 47.6993C62.5864 47.6035 62.4454 47.5553 62.2597 47.3905C62.0244 47.1818 61.8534 47.0245 61.8273 46.7111C61.7655 45.9699 61.7038 43.6846 61.7038 43.6846C61.7038 43.6846 61.642 46.1469 61.5185 46.7111C61.4538 47.0063 61.3668 47.1821 61.1479 47.3905C60.968 47.5618 60.8344 47.6455 60.592 47.6993Z"/>
</mask>
<path d="M60.592 47.6993C60.0361 47.8229 58.9243 47.8229 58.9243 47.8229C58.9243 47.8229 60.4067 47.9464 60.592 48.0082C60.7773 48.0699 60.9651 48.2351 61.1479 48.4405C61.3349 48.6507 61.4412 48.7877 61.5185 49.0582C61.642 49.4905 61.7038 51.5906 61.7038 51.5906C61.7038 51.5906 61.7038 49.5523 61.8273 49.0582C61.8987 48.7725 62.0557 48.6528 62.2597 48.4405C62.4502 48.2422 62.5755 48.1424 62.8156 48.0082C62.9391 47.9391 64.6685 47.8229 64.6685 47.8229C64.6685 47.8229 63.111 47.8229 62.8156 47.6993C62.5864 47.6035 62.4454 47.5553 62.2597 47.3905C62.0244 47.1818 61.8534 47.0245 61.8273 46.7111C61.7655 45.9699 61.7038 43.6846 61.7038 43.6846C61.7038 43.6846 61.642 46.1469 61.5185 46.7111C61.4538 47.0063 61.3668 47.1821 61.1479 47.3905C60.968 47.5618 60.8344 47.6455 60.592 47.6993Z" fill="white"/>
<path d="M58.9243 47.8229V10.8229L55.8516 84.6951L58.9243 47.8229ZM60.592 47.6993L52.5656 11.5804L52.5656 11.5804L60.592 47.6993ZM61.1479 47.3905L86.6622 74.1864L86.6622 74.1864L61.1479 47.3905ZM61.5185 46.7111L97.6623 54.6247L97.6623 54.6247L61.5185 46.7111ZM61.7038 43.6846L98.6903 42.6849L24.7154 42.7567L61.7038 43.6846ZM61.8273 46.7111L24.9551 49.7838L24.9551 49.7838L61.8273 46.7111ZM62.2597 47.3905L86.8169 19.7149L86.8169 19.7149L62.2597 47.3905ZM62.8156 47.6993L77.09 13.5637L77.09 13.5637L62.8156 47.6993ZM64.6685 47.8229L67.1499 84.7396L64.6685 10.8229V47.8229ZM62.8156 48.0082L44.7624 15.7113L44.7624 15.7114L62.8156 48.0082ZM62.2597 48.4405L88.9412 74.0744L88.9412 74.0744L62.2597 48.4405ZM61.8273 49.0582L97.7226 58.032L97.7226 58.032L61.8273 49.0582ZM61.7038 51.5906L24.7198 52.6783L98.7038 51.5906H61.7038ZM61.5185 49.0582L97.0949 38.8935L97.0949 38.8935L61.5185 49.0582ZM61.1479 48.4405L88.7885 23.8439L88.7885 23.8438L61.1479 48.4405ZM58.9243 47.8229C58.9243 84.8229 58.9263 84.8229 58.9283 84.8229C58.929 84.8229 58.9311 84.8229 58.9324 84.8229C58.9351 84.8229 58.9379 84.8229 58.9407 84.8229C58.9462 84.8229 58.9519 84.8229 58.9576 84.8229C58.9691 84.8228 58.981 84.8228 58.9933 84.8228C59.0179 84.8228 59.044 84.8227 59.0717 84.8226C59.1271 84.8224 59.1889 84.8221 59.2567 84.8215C59.3915 84.8205 59.554 84.8187 59.7391 84.8155C60.0956 84.8094 60.6003 84.7973 61.1925 84.7709C61.4994 84.7573 64.8432 84.6572 68.6184 83.8183L52.5656 11.5804C54.6005 11.1282 56.1612 10.9782 56.589 10.9374C57.2251 10.8768 57.6947 10.8533 57.9069 10.8439C58.1517 10.833 58.3436 10.8286 58.4743 10.8263C58.5465 10.8251 58.6179 10.8243 58.6897 10.8237C58.726 10.8234 58.7634 10.8232 58.8021 10.8231C58.8216 10.823 58.8414 10.823 58.8617 10.8229C58.8719 10.8229 58.8822 10.8229 58.8926 10.8229C58.8978 10.8229 58.9031 10.8229 58.9084 10.8229C58.911 10.8229 58.9137 10.8229 58.9163 10.8229C58.9176 10.8229 58.9196 10.8229 58.9203 10.8229C58.9223 10.8229 58.9243 10.8229 58.9243 47.8229ZM68.6184 83.8183C71.4648 83.1857 75.2043 82.0175 79.1989 79.7434C82.9658 77.5989 85.5167 75.2771 86.6622 74.1864L35.6336 20.5946C36.5992 19.6752 38.9933 17.4809 42.5879 15.4345C46.4101 13.2585 49.9616 12.1591 52.5656 11.5804L68.6184 83.8183ZM86.6622 74.1864C88.8679 72.0862 91.6636 68.9321 94.0133 64.5415C96.2691 60.3263 97.229 56.6034 97.6623 54.6247L25.3747 38.7975C25.7433 37.114 26.6273 33.6266 28.7687 29.6252C31.004 25.4484 33.6467 22.4864 35.6336 20.5946L86.6622 74.1864ZM97.6623 54.6247C98.1018 52.6175 98.2837 50.9711 98.3346 50.5142C98.4153 49.7896 98.4662 49.1657 98.4968 48.7554C98.5589 47.9243 98.5973 47.1551 98.62 46.65C98.6447 46.1017 98.662 45.6102 98.673 45.2695C98.6787 45.0939 98.683 44.9457 98.6862 44.8347C98.6877 44.7789 98.689 44.7318 98.69 44.6945C98.6905 44.6758 98.6909 44.6596 98.6913 44.6459C98.6915 44.639 98.6916 44.6328 98.6918 44.6272C98.6918 44.6244 98.6919 44.6218 98.692 44.6193C98.692 44.6181 98.692 44.6169 98.6921 44.6157C98.6921 44.6152 98.6921 44.6143 98.6921 44.614C98.6921 44.6132 98.6921 44.6124 61.7038 43.6846C24.7154 42.7567 24.7154 42.7559 24.7154 42.7552C24.7155 42.7549 24.7155 42.7541 24.7155 42.7536C24.7155 42.7526 24.7155 42.7517 24.7156 42.7507C24.7156 42.7489 24.7156 42.7471 24.7157 42.7455C24.7158 42.7423 24.7158 42.7396 24.7159 42.7374C24.716 42.7331 24.7161 42.7307 24.7161 42.7302C24.7161 42.7293 24.7159 42.7356 24.7156 42.7483C24.7149 42.7741 24.7134 42.8226 24.7114 42.8868C24.7069 43.0254 24.7011 43.1847 24.6949 43.3225C24.6867 43.5035 24.6865 43.4557 24.7023 43.245C24.7097 43.1449 24.7356 42.8058 24.7892 42.3239C24.8131 42.1097 24.9661 40.6637 25.3747 38.7975L97.6623 54.6247ZM61.7038 43.6846C24.7173 44.6842 24.7173 44.6845 24.7173 44.6849C24.7173 44.685 24.7173 44.6854 24.7173 44.6856C24.7173 44.6861 24.7173 44.6867 24.7174 44.6873C24.7174 44.6884 24.7174 44.6898 24.7175 44.6912C24.7175 44.6941 24.7176 44.6976 24.7177 44.7016C24.718 44.7097 24.7183 44.7199 24.7186 44.7323C24.7193 44.757 24.7202 44.7902 24.7214 44.831C24.7237 44.9122 24.7269 45.0244 24.7309 45.1596C24.7389 45.4265 24.7505 45.7994 24.7649 46.2098C24.7788 46.6105 24.8348 48.3398 24.9551 49.7838L98.6995 43.6384C98.7581 44.3411 98.7522 44.5572 98.7199 43.63C98.711 43.3764 98.7034 43.1316 98.6978 42.9469C98.6951 42.8562 98.6931 42.7841 98.6917 42.7375C98.6911 42.7142 98.6906 42.6976 98.6904 42.6885C98.6902 42.684 98.6902 42.6813 98.6901 42.6807C98.6901 42.6804 98.6901 42.6805 98.6902 42.6813C98.6902 42.6816 98.6902 42.6821 98.6902 42.6827C98.6902 42.683 98.6902 42.6833 98.6902 42.6837C98.6902 42.6839 98.6902 42.6842 98.6902 42.6843C98.6903 42.6846 98.6903 42.6849 61.7038 43.6846ZM24.9551 49.7838C25.5525 56.9526 28.1362 63.4369 31.9542 68.7315C33.5798 70.9856 35.1342 72.6131 36.0734 73.5424C36.5551 74.019 36.9616 74.396 37.2169 74.6293C37.4614 74.8527 37.6671 75.0348 37.7024 75.0662L86.8169 19.7149C86.8169 19.7149 86.8188 19.7166 86.8219 19.7193C86.8251 19.7221 86.8301 19.7266 86.8364 19.7322C86.8488 19.7433 86.869 19.7613 86.8946 19.7841C86.9441 19.8284 87.0277 19.9036 87.1323 19.9992C87.3332 20.1827 87.6875 20.5107 88.1196 20.9383C88.9599 21.7696 90.4258 23.2991 91.9759 25.4486C95.643 30.534 98.1282 36.783 98.6995 43.6384L24.9551 49.7838ZM37.7024 75.0661C40.2117 77.2927 42.8944 79.0887 45.6514 80.5011C46.8056 81.0924 47.7495 81.5004 48.1733 81.6807C48.2406 81.7093 49.1152 82.075 48.5411 81.835L77.09 13.5637C76.9714 13.5141 76.8426 13.461 76.8693 13.4721C76.8693 13.4721 76.8764 13.475 76.8871 13.4794C76.898 13.484 76.9156 13.4913 76.9377 13.5005C76.9808 13.5184 77.0527 13.5485 77.143 13.587C77.4701 13.7261 78.3242 14.0938 79.3913 14.6405C81.9741 15.9636 84.4934 17.6531 86.8169 19.7149L37.7024 75.0661ZM48.5411 81.8349C52.7199 83.5824 56.301 84.1372 56.8911 84.2357C58.1828 84.4512 59.2424 84.5598 59.8175 84.6131C61.0056 84.7231 62.0132 84.7651 62.5135 84.7832C63.1052 84.8046 63.6145 84.8136 63.9465 84.8179C64.1226 84.8202 64.2745 84.8214 64.3942 84.8221C64.4546 84.8224 64.508 84.8226 64.5538 84.8227C64.5767 84.8228 64.5977 84.8228 64.6169 84.8228C64.6264 84.8228 64.6355 84.8229 64.6441 84.8229C64.6484 84.8229 64.6526 84.8229 64.6567 84.8229C64.6587 84.8229 64.6607 84.8229 64.6627 84.8229C64.6637 84.8229 64.6651 84.8229 64.6656 84.8229C64.6671 84.8229 64.6685 84.8229 64.6685 47.8229C64.6685 10.8229 64.6699 10.8229 64.6714 10.8229C64.6718 10.8229 64.6733 10.8229 64.6742 10.8229C64.6761 10.8229 64.6779 10.8229 64.6798 10.8229C64.6835 10.8229 64.6871 10.8229 64.6906 10.8229C64.6978 10.8229 64.7046 10.8229 64.7112 10.8229C64.7244 10.8229 64.7367 10.8229 64.7482 10.823C64.7709 10.823 64.7906 10.8231 64.8078 10.8232C64.8412 10.8234 64.8691 10.8237 64.8946 10.824C64.9253 10.8244 65.0268 10.8257 65.1921 10.8317C65.2661 10.8344 65.8289 10.8531 66.6419 10.9284C67.0294 10.9643 67.9189 11.0527 69.0688 11.2446C69.5172 11.3194 72.9851 11.8472 77.09 13.5637L48.5411 81.8349ZM64.6685 47.8229C62.1871 10.9062 62.1865 10.9062 62.1858 10.9063C62.1856 10.9063 62.185 10.9063 62.1845 10.9063C62.1836 10.9064 62.1827 10.9065 62.1817 10.9065C62.1798 10.9067 62.1778 10.9068 62.1756 10.9069C62.1713 10.9072 62.1666 10.9076 62.1614 10.9079C62.1509 10.9086 62.1387 10.9094 62.1247 10.9104C62.0969 10.9123 62.0619 10.9147 62.0209 10.9176C61.9392 10.9233 61.8305 10.931 61.7025 10.9403C61.4581 10.9581 61.0918 10.9858 60.6849 11.02C60.3474 11.0484 59.6788 11.1064 58.9371 11.1915C58.6194 11.228 57.8392 11.3196 56.8869 11.4773C56.4458 11.5504 55.4734 11.7175 54.2641 12.0063C53.6579 12.151 52.6284 12.4119 51.3765 12.8195C50.4191 13.1312 47.8145 14.0053 44.7624 15.7113L80.8687 80.305C77.8243 82.0067 75.2306 82.8764 74.2869 83.1836C73.0489 83.5867 72.0361 83.8431 71.4493 83.9831C70.2789 84.2626 69.3564 84.4202 68.9744 84.4834C68.1403 84.6215 67.5155 84.6928 67.3773 84.7086C66.9946 84.7526 66.7815 84.7685 66.8918 84.7592C66.9327 84.7558 67.0065 84.75 67.0903 84.7439C67.1263 84.7413 67.1537 84.7394 67.1671 84.7384C67.1735 84.738 67.1759 84.7378 67.1734 84.738C67.1721 84.7381 67.1696 84.7382 67.1658 84.7385C67.1638 84.7386 67.1615 84.7388 67.1589 84.739C67.1576 84.7391 67.1562 84.7391 67.1547 84.7392C67.1539 84.7393 67.1532 84.7394 67.1524 84.7394C67.152 84.7394 67.1514 84.7395 67.1512 84.7395C67.1505 84.7395 67.1499 84.7396 64.6685 47.8229ZM44.7624 15.7114C41.091 17.7636 38.1005 20.1812 35.5781 22.8067L88.9412 74.0744C88.3898 74.6483 87.1196 75.9339 85.2987 77.3565C83.4348 78.8128 81.8054 79.7814 80.8687 80.305L44.7624 15.7114ZM35.5781 22.8067C35.7622 22.615 35.9045 22.4719 35.9155 22.4608C35.9899 22.3858 35.804 22.5726 35.6569 22.7231C35.3405 23.0468 34.2853 24.1272 33.091 25.6214C31.7992 27.2378 30.3091 29.3716 28.9461 32.0399C27.576 34.7221 26.5945 37.4344 25.932 40.0844L97.7226 58.032C97.0958 60.5392 96.1607 63.1293 94.8465 65.7021C93.5393 68.2611 92.1147 70.2981 90.8965 71.8223C89.7759 73.2244 88.8026 74.2172 88.5752 74.4498C88.4727 74.5547 88.3331 74.6951 88.4554 74.5718C88.5143 74.5124 88.7061 74.3191 88.9412 74.0744L35.5781 22.8067ZM25.932 40.0844C25.3247 42.5136 25.0957 44.4987 25.0278 45.0906C24.9258 45.979 24.8694 46.7282 24.8378 47.2011C24.7742 48.1561 24.7464 49.0024 24.7327 49.51C24.7175 50.0733 24.7107 50.5685 24.7074 50.9052C24.7057 51.0804 24.7048 51.2298 24.7043 51.3446C24.7041 51.4023 24.704 51.4523 24.7039 51.4934C24.7038 51.514 24.7038 51.5325 24.7038 51.5487C24.7038 51.5568 24.7038 51.5643 24.7038 51.5713C24.7038 51.5748 24.7038 51.5782 24.7038 51.5814C24.7038 51.583 24.7038 51.5846 24.7038 51.5861C24.7038 51.5869 24.7038 51.588 24.7038 51.5884C24.7038 51.5895 24.7038 51.5906 61.7038 51.5906C98.7038 51.5906 98.7038 51.5917 98.7038 51.5927C98.7038 51.5931 98.7038 51.5942 98.7038 51.5949C98.7038 51.5963 98.7038 51.5977 98.7038 51.599C98.7038 51.6017 98.7038 51.6043 98.7038 51.6069C98.7038 51.6119 98.7038 51.6165 98.7038 51.6207C98.7037 51.6292 98.7037 51.6362 98.7037 51.6417C98.7037 51.6527 98.7037 51.6584 98.7037 51.6595C98.7037 51.6609 98.7037 51.6472 98.704 51.6236C98.7042 51.5994 98.7045 51.5725 98.705 51.5466C98.7054 51.5196 98.7058 51.5068 98.7057 51.5093C98.7056 51.5115 98.7054 51.5218 98.7048 51.5399C98.7042 51.5576 98.7031 51.588 98.7013 51.6298C98.6984 51.6997 98.6906 51.8736 98.6739 52.1235C98.6598 52.3359 98.6236 52.8448 98.5453 53.5271C98.501 53.913 98.299 55.7263 97.7226 58.032L25.932 40.0844ZM61.7038 51.5906C98.6878 50.5028 98.6877 50.5018 98.6877 50.5009C98.6877 50.5005 98.6877 50.4996 98.6877 50.4989C98.6876 50.4976 98.6876 50.4962 98.6875 50.4948C98.6875 50.4919 98.6874 50.489 98.6873 50.4858C98.6871 50.4796 98.6869 50.4728 98.6867 50.4654C98.6862 50.4507 98.6857 50.4337 98.6851 50.4146C98.6839 50.3764 98.6824 50.3293 98.6806 50.2745C98.677 50.1655 98.672 50.0223 98.6656 49.8539C98.6533 49.5299 98.6336 49.0535 98.6049 48.516C98.5793 48.0351 98.5321 47.2263 98.451 46.3238C98.4113 45.8826 98.3399 45.1496 98.2207 44.278C98.1588 43.8255 97.866 41.5924 97.0949 38.8935L25.9421 59.2228C25.2019 56.6321 24.938 54.5592 24.9031 54.3043C24.8109 53.6303 24.7646 53.1322 24.7481 52.9488C24.7133 52.5616 24.7047 52.3589 24.71 52.457C24.7122 52.4986 24.7156 52.5742 24.7188 52.6575C24.7201 52.6927 24.7209 52.717 24.7212 52.7245C24.7213 52.7279 24.7212 52.7264 24.721 52.7192C24.7209 52.7156 24.7207 52.7104 24.7205 52.7036C24.7204 52.7003 24.7203 52.6965 24.7202 52.6923C24.7201 52.6902 24.72 52.6879 24.72 52.6856C24.7199 52.6845 24.7199 52.6833 24.7199 52.6821C24.7199 52.6815 24.7198 52.6805 24.7198 52.6802C24.7198 52.6793 24.7198 52.6783 61.7038 51.5906ZM97.0949 38.8935C94.7579 30.7141 90.3545 25.6037 88.7885 23.8439L33.5073 73.0372C33.4985 73.0274 31.7896 71.1721 30.0961 68.4921C28.0757 65.2949 26.7646 62.1017 25.9421 59.2229L97.0949 38.8935ZM88.7885 23.8438C88.0578 23.0227 82.3697 16.266 72.2924 12.9069L48.8916 83.1094C43.407 81.2812 39.6343 78.5709 37.6963 77.0138C35.6369 75.3592 34.2197 73.8378 33.5073 73.0372L88.7885 23.8438ZM72.2924 12.9069C70.1453 12.1912 68.4004 11.837 67.9489 11.7447C67.2215 11.5961 66.6288 11.4975 66.2921 11.4439C65.6096 11.3351 65.045 11.2637 64.7632 11.229C64.1536 11.1542 63.6029 11.0987 63.2988 11.0689C62.9467 11.0344 62.6311 11.0058 62.4182 10.987C62.3072 10.9772 62.213 10.969 62.142 10.9629C62.1064 10.9599 62.076 10.9573 62.0517 10.9553C62.0395 10.9542 62.0288 10.9533 62.0197 10.9526C62.0151 10.9522 62.0109 10.9518 62.0071 10.9515C62.0053 10.9514 62.0035 10.9512 62.0018 10.9511C62.0009 10.951 62.0001 10.9509 61.9993 10.9509C61.9989 10.9508 61.9983 10.9508 61.9981 10.9508C61.9976 10.9507 61.997 10.9507 58.9243 47.8229C55.8516 84.6951 55.8511 84.695 55.8505 84.695C55.8504 84.695 55.8498 84.6949 55.8495 84.6949C55.8488 84.6948 55.8481 84.6948 55.8474 84.6947C55.8461 84.6946 55.8448 84.6945 55.8436 84.6944C55.8413 84.6942 55.8392 84.694 55.8375 84.6939C55.834 84.6936 55.8316 84.6934 55.8303 84.6933C55.8278 84.6931 55.8295 84.6932 55.8347 84.6937C55.8455 84.6946 55.8686 84.6966 55.8994 84.6993C55.9703 84.7056 56.0369 84.7117 56.0785 84.7158C56.1682 84.7246 56.0228 84.7116 55.7433 84.6773C55.6265 84.6629 55.2081 84.6113 54.6421 84.5211C54.3637 84.4767 53.8219 84.3871 53.1366 84.2471C52.7271 84.1634 51.0156 83.8174 48.8916 83.1094L72.2924 12.9069Z" fill="white" mask="url(#path-3-inside-2_548_19)"/>
<mask id="path-5-inside-3_548_19" fill="white">
<path d="M1.66767 72.1671C1.11178 72.2906 0 72.2906 0 72.2906C0 72.2906 1.48238 72.4142 1.66767 72.4759C1.85297 72.5377 2.04074 72.7028 2.22356 72.9083C2.41056 73.1184 2.51688 73.2555 2.59416 73.526C2.71769 73.9583 2.77945 76.0583 2.77945 76.0583C2.77945 76.0583 2.77945 74.0201 2.90298 73.526C2.9744 73.2403 3.13136 73.1206 3.33534 72.9083C3.52588 72.71 3.65117 72.6101 3.89123 72.4759C4.01477 72.4069 5.7442 72.2906 5.7442 72.2906C5.7442 72.2906 4.18664 72.2906 3.89123 72.1671C3.66212 72.0713 3.5211 72.0231 3.33534 71.8583C3.1001 71.6495 2.9291 71.4923 2.90298 71.1789C2.84122 70.4377 2.77945 68.1523 2.77945 68.1523C2.77945 68.1523 2.71769 70.6147 2.59416 71.1789C2.52951 71.4741 2.44245 71.6499 2.22356 71.8583C2.04371 72.0295 1.9101 72.1132 1.66767 72.1671Z"/>
</mask>
<path d="M1.66767 72.1671C1.11178 72.2906 0 72.2906 0 72.2906C0 72.2906 1.48238 72.4142 1.66767 72.4759C1.85297 72.5377 2.04074 72.7028 2.22356 72.9083C2.41056 73.1184 2.51688 73.2555 2.59416 73.526C2.71769 73.9583 2.77945 76.0583 2.77945 76.0583C2.77945 76.0583 2.77945 74.0201 2.90298 73.526C2.9744 73.2403 3.13136 73.1206 3.33534 72.9083C3.52588 72.71 3.65117 72.6101 3.89123 72.4759C4.01477 72.4069 5.7442 72.2906 5.7442 72.2906C5.7442 72.2906 4.18664 72.2906 3.89123 72.1671C3.66212 72.0713 3.5211 72.0231 3.33534 71.8583C3.1001 71.6495 2.9291 71.4923 2.90298 71.1789C2.84122 70.4377 2.77945 68.1523 2.77945 68.1523C2.77945 68.1523 2.71769 70.6147 2.59416 71.1789C2.52951 71.4741 2.44245 71.6499 2.22356 71.8583C2.04371 72.0295 1.9101 72.1132 1.66767 72.1671Z" fill="white"/>
<path d="M0 72.2906V35.2906L-3.07268 109.163L0 72.2906ZM1.66767 72.1671L-6.35871 36.0482L-6.35876 36.0482L1.66767 72.1671ZM2.22356 71.8583L27.7379 98.6542L27.7379 98.6542L2.22356 71.8583ZM2.59416 71.1789L38.738 79.0925L38.738 79.0925L2.59416 71.1789ZM2.77945 68.1523L39.7659 67.1527L-34.2089 67.2245L2.77945 68.1523ZM2.90298 71.1789L-33.9692 74.2515L-33.9692 74.2516L2.90298 71.1789ZM3.33534 71.8583L27.8926 44.1826L27.8926 44.1826L3.33534 71.8583ZM3.89123 72.1671L18.1657 38.0315L18.1657 38.0315L3.89123 72.1671ZM5.7442 72.2906L8.2256 109.207L5.7442 35.2906V72.2906ZM3.89123 72.4759L-14.1619 40.1791L-14.162 40.1792L3.89123 72.4759ZM3.33534 72.9083L30.0169 98.5422L30.0169 98.5422L3.33534 72.9083ZM2.90298 73.526L38.7983 82.4998L38.7983 82.4998L2.90298 73.526ZM2.77945 76.0583L-34.2046 77.1461L39.7795 76.0583H2.77945ZM2.59416 73.526L38.1705 63.3613L38.1705 63.3613L2.59416 73.526ZM2.22356 72.9083L29.8642 48.3116L29.8641 48.3116L2.22356 72.9083ZM0 72.2906C0 109.291 0.00201457 109.291 0.00403336 109.291C0.00471325 109.291 0.00674218 109.291 0.00810391 109.291C0.01083 109.291 0.0135809 109.291 0.0163565 109.291C0.0219075 109.291 0.027558 109.291 0.0333068 109.291C0.0448036 109.291 0.0566989 109.291 0.068984 109.291C0.0935465 109.291 0.119713 109.29 0.147411 109.29C0.202736 109.29 0.264589 109.29 0.332374 109.289C0.467138 109.288 0.629721 109.286 0.814788 109.283C1.17131 109.277 1.67596 109.265 2.2682 109.239C2.57508 109.225 5.91887 109.125 9.6941 108.286L-6.35876 36.0482C-4.32379 35.596 -2.76315 35.4459 -2.33536 35.4052C-1.69923 35.3446 -1.22966 35.3211 -1.01745 35.3117C-0.772643 35.3008 -0.58068 35.2964 -0.449985 35.2941C-0.377833 35.2929 -0.30645 35.292 -0.234659 35.2915C-0.19836 35.2912 -0.160936 35.291 -0.122168 35.2909C-0.102748 35.2908 -0.0828929 35.2907 -0.0625714 35.2907C-0.0524069 35.2907 -0.0421147 35.2907 -0.031691 35.2907C-0.0264787 35.2907 -0.0212321 35.2906 -0.0159509 35.2906C-0.0133102 35.2906 -0.0106607 35.2906 -0.00800232 35.2906C-0.00667442 35.2906 -0.00467089 35.2906 -0.00400794 35.2906C-0.00200608 35.2906 0 35.2906 0 72.2906ZM9.69406 108.286C12.5405 107.653 16.28 106.485 20.2746 104.211C24.0415 102.067 26.5924 99.7448 27.7379 98.6542L-23.2907 45.0624C-22.3251 44.143 -19.931 41.9487 -16.3364 39.9023C-12.5142 37.7263 -8.96274 36.6269 -6.35871 36.0482L9.69406 108.286ZM27.7379 98.6542C29.9436 96.554 32.7393 93.3999 35.089 89.0093C37.3448 84.7941 38.3047 81.0712 38.738 79.0925L-33.5497 63.2653C-33.1811 61.5818 -32.297 58.0944 -30.1556 54.093C-27.9203 49.9161 -25.2776 46.9542 -23.2908 45.0624L27.7379 98.6542ZM38.738 79.0925C39.1774 77.0852 39.3594 75.4388 39.4103 74.982C39.491 74.2574 39.5419 73.6334 39.5725 73.2231C39.6346 72.3921 39.673 71.6228 39.6957 71.1178C39.7204 70.5695 39.7377 70.078 39.7487 69.7373C39.7543 69.5617 39.7587 69.4135 39.7618 69.3025C39.7634 69.2467 39.7647 69.1996 39.7657 69.1623C39.7662 69.1436 39.7666 69.1274 39.767 69.1136C39.7671 69.1068 39.7673 69.1006 39.7674 69.095C39.7675 69.0922 39.7676 69.0895 39.7676 69.0871C39.7677 69.0858 39.7677 69.0847 39.7677 69.0835C39.7677 69.0829 39.7678 69.0821 39.7678 69.0818C39.7678 69.081 39.7678 69.0802 2.77945 68.1523C-34.2089 67.2245 -34.2089 67.2237 -34.2089 67.2229C-34.2089 67.2227 -34.2088 67.2219 -34.2088 67.2214C-34.2088 67.2204 -34.2088 67.2194 -34.2088 67.2185C-34.2087 67.2166 -34.2087 67.2149 -34.2086 67.2133C-34.2085 67.2101 -34.2085 67.2074 -34.2084 67.2052C-34.2083 67.2008 -34.2082 67.1985 -34.2082 67.198C-34.2082 67.197 -34.2084 67.2034 -34.2087 67.216C-34.2095 67.2418 -34.2109 67.2904 -34.2129 67.3545C-34.2174 67.4931 -34.2232 67.6524 -34.2294 67.7903C-34.2376 67.9713 -34.2378 67.9234 -34.2221 67.7127C-34.2146 67.6126 -34.1888 67.2736 -34.1351 66.7917C-34.1112 66.5775 -33.9582 65.1314 -33.5497 63.2653L38.738 79.0925ZM2.77945 68.1523C-34.207 69.152 -34.207 69.1523 -34.207 69.1527C-34.207 69.1528 -34.207 69.1532 -34.207 69.1534C-34.207 69.1539 -34.207 69.1545 -34.207 69.155C-34.2069 69.1562 -34.2069 69.1575 -34.2069 69.159C-34.2068 69.1619 -34.2067 69.1654 -34.2066 69.1694C-34.2063 69.1774 -34.2061 69.1877 -34.2057 69.2001C-34.205 69.2248 -34.2041 69.258 -34.203 69.2987C-34.2007 69.38 -34.1974 69.4922 -34.1934 69.6274C-34.1854 69.8943 -34.1738 70.2671 -34.1595 70.6776C-34.1455 71.0783 -34.0895 72.8076 -33.9692 74.2515L39.7752 68.1062C39.8337 68.8089 39.8279 69.025 39.7956 68.0977C39.7867 67.8442 39.7791 67.5994 39.7735 67.4147C39.7708 67.324 39.7687 67.2519 39.7674 67.2052C39.7668 67.182 39.7663 67.1654 39.766 67.1563C39.7659 67.1518 39.7658 67.1491 39.7658 67.1485C39.7658 67.1481 39.7658 67.1483 39.7658 67.149C39.7659 67.1494 39.7659 67.1499 39.7659 67.1505C39.7659 67.1508 39.7659 67.1511 39.7659 67.1515C39.7659 67.1517 39.7659 67.152 39.7659 67.1521C39.7659 67.1524 39.7659 67.1527 2.77945 68.1523ZM-33.9692 74.2516C-33.3718 81.4204 -30.7881 87.9047 -26.9701 93.1992C-25.3446 95.4534 -23.7901 97.0809 -22.8509 98.0102C-22.3692 98.4868 -21.9628 98.8638 -21.7074 99.0971C-21.4629 99.3205 -21.2572 99.5026 -21.2219 99.5339L27.8926 44.1826C27.8926 44.1826 27.8945 44.1843 27.8976 44.1871C27.9008 44.1899 27.9058 44.1943 27.9121 44.2C27.9245 44.211 27.9447 44.229 27.9702 44.2519C28.0197 44.2962 28.1034 44.3713 28.208 44.4669C28.4089 44.6505 28.7631 44.9785 29.1953 45.4061C30.0355 46.2374 31.5015 47.7668 33.0516 49.9164C36.7187 55.0018 39.2039 61.2508 39.7752 68.1062L-33.9692 74.2516ZM-21.2219 99.5339C-18.7126 101.76 -16.0299 103.556 -13.2729 104.969C-12.1187 105.56 -11.1748 105.968 -10.751 106.148C-10.6837 106.177 -9.80913 106.543 -10.3832 106.303L18.1657 38.0315C18.0471 37.9819 17.9183 37.9288 17.945 37.9398C17.945 37.9398 17.9521 37.9428 17.9628 37.9472C17.9737 37.9517 17.9913 37.959 18.0134 37.9683C18.0564 37.9862 18.1284 38.0163 18.2187 38.0547C18.5458 38.1939 19.3999 38.5616 20.467 39.1083C23.0498 40.4314 25.5691 42.1209 27.8926 44.1826L-21.2219 99.5339ZM-10.3832 106.303C-6.20444 108.05 -2.62329 108.605 -2.03318 108.703C-0.741562 108.919 0.318084 109.028 0.893151 109.081C2.0813 109.191 3.08887 109.233 3.58921 109.251C4.18088 109.272 4.69016 109.281 5.02216 109.286C5.19828 109.288 5.35019 109.289 5.4699 109.29C5.53024 109.29 5.58372 109.29 5.62944 109.29C5.65234 109.291 5.67341 109.291 5.69254 109.291C5.70211 109.291 5.71121 109.291 5.71982 109.291C5.72412 109.291 5.72831 109.291 5.73238 109.291C5.73441 109.291 5.73641 109.291 5.73838 109.291C5.73937 109.291 5.74082 109.291 5.74131 109.291C5.74276 109.291 5.7442 109.291 5.7442 72.2906C5.7442 35.2906 5.74563 35.2906 5.74706 35.2906C5.74752 35.2906 5.74895 35.2906 5.74988 35.2906C5.75176 35.2906 5.75362 35.2906 5.75546 35.2906C5.75915 35.2906 5.76277 35.2906 5.76633 35.2907C5.77344 35.2907 5.7803 35.2907 5.78691 35.2907C5.80013 35.2907 5.81242 35.2907 5.82384 35.2907C5.8466 35.2908 5.86633 35.2909 5.8835 35.291C5.91688 35.2912 5.94479 35.2914 5.97028 35.2918C6.00101 35.2921 6.10244 35.2935 6.26778 35.2994C6.34181 35.3021 6.9046 35.3209 7.71762 35.3962C8.10513 35.4321 8.99462 35.5205 10.1445 35.7123C10.5929 35.7871 14.0608 36.3149 18.1657 38.0315L-10.3832 106.303ZM5.7442 72.2906C3.2628 35.3739 3.26217 35.374 3.26152 35.374C3.2613 35.374 3.26064 35.3741 3.26019 35.3741C3.25929 35.3742 3.25837 35.3742 3.25741 35.3743C3.25549 35.3744 3.25346 35.3746 3.25131 35.3747C3.24701 35.375 3.24225 35.3753 3.23704 35.3757C3.22663 35.3764 3.21438 35.3772 3.20043 35.3782C3.17256 35.3801 3.13762 35.3825 3.09654 35.3854C3.01487 35.391 2.90614 35.3987 2.77816 35.4081C2.53383 35.4259 2.16753 35.4535 1.7606 35.4878C1.42313 35.5162 0.754529 35.5742 0.0127854 35.6593C-0.304931 35.6958 -1.08508 35.7874 -2.03741 35.9451C-2.47853 36.0181 -3.45088 36.1853 -4.66019 36.474C-5.26638 36.6188 -6.29596 36.8797 -7.54778 37.2873C-8.50521 37.599 -11.1098 38.4731 -14.1619 40.1791L21.9444 104.773C18.9 106.474 16.3063 107.344 15.3626 107.651C14.1246 108.055 13.1117 108.311 12.525 108.451C11.3546 108.73 10.4321 108.888 10.0501 108.951C9.21594 109.089 8.59118 109.161 8.45297 109.176C8.07023 109.22 7.85716 109.236 7.96748 109.227C8.00836 109.224 8.08214 109.218 8.16594 109.212C8.20202 109.209 8.22937 109.207 8.24277 109.206C8.24921 109.206 8.25155 109.206 8.24907 109.206C8.24782 109.206 8.2453 109.206 8.24143 109.206C8.2395 109.206 8.23722 109.207 8.23459 109.207C8.23327 109.207 8.23187 109.207 8.23037 109.207C8.22962 109.207 8.22885 109.207 8.22806 109.207C8.22766 109.207 8.22704 109.207 8.22685 109.207C8.22623 109.207 8.2256 109.207 5.7442 72.2906ZM-14.162 40.1792C-17.8334 42.2314 -20.8238 44.649 -23.3462 47.2744L30.0169 98.5422C29.4655 99.1161 28.1953 100.402 26.3744 101.824C24.5105 103.281 22.8811 104.249 21.9444 104.773L-14.162 40.1792ZM-23.3462 47.2744C-23.1621 47.0828 -23.0198 46.9396 -23.0088 46.9286C-22.9345 46.8536 -23.1203 47.0404 -23.2674 47.1909C-23.5838 47.5146 -24.639 48.5949 -25.8333 50.0892C-27.1252 51.7055 -28.6152 53.8393 -29.9782 56.5077C-31.3483 59.1899 -32.3298 61.9022 -32.9923 64.5522L38.7983 82.4998C38.1715 85.0069 37.2364 87.5971 35.9222 90.1699C34.615 92.7289 33.1904 94.7659 31.9722 96.2901C30.8516 97.6922 29.8783 98.6849 29.6509 98.9176C29.5483 99.0225 29.4088 99.1629 29.5311 99.0396C29.59 98.9802 29.7818 98.7869 30.0169 98.5422L-23.3462 47.2744ZM-32.9923 64.5521C-33.5996 66.9813 -33.8286 68.9664 -33.8966 69.5584C-33.9985 70.4468 -34.055 71.196 -34.0865 71.6689C-34.1501 72.6239 -34.1779 73.4702 -34.1916 73.9778C-34.2068 74.5411 -34.2136 75.0362 -34.2169 75.3729C-34.2186 75.5482 -34.2195 75.6975 -34.22 75.8124C-34.2202 75.8701 -34.2204 75.9201 -34.2204 75.9612C-34.2205 75.9818 -34.2205 76.0002 -34.2205 76.0165C-34.2205 76.0246 -34.2205 76.0321 -34.2205 76.0391C-34.2205 76.0426 -34.2205 76.046 -34.2205 76.0492C-34.2205 76.0508 -34.2205 76.0523 -34.2205 76.0539C-34.2205 76.0546 -34.2205 76.0558 -34.2205 76.0561C-34.2205 76.0572 -34.2205 76.0583 2.77945 76.0583C39.7795 76.0583 39.7795 76.0594 39.7795 76.0605C39.7795 76.0609 39.7795 76.0619 39.7795 76.0627C39.7795 76.0641 39.7795 76.0654 39.7795 76.0668C39.7795 76.0695 39.7795 76.0721 39.7794 76.0746C39.7794 76.0797 39.7794 76.0843 39.7794 76.0885C39.7794 76.097 39.7794 76.1039 39.7794 76.1095C39.7794 76.1205 39.7794 76.1262 39.7794 76.1272C39.7794 76.1287 39.7794 76.115 39.7796 76.0914C39.7799 76.0672 39.7802 76.0402 39.7807 76.0144C39.7811 75.9874 39.7815 75.9746 39.7814 75.9771C39.7813 75.9793 39.781 75.9896 39.7804 76.0077C39.7798 76.0254 39.7788 76.0558 39.777 76.0976C39.7741 76.1675 39.7663 76.3414 39.7496 76.5913C39.7355 76.8036 39.6993 77.3126 39.621 77.9949C39.5767 78.3808 39.3747 80.1941 38.7983 82.4998L-32.9923 64.5521ZM2.77945 76.0583C39.7635 74.9706 39.7634 74.9696 39.7634 74.9687C39.7634 74.9683 39.7634 74.9673 39.7633 74.9667C39.7633 74.9653 39.7633 74.9639 39.7632 74.9625C39.7631 74.9597 39.7631 74.9567 39.763 74.9536C39.7628 74.9474 39.7626 74.9406 39.7623 74.9332C39.7619 74.9185 39.7614 74.9015 39.7608 74.8823C39.7596 74.8441 39.7581 74.7971 39.7563 74.7423C39.7527 74.6333 39.7477 74.4901 39.7413 74.3216C39.729 73.9977 39.7093 73.5213 39.6806 72.9838C39.655 72.5029 39.6078 71.6941 39.5266 70.7916C39.487 70.3504 39.4156 69.6173 39.2964 68.7457C39.2345 68.2932 38.9416 66.0601 38.1705 63.3613L-32.9822 83.6906C-33.7224 81.0999 -33.9864 79.027 -34.0212 78.7721C-34.1134 78.0981 -34.1597 77.6 -34.1762 77.4165C-34.211 77.0293 -34.2196 76.8267 -34.2144 76.9248C-34.2121 76.9663 -34.2087 77.0419 -34.2056 77.1253C-34.2042 77.1605 -34.2034 77.1847 -34.2032 77.1923C-34.203 77.1957 -34.2031 77.1942 -34.2033 77.187C-34.2034 77.1833 -34.2036 77.1782 -34.2038 77.1714C-34.2039 77.168 -34.204 77.1643 -34.2041 77.16C-34.2042 77.1579 -34.2043 77.1557 -34.2043 77.1534C-34.2044 77.1522 -34.2044 77.1511 -34.2044 77.1498C-34.2045 77.1492 -34.2045 77.1483 -34.2045 77.148C-34.2045 77.1471 -34.2046 77.1461 2.77945 76.0583ZM38.1705 63.3613C35.8336 55.1818 31.4302 50.0715 29.8642 48.3116L-25.4171 97.505C-25.4258 97.4951 -27.1347 95.6399 -28.8282 92.9599C-30.8486 89.7627 -32.1597 86.5694 -32.9822 83.6906L38.1705 63.3613ZM29.8641 48.3116C29.1335 47.4905 23.4454 40.7338 13.3681 37.3747L-10.0328 107.577C-15.5173 105.749 -19.29 103.039 -21.228 101.482C-23.2874 99.827 -24.7046 98.3056 -25.417 97.505L29.8641 48.3116ZM13.3681 37.3747C11.2209 36.6589 9.47609 36.3047 9.02457 36.2125C8.29719 36.0639 7.70453 35.9653 7.36781 35.9116C6.6853 35.8028 6.12071 35.7314 5.83891 35.6968C5.22931 35.622 4.67859 35.5665 4.37449 35.5367C4.02241 35.5022 3.70676 35.4736 3.49391 35.4548C3.38292 35.4449 3.28869 35.4368 3.21773 35.4307C3.18204 35.4277 3.15166 35.4251 3.12736 35.423C3.11519 35.422 3.10449 35.4211 3.09536 35.4203C3.09079 35.42 3.08661 35.4196 3.08283 35.4193C3.08094 35.4191 3.07915 35.419 3.07746 35.4188C3.07661 35.4188 3.07579 35.4187 3.075 35.4186C3.0746 35.4186 3.07402 35.4186 3.07382 35.4185C3.07325 35.4185 3.07268 35.4185 0 72.2906C-3.07268 109.163 -3.07324 109.163 -3.07379 109.163C-3.07396 109.163 -3.07451 109.163 -3.07486 109.163C-3.07557 109.163 -3.07625 109.163 -3.07692 109.162C-3.07825 109.162 -3.0795 109.162 -3.08068 109.162C-3.08304 109.162 -3.08509 109.162 -3.08684 109.162C-3.09035 109.161 -3.0927 109.161 -3.09397 109.161C-3.09647 109.161 -3.09482 109.161 -3.08962 109.161C-3.07879 109.162 -3.05575 109.164 -3.02487 109.167C-2.95399 109.173 -2.88747 109.179 -2.8458 109.184C-2.75613 109.192 -2.90152 109.179 -3.18105 109.145C-3.29783 109.131 -3.71621 109.079 -4.28218 108.989C-4.56064 108.944 -5.10245 108.855 -5.78775 108.715C-6.19721 108.631 -7.90876 108.285 -10.0328 107.577L13.3681 37.3747Z" fill="white" mask="url(#path-5-inside-3_548_19)"/>
<mask id="path-7-inside-4_548_19" fill="white">
<path d="M5.84085 64.6428C4.88349 64.8556 2.96875 64.8556 2.96875 64.8556C2.96875 64.8556 5.52173 65.0683 5.84085 65.1747C6.15998 65.2811 6.48335 65.5655 6.79822 65.9193C7.12028 66.2812 7.30338 66.5173 7.43647 66.9831C7.64921 67.7277 7.75559 71.3444 7.75559 71.3444C7.75559 71.3444 7.75559 67.8341 7.96834 66.9831C8.09132 66.4911 8.36165 66.285 8.71296 65.9193C9.0411 65.5778 9.25688 65.4058 9.67032 65.1747C9.88307 65.0558 12.8616 64.8556 12.8616 64.8556C12.8616 64.8556 10.1791 64.8556 9.67032 64.6428C9.27574 64.4778 9.03287 64.3948 8.71296 64.111C8.30782 63.7515 8.01332 63.4806 7.96834 62.9409C7.86196 61.6644 7.75559 57.7285 7.75559 57.7285C7.75559 57.7285 7.64921 61.9692 7.43647 62.9409C7.32514 63.4493 7.17519 63.752 6.79822 64.111C6.48848 64.4059 6.25837 64.5501 5.84085 64.6428Z"/>
</mask>
<path d="M5.84085 64.6428C4.88349 64.8556 2.96875 64.8556 2.96875 64.8556C2.96875 64.8556 5.52173 65.0683 5.84085 65.1747C6.15998 65.2811 6.48335 65.5655 6.79822 65.9193C7.12028 66.2812 7.30338 66.5173 7.43647 66.9831C7.64921 67.7277 7.75559 71.3444 7.75559 71.3444C7.75559 71.3444 7.75559 67.8341 7.96834 66.9831C8.09132 66.4911 8.36165 66.285 8.71296 65.9193C9.0411 65.5778 9.25688 65.4058 9.67032 65.1747C9.88307 65.0558 12.8616 64.8556 12.8616 64.8556C12.8616 64.8556 10.1791 64.8556 9.67032 64.6428C9.27574 64.4778 9.03287 64.3948 8.71296 64.111C8.30782 63.7515 8.01332 63.4806 7.96834 62.9409C7.86196 61.6644 7.75559 57.7285 7.75559 57.7285C7.75559 57.7285 7.64921 61.9692 7.43647 62.9409C7.32514 63.4493 7.17519 63.752 6.79822 64.111C6.48848 64.4059 6.25837 64.5501 5.84085 64.6428Z" fill="white"/>
<path d="M2.96875 64.8556V27.8556L-0.103934 101.728L2.96875 64.8556ZM5.84085 64.6428L-2.18556 28.5239L-2.18558 28.5239L5.84085 64.6428ZM6.79822 64.111L-18.7161 37.3151L-18.7161 37.3151L6.79822 64.111ZM7.43647 62.9409L43.5803 70.8545L7.43647 62.9409ZM7.75559 57.7285L44.7421 56.7289L-29.2328 56.8007L7.75559 57.7285ZM7.96834 62.9409L44.8405 59.8682L44.8405 59.8682L7.96834 62.9409ZM8.71296 64.111L-15.8443 91.7866L-15.8443 91.7866L8.71296 64.111ZM9.67032 64.6428L23.9448 30.5072L23.9448 30.5072L9.67032 64.6428ZM12.8616 64.8556L15.3429 101.772L12.8616 27.8556V64.8556ZM9.67032 65.1747L-8.38281 32.8779L-8.38286 32.8779L9.67032 65.1747ZM8.71296 65.9193L35.3945 91.5532L35.3945 91.5532L8.71296 65.9193ZM7.96834 66.9831L-27.9269 58.0092L-27.9269 58.0093L7.96834 66.9831ZM7.75559 71.3444L-29.2284 72.4322L44.7556 71.3444H7.75559ZM7.43647 66.9831L43.0129 56.8184L43.0128 56.8184L7.43647 66.9831ZM6.79822 65.9193L-20.8424 90.516L-20.8424 90.516L6.79822 65.9193ZM5.84085 65.1747L17.5413 30.0734L17.5412 30.0734L5.84085 65.1747ZM2.96875 64.8556C2.96875 101.856 2.97077 101.856 2.97279 101.856C2.97348 101.856 2.97552 101.856 2.97689 101.856C2.97964 101.856 2.98243 101.856 2.98525 101.856C2.9909 101.856 2.9967 101.856 3.00264 101.856C3.01452 101.856 3.027 101.856 3.04005 101.856C3.06614 101.855 3.09459 101.855 3.12528 101.855C3.18658 101.855 3.25726 101.855 3.33641 101.854C3.49391 101.853 3.68943 101.851 3.91527 101.847C4.35335 101.839 4.97092 101.824 5.68861 101.793C6.24642 101.768 9.89131 101.645 13.8673 100.762L-2.18558 28.5239C-0.250981 28.094 1.1842 27.9607 1.48026 27.9325C1.98466 27.8845 2.31622 27.8693 2.40297 27.8655C2.52231 27.8602 2.60135 27.8585 2.6505 27.8577C2.68188 27.8571 2.72033 27.8566 2.76938 27.8563C2.79431 27.8561 2.82291 27.8559 2.8557 27.8558C2.87213 27.8557 2.8897 27.8557 2.90849 27.8556C2.91789 27.8556 2.92761 27.8556 2.93764 27.8556C2.94266 27.8556 2.94776 27.8556 2.95295 27.8556C2.95554 27.8556 2.95815 27.8556 2.96078 27.8556C2.9621 27.8556 2.96409 27.8556 2.96475 27.8556C2.96675 27.8556 2.96875 27.8556 2.96875 64.8556ZM13.8673 100.762C16.8013 100.11 20.6087 98.9167 24.6655 96.6071C28.4946 94.4272 31.1021 92.0594 32.3125 90.9069L-18.7161 37.3151C-17.8154 36.4575 -15.4779 34.3092 -11.9456 32.2983C-8.18563 30.1577 -4.70204 29.0831 -2.18556 28.5239L13.8673 100.762ZM32.3125 90.9069C34.5973 88.7314 37.4482 85.508 39.8392 81.0401C42.1364 76.7477 43.1237 72.9398 43.5803 70.8545L-28.7073 55.0273C-28.3621 53.4504 -27.5054 50.048 -25.4053 46.1239C-23.2114 42.0242 -20.6239 39.1316 -18.7161 37.3151L32.3125 90.9069ZM43.5803 70.8545C44.2793 67.6617 44.46 64.6511 44.4734 64.4717C44.5521 63.4166 44.6045 62.3869 44.6384 61.6341C44.6742 60.838 44.6999 60.1115 44.7165 59.5977C44.7249 59.3356 44.7314 59.1163 44.7359 58.9558C44.7382 58.8754 44.74 58.8089 44.7413 58.7585C44.742 58.7333 44.7425 58.712 44.743 58.6949C44.7432 58.6864 44.7434 58.6789 44.7435 58.6724C44.7436 58.6692 44.7437 58.6663 44.7438 58.6636C44.7438 58.6622 44.7438 58.661 44.7439 58.6598C44.7439 58.6592 44.7439 58.6583 44.7439 58.658C44.7439 58.6572 44.744 58.6563 7.75559 57.7285C-29.2328 56.8007 -29.2328 56.7999 -29.2327 56.7991C-29.2327 56.7989 -29.2327 56.7981 -29.2327 56.7977C-29.2327 56.7967 -29.2327 56.7958 -29.2326 56.795C-29.2326 56.7933 -29.2326 56.7919 -29.2325 56.7908C-29.2325 56.7884 -29.2324 56.787 -29.2324 56.7865C-29.2324 56.7855 -29.2325 56.7882 -29.2326 56.7942C-29.2329 56.8064 -29.2336 56.8321 -29.2347 56.8694C-29.2368 56.9446 -29.2403 57.0643 -29.2452 57.2149C-29.2552 57.5266 -29.2694 57.9209 -29.2868 58.3065C-29.2953 58.4967 -29.3035 58.6593 -29.3108 58.7897C-29.3186 58.9272 -29.3226 58.9802 -29.3212 58.9613C-29.3202 58.9484 -29.3161 58.8938 -29.3081 58.8044C-29.3005 58.7191 -29.2855 58.5594 -29.2614 58.3428C-29.2473 58.2162 -29.1048 56.8425 -28.7073 55.0273L43.5803 70.8545ZM7.75559 57.7285C-29.2309 58.7282 -29.2309 58.7285 -29.2309 58.7289C-29.2309 58.729 -29.2309 58.7294 -29.2309 58.7297C-29.2308 58.7302 -29.2308 58.7308 -29.2308 58.7315C-29.2308 58.7329 -29.2307 58.7345 -29.2307 58.7364C-29.2306 58.7401 -29.2305 58.7447 -29.2303 58.7503C-29.23 58.7615 -29.2296 58.7764 -29.2291 58.7949C-29.2281 58.8319 -29.2266 58.8831 -29.2248 58.9469C-29.2212 59.0743 -29.2161 59.2531 -29.2096 59.4698C-29.1967 59.8998 -29.1781 60.4957 -29.1554 61.1459C-29.1247 62.0262 -29.0465 64.302 -28.9039 66.0135L44.8405 59.8682C44.8768 60.3033 44.8487 59.9728 44.7996 58.5661C44.7824 58.0728 44.7677 57.6049 44.7573 57.2571C44.7522 57.0849 44.7482 56.9462 44.7456 56.8534C44.7442 56.8071 44.7433 56.7725 44.7427 56.7511C44.7424 56.7405 44.7422 56.7332 44.7421 56.7294C44.742 56.7275 44.742 56.7265 44.742 56.7264C44.742 56.7263 44.742 56.7265 44.742 56.7269C44.742 56.7272 44.742 56.7274 44.7421 56.7277C44.7421 56.7279 44.7421 56.7282 44.7421 56.7283C44.7421 56.7286 44.7421 56.7289 7.75559 57.7285ZM-28.9039 66.0135C-28.297 73.2955 -25.6777 79.8649 -21.8052 85.2349C-20.1525 87.5269 -18.5661 89.1898 -17.5911 90.1545C-16.6905 91.0455 -15.8743 91.76 -15.8443 91.7866L33.2702 36.4353C32.5067 35.7578 35.5447 38.2472 38.2164 41.9521C41.8291 46.9619 44.2787 53.1259 44.8405 59.8682L-28.9039 66.0135ZM-15.8443 91.7866C-13.2679 94.0727 -10.5262 95.9072 -7.70631 97.3518C-6.52065 97.9592 -5.54429 98.3818 -5.08558 98.5769C-4.98341 98.6204 -4.07143 99.0012 -4.60413 98.7785L23.9448 30.5072C23.8644 30.4736 23.796 30.4453 23.7496 30.4261C23.7265 30.4165 23.706 30.408 23.6924 30.4024C23.6753 30.3953 23.6718 30.3939 23.6648 30.391C23.6281 30.3758 23.7369 30.4206 23.8841 30.4832C24.1763 30.6075 24.998 30.9606 26.0336 31.4912C28.5535 32.7821 31.0137 34.4331 33.2702 36.4353L-15.8443 91.7866ZM-4.60413 98.7784C-0.398676 100.537 3.22338 101.102 3.86467 101.209C5.20747 101.433 6.32855 101.549 6.97135 101.608C8.29496 101.731 9.46315 101.781 10.1174 101.805C10.863 101.832 11.5196 101.844 11.9604 101.849C12.1909 101.852 12.3876 101.854 12.5385 101.855C12.6144 101.855 12.6801 101.855 12.7341 101.855C12.7611 101.855 12.7854 101.856 12.8067 101.856C12.8173 101.856 12.8272 101.856 12.8364 101.856C12.8409 101.856 12.8453 101.856 12.8495 101.856C12.8516 101.856 12.8537 101.856 12.8557 101.856C12.8567 101.856 12.8581 101.856 12.8586 101.856C12.8601 101.856 12.8616 101.856 12.8616 64.8556C12.8616 27.8556 12.863 27.8556 12.8644 27.8556C12.8649 27.8556 12.8663 27.8556 12.8672 27.8556C12.869 27.8556 12.8708 27.8556 12.8726 27.8556C12.8762 27.8556 12.8796 27.8556 12.8829 27.8556C12.8894 27.8556 12.8955 27.8556 12.901 27.8556C12.9121 27.8556 12.9212 27.8556 12.9285 27.8557C12.943 27.8557 12.9505 27.8557 12.9521 27.8558C12.9543 27.8558 12.9374 27.8557 12.9085 27.8553C12.8305 27.8543 12.7846 27.8528 12.796 27.8532C12.8066 27.8536 12.8823 27.8564 13.0119 27.8638C13.1262 27.8703 13.4039 27.8872 13.7958 27.9235C14.1156 27.9531 14.9436 28.0342 16.0424 28.2175C16.4396 28.2838 19.8665 28.8018 23.9448 30.5072L-4.60413 98.7784ZM12.8616 64.8556C10.3802 27.9389 10.3795 27.9389 10.3789 27.939C10.3786 27.939 10.378 27.939 10.3775 27.9391C10.3766 27.9391 10.3756 27.9392 10.3745 27.9393C10.3725 27.9394 10.3702 27.9396 10.3678 27.9397C10.3629 27.9401 10.3572 27.9404 10.3508 27.9409C10.338 27.9417 10.3223 27.9428 10.3037 27.9441C10.2667 27.9466 10.2183 27.9499 10.1601 27.954C10.0441 27.9621 9.88619 27.9733 9.69896 27.9869C9.33614 28.0134 8.81092 28.0531 8.24229 28.1009C7.74311 28.143 6.91001 28.2161 6.03862 28.3161C5.65608 28.36 4.81982 28.4591 3.82479 28.6238C3.36233 28.7004 2.37198 28.871 1.14862 29.1631C0.535401 29.3095 -0.500217 29.5721 -1.75702 29.9813C-2.71943 30.2946 -5.32797 31.1703 -8.38281 32.8779L27.7235 97.4715C24.6819 99.1717 22.0921 100.04 21.1534 100.345C19.9204 100.747 18.9135 101.002 18.3338 101.14C17.1775 101.416 16.2729 101.57 15.9123 101.63C15.1208 101.761 14.5522 101.825 14.4788 101.833C14.2257 101.862 14.1771 101.863 14.4491 101.84C14.6517 101.823 14.8844 101.805 15.0867 101.791C15.182 101.784 15.2585 101.778 15.3063 101.775C15.3299 101.773 15.3457 101.772 15.3524 101.772C15.3557 101.771 15.3567 101.771 15.3552 101.771C15.3544 101.772 15.3531 101.772 15.351 101.772C15.35 101.772 15.3488 101.772 15.3475 101.772C15.3468 101.772 15.3461 101.772 15.3453 101.772C15.345 101.772 15.3444 101.772 15.3442 101.772C15.3436 101.772 15.3429 101.772 12.8616 64.8556ZM-8.38286 32.8779C-12.2276 35.0271 -15.3086 37.5168 -17.9686 40.2855L35.3945 91.5532C34.9119 92.0555 33.6987 93.2872 31.9393 94.6618C30.1369 96.0701 28.5735 96.9964 27.7235 97.4715L-8.38286 32.8779ZM-17.9686 40.2855C-17.8814 40.1947 -17.81 40.1216 -17.7622 40.0728C-17.7382 40.0483 -17.7189 40.0288 -17.706 40.0158C-17.6935 40.0031 -17.6853 39.9948 -17.6848 39.9943C-17.6277 39.9368 -17.8303 40.1403 -17.9935 40.3073C-18.342 40.6639 -19.4268 41.7759 -20.6477 43.3034C-21.9662 44.953 -23.4798 47.1218 -24.863 49.8296C-26.2533 52.5513 -27.2515 55.3077 -27.9269 58.0092L43.8636 75.9569C43.2497 78.4125 42.3313 80.9586 41.0373 83.4919C39.7504 86.0113 38.3494 88.0134 37.1578 89.5043C36.0638 90.8731 35.1201 91.8343 34.9248 92.034C34.8383 92.1225 34.7155 92.2461 34.8551 92.1054C34.9313 92.0285 35.141 91.8171 35.3945 91.5532L-17.9686 40.2855ZM-27.9269 58.0093C-28.897 61.8896 -29.0648 65.4441 -29.0727 65.5623C-29.1489 66.7055 -29.185 67.7693 -29.2043 68.4832C-29.2251 69.2528 -29.2347 69.9431 -29.2393 70.4234C-29.2417 70.6704 -29.243 70.8787 -29.2437 71.0345C-29.244 71.1127 -29.2442 71.1786 -29.2443 71.2306C-29.2443 71.2567 -29.2444 71.2793 -29.2444 71.2983C-29.2444 71.3078 -29.2444 71.3164 -29.2444 71.3241C-29.2444 71.328 -29.2444 71.3316 -29.2444 71.335C-29.2444 71.3366 -29.2444 71.3383 -29.2444 71.3399C-29.2444 71.3406 -29.2444 71.3418 -29.2444 71.3422C-29.2444 71.3433 -29.2444 71.3444 7.75559 71.3444C44.7556 71.3444 44.7556 71.3455 44.7556 71.3466C44.7556 71.3469 44.7556 71.348 44.7556 71.3487C44.7556 71.35 44.7556 71.3513 44.7556 71.3526C44.7556 71.3551 44.7556 71.3575 44.7556 71.3596C44.7556 71.3639 44.7556 71.3675 44.7556 71.3703C44.7556 71.376 44.7556 71.3788 44.7556 71.3789C44.7556 71.3791 44.7556 71.3688 44.7557 71.3494C44.7558 71.3098 44.7562 71.2372 44.7572 71.1418C44.7592 70.9373 44.7629 70.6969 44.7687 70.4825C44.776 70.2125 44.7798 70.2391 44.7634 70.4847C44.7555 70.603 44.7266 71.0251 44.6569 71.633C44.6211 71.9446 44.4289 73.6958 43.8636 75.9569L-27.9269 58.0093ZM7.75559 71.3444C44.7396 70.2567 44.7396 70.2557 44.7395 70.2547C44.7395 70.2544 44.7395 70.2534 44.7395 70.2527C44.7394 70.2513 44.7394 70.2498 44.7394 70.2483C44.7393 70.2453 44.7392 70.2421 44.7391 70.2386C44.7389 70.2316 44.7386 70.2237 44.7383 70.2149C44.7378 70.1973 44.7372 70.176 44.7364 70.1513C44.7349 70.1019 44.7328 70.0384 44.7303 69.9626C44.7253 69.8115 44.7183 69.6078 44.7091 69.3658C44.6912 68.8949 44.6631 68.2191 44.6233 67.4724C44.5865 66.7824 44.5254 65.7548 44.4275 64.6662C44.3795 64.132 44.299 63.314 44.1701 62.3711C44.0984 61.8472 43.7951 59.5563 43.0129 56.8184L-28.1399 77.1477C-28.869 74.596 -29.1224 72.581 -29.1475 72.3974C-29.23 71.7948 -29.2672 71.3816 -29.2753 71.2912C-29.2934 71.0901 -29.2881 71.1063 -29.2717 71.4135C-29.2583 71.6641 -29.2465 71.9391 -29.2378 72.1695C-29.2337 72.2782 -29.2308 72.363 -29.2291 72.4126C-29.2283 72.437 -29.2278 72.452 -29.2277 72.4559C-29.2276 72.4579 -29.2277 72.457 -29.2278 72.4531C-29.2279 72.4512 -29.2279 72.4485 -29.228 72.445C-29.2281 72.4433 -29.2281 72.4413 -29.2282 72.4392C-29.2282 72.4381 -29.2283 72.437 -29.2283 72.4358C-29.2283 72.4353 -29.2284 72.4343 -29.2284 72.434C-29.2284 72.4331 -29.2284 72.4322 7.75559 71.3444ZM43.0128 56.8184C40.6201 48.4436 36.1399 43.2343 34.4388 41.3226L-20.8424 90.516C-20.8797 90.474 -21.299 90.0058 -21.8252 89.3511C-22.3949 88.6423 -23.2124 87.5665 -24.09 86.1776C-26.0674 83.0486 -27.3453 79.9289 -28.1399 77.1478L43.0128 56.8184ZM34.4388 41.3226C33.5761 40.3531 27.7524 33.4771 17.5413 30.0734L-5.85958 100.276C-11.2772 98.4701 -14.9826 95.8007 -16.8534 94.2976C-18.8457 92.6969 -20.196 91.2424 -20.8424 90.516L34.4388 41.3226ZM17.5412 30.0734C15.3857 29.3549 13.6289 28.9978 13.1621 28.9024C12.4196 28.7507 11.8086 28.6489 11.4508 28.5919C10.7262 28.4763 10.1088 28.3978 9.76743 28.3559C9.03865 28.2664 8.34156 28.1956 7.89527 28.1518C7.401 28.1033 6.94735 28.0622 6.63203 28.0343C6.46981 28.02 6.33324 28.0082 6.23275 27.9996C6.18229 27.9953 6.14034 27.9917 6.10816 27.989C6.09206 27.9876 6.07835 27.9865 6.06719 27.9855C6.0616 27.9851 6.05666 27.9847 6.05236 27.9843C6.05021 27.9841 6.04822 27.984 6.0464 27.9838C6.04549 27.9837 6.04462 27.9837 6.04379 27.9836C6.04338 27.9836 6.04279 27.9835 6.04258 27.9835C6.042 27.9834 6.04143 27.9834 2.96875 64.8556C-0.103934 101.728 -0.104484 101.728 -0.105025 101.728C-0.105192 101.728 -0.105725 101.728 -0.106061 101.728C-0.106734 101.728 -0.107371 101.727 -0.107972 101.727C-0.109175 101.727 -0.110235 101.727 -0.111155 101.727C-0.112996 101.727 -0.114278 101.727 -0.115019 101.727C-0.116499 101.727 -0.115835 101.727 -0.113166 101.727C-0.107792 101.727 -0.0945779 101.729 -0.074603 101.73C-0.0342345 101.734 0.0311436 101.739 0.113251 101.747C0.286591 101.762 0.491128 101.781 0.674989 101.799C0.906842 101.821 0.907827 101.824 0.747485 101.804C0.690309 101.797 0.324728 101.753 -0.199162 101.669C-0.456571 101.628 -0.980016 101.542 -1.65013 101.405C-2.04439 101.324 -3.7439 100.981 -5.85953 100.276L17.5412 30.0734Z" fill="white" mask="url(#path-7-inside-4_548_19)"/>
<path d="M61.9433 99.8053C60.9711 97.4688 59.7874 79.7174 63.3312 76.9577C64.2907 76.2105 66.0303 76.3229 67.6018 76.6374C69.2021 76.9577 70.2554 77.5755 70.9103 79.2001C71.3409 80.268 68.2412 89.663 68.7762 92.6521C68.9603 93.6806 69.0131 95.0348 70.0574 95.0009C70.9826 94.9708 71.1528 93.9575 71.4453 93.0791C72.405 90.1969 71.978 78.5595 74.0076 77.3848C74.7455 76.9577 77.2596 76.2325 79.1323 76.9577C80.6467 77.5441 82.8508 78.2336 82.2285 79.7336C80.4124 84.1113 79.5582 95.5351 81.2676 95.0009C82.478 94.6226 83.594 92.9985 84.3368 94.0262C85.4842 95.6139 84.0845 98.1079 83.7232 98.9512C82.7623 101.194 81.9071 103.862 77.5297 103.862C74.4613 103.862 73.3659 98.5241 72.8332 98.5241C72.3005 98.5241 72.1915 103.436 67.495 103.862C64.8207 104.105 63.0096 102.368 61.9433 99.8053Z" fill="white"/>
<path d="M113.704 77.442C118.402 77.442 119.256 81.1787 119.256 81.1787C119.256 81.1787 121.744 76.7845 124.487 76.3743C126.75 76.036 128.14 76.9913 130.023 78.2851L130.039 78.2961C130.253 78.4431 125.983 82.8823 127.477 96.2302C127.903 100.029 130.681 104.24 133.456 104.24C135.939 104.24 137.669 102.757 137.94 100.289C138.169 98.2122 136.806 96.205 134.737 95.9121C133.088 95.6785 132.552 98.4622 132.175 98.261C127.37 95.6987 128.562 90.8539 130.68 88.1183C133.243 84.8086 136.149 83.8005 140.609 84.4884C146.023 85.3237 149.194 89.8383 149.898 95.2715C150.941 103.319 143.876 110.875 135.805 111.713C129.647 112.353 125.094 109.78 121.605 104.667C119.045 100.916 119.054 93.7768 118.829 93.7768C118.723 93.7768 118.296 105.201 111.035 105.201C108.145 105.201 106.338 103.279 105.163 100.717C102.783 95.5241 103.899 87.9047 105.163 85.1289C107.131 80.8093 108.958 77.442 113.704 77.442Z" fill="white"/>
<mask id="path-11-inside-5_548_19" fill="white">
<path d="M113.179 87.6937C113.605 85.3446 113.833 81.6985 116.275 82.142C117.449 82.355 116.93 85.7621 116.489 88.014C115.947 90.7772 115.1 94.9829 113.179 94.6335C112.005 94.4199 112.71 90.2782 113.179 87.6937Z"/>
</mask>
<path d="M116.275 82.142L117.347 76.2385L117.347 76.2385L116.275 82.142ZM113.179 87.6937L107.276 86.6224L107.276 86.6224L113.179 87.6937ZM113.179 94.6335L114.253 88.7304L114.253 88.7304L113.179 94.6335ZM116.489 88.014L110.601 86.8601L110.601 86.8601L116.489 88.014ZM117.347 76.2385C115.067 75.8245 112.749 76.3762 110.932 77.9229C109.405 79.223 108.684 80.8468 108.328 81.8316C107.685 83.6118 107.364 86.1373 107.276 86.6224L119.083 88.765C119.149 88.3981 119.21 88.0195 119.259 87.7104C119.312 87.3787 119.357 87.1007 119.405 86.833C119.507 86.2616 119.582 85.9988 119.614 85.9096C119.674 85.7447 119.494 86.3933 118.71 87.061C118.264 87.4406 117.669 87.7838 116.951 87.9682C116.243 88.1501 115.629 88.1228 115.203 88.0454L117.347 76.2385ZM107.276 86.6224C107.049 87.8692 106.689 89.8851 106.575 91.6714C106.522 92.5054 106.485 93.7547 106.734 94.9986C106.858 95.6161 107.73 99.7408 112.105 100.537L114.253 88.7304C116.056 89.0584 117.224 90.1627 117.82 91.0593C118.332 91.8295 118.47 92.4884 118.501 92.6464C118.567 92.9728 118.516 92.9851 118.551 92.4339C118.613 91.4499 118.84 90.1027 119.083 88.765L107.276 86.6224ZM112.105 100.537C115.218 101.103 117.571 99.5805 118.842 98.2022C119.964 96.9845 120.595 95.5717 120.952 94.642C121.693 92.7131 122.129 90.4345 122.377 89.1679L110.601 86.8601C110.464 87.5565 110.331 88.2263 110.177 88.8698C110.021 89.5265 109.875 90.014 109.75 90.34C109.587 90.7635 109.612 90.5093 110.019 90.0683C110.26 89.8068 110.75 89.3556 111.537 89.0269C112.388 88.6712 113.34 88.5644 114.253 88.7304L112.105 100.537ZM122.377 89.1679C122.604 88.0094 122.929 86.1889 122.984 84.5107C123.01 83.733 123.003 82.4759 122.636 81.1895C122.316 80.0645 121.072 76.9148 117.347 76.2385L115.203 88.0454C113.788 87.7884 112.701 87.0175 112.011 86.1804C111.403 85.444 111.175 84.7565 111.095 84.4759C110.948 83.9586 111.003 83.734 110.991 84.1162C110.97 84.7578 110.815 85.7667 110.601 86.8601L122.377 89.1679Z" fill="#1E1E1E" mask="url(#path-11-inside-5_548_19)"/>
<path d="M87.337 82.961C87.6696 85.2225 88.3228 89.2884 83.0585 94.0327C82.6674 94.3852 77.9034 102.75 78.4677 102.894C79.0305 103.038 79.2438 104.006 81.5636 102.681C83.0585 101.827 90.1646 98.6992 91.5968 83.5267C91.6078 83.4102 92.7774 83.5581 93.4901 83.7782C93.8753 83.8971 91.7412 90.8167 91.4734 94.9738C91.2415 98.5725 92.391 102.315 95.7832 103.539C98.8463 104.645 101.604 102.834 104.056 100.691C107.805 97.414 108.007 86.5709 105.924 88.0786C104.122 89.3823 104.045 92.4438 102.321 92.0291C99.6186 91.379 101.632 86.7335 101.326 83.5643C101.102 81.2492 100.005 79.7283 97.7347 79.3808C95.5437 79.0455 92.1345 79.8413 92.0649 79.6393C91.5084 78.023 91.4708 76.0405 89.766 75.9142C88.955 75.8542 85.8165 76.8267 85.3176 79.7035C84.7125 83.1922 87.2284 82.2219 87.337 82.961Z" fill="white"/>
<path d="M17.6258 97.3464C15.3909 94.5424 18.9148 89.1247 17.6258 88.1646C17.6258 88.1646 8.51745 99.2133 21.0501 102.684C27.9899 104.606 33.2777 97.4616 35.6769 89.8721C37.4998 84.1059 40.6244 76.1351 44.5385 71.8296C47.7414 68.3063 51.4704 65.8507 51.4704 65.8507C51.4704 65.8507 37.1638 62.647 32.5808 65.3161C30.2028 66.701 29.4469 70.6483 31.9324 71.8296C33.8981 72.7638 37.1638 69.9078 37.1638 69.9078C37.1638 69.9078 44.317 73.8573 37.1638 81.7579C34.2382 84.9893 27.7684 83.894 25.3129 79.7302C21.6754 73.562 22.8286 67.2786 27.0212 61.4733C30.6254 56.4827 35.394 54.8658 41.5411 54.5335C49.6666 54.0942 52.7355 63.7991 60.8656 64.1418C63.8937 64.2695 65.5349 61.5865 67.1647 64.1418C68.1289 65.6534 68.2104 68.3063 66.4175 68.3063C63.1077 68.3063 55.9544 79.0888 58.3034 97.3464C58.9586 102.44 62.5738 106.208 68.019 106.208C69.9406 106.208 66.7377 119.446 54.353 115.603C47.1625 113.372 48.1607 97.3464 48.1607 97.3464H43.5698C43.5698 97.3464 40.1515 112.578 31.9324 115.603C25.1863 118.086 17.8733 117.779 12.2876 113.254C8.66479 110.32 5.48801 105.218 5.77488 99.1614C6.132 91.6222 10.125 84.1999 17.6258 83.3594C22.359 82.829 27.2895 83.9378 29.4846 88.1646C31.4972 92.0402 30.8097 96.9896 27.0212 99.1614C23.7792 101.02 19.955 100.269 17.6258 97.3464Z" fill="white"/>
<mask id="path-15-inside-6_548_19" fill="white">
<path d="M51.2752 74.3839C52.8675 72.7211 55.7593 70.4336 55.7593 70.4336L49.6737 90.185H44.9761C44.9761 90.185 46.3136 85.7553 47.1114 83.0318C48.2231 79.2367 49.6828 76.0467 51.2752 74.3839Z"/>
</mask>
<path d="M55.7593 70.4336L70.0943 74.8503L84.3053 28.7269L46.4533 58.6693L55.7593 70.4336ZM47.1114 83.0318L32.7163 78.8151L32.7163 78.8151L47.1114 83.0318ZM44.9761 90.185L30.6164 85.8493L24.7782 105.185H44.9761V90.185ZM49.6737 90.185V105.185H60.7479L64.0087 94.6017L49.6737 90.185ZM55.7593 70.4336C46.4533 58.6693 46.4528 58.6697 46.4523 58.6701C46.4521 58.6703 46.4515 58.6707 46.4512 58.671C46.4504 58.6716 46.4496 58.6722 46.4488 58.6729C46.4471 58.6742 46.4453 58.6757 46.4432 58.6773C46.4391 58.6805 46.4343 58.6843 46.4288 58.6887C46.4178 58.6974 46.404 58.7084 46.3875 58.7215C46.3545 58.7478 46.3107 58.7827 46.2571 58.8256C46.15 58.9113 46.0031 59.0295 45.8249 59.1743C45.4711 59.4617 44.9813 59.8641 44.4282 60.3318C43.4405 61.1672 41.8134 62.5767 40.4416 64.0093L62.1088 84.7585C62.3293 84.5282 62.9443 83.9626 63.8005 83.2385C64.1694 82.9266 64.5021 82.6531 64.7402 82.4597C64.858 82.364 64.9494 82.2905 65.0068 82.2446C65.0353 82.2217 65.0552 82.2059 65.0653 82.1979C65.0704 82.1938 65.073 82.1918 65.073 82.1917C65.0731 82.1917 65.0724 82.1922 65.0711 82.1932C65.0705 82.1937 65.0697 82.1944 65.0687 82.1952C65.0682 82.1955 65.0677 82.196 65.0671 82.1964C65.0668 82.1966 65.0664 82.197 65.0662 82.1971C65.0658 82.1975 65.0653 82.1979 55.7593 70.4336ZM40.4416 64.0093C36.2259 68.4115 33.9592 74.572 32.7163 78.8151L61.5065 87.2485C61.8961 85.9183 62.2762 84.9462 62.5619 84.3446C62.7004 84.0531 62.7717 83.9441 62.7515 83.9757C62.7427 83.9896 62.5455 84.3024 62.1088 84.7585L40.4416 64.0093ZM32.7163 78.8151C32.3315 80.1284 31.8092 81.8785 31.3764 83.3219C31.1614 84.039 30.9711 84.672 30.8345 85.1256C30.7662 85.3523 30.7115 85.534 30.6739 85.6586C30.6551 85.7209 30.6406 85.769 30.6309 85.8013C30.626 85.8174 30.6223 85.8296 30.6199 85.8377C30.6187 85.8417 30.6177 85.8447 30.6172 85.8466C30.6169 85.8476 30.6166 85.8483 30.6165 85.8488C30.6164 85.849 30.6164 85.8491 30.6164 85.8492C30.6164 85.8493 30.6164 85.8493 30.6164 85.8493C30.6164 85.8493 30.6164 85.8493 44.9761 90.185C59.3358 94.5207 59.3358 94.5207 59.3358 94.5206C59.3358 94.5206 59.3359 94.5205 59.3359 94.5204C59.3359 94.5202 59.336 94.52 59.3361 94.5196C59.3363 94.519 59.3366 94.5181 59.3369 94.5169C59.3376 94.5146 59.3387 94.5112 59.34 94.5068C59.3427 94.4979 59.3466 94.4849 59.3517 94.468C59.362 94.434 59.377 94.3842 59.3963 94.3201C59.435 94.1918 59.491 94.0062 59.5606 93.775C59.6997 93.313 59.8935 92.6684 60.1127 91.9376C60.5481 90.4852 61.0934 88.6587 61.5065 87.2485L32.7163 78.8151ZM44.9761 105.185H49.6737V75.185H44.9761V105.185ZM64.0087 94.6017L70.0943 74.8503L41.4243 66.0169L35.3387 85.7683L64.0087 94.6017Z" fill="#1E1E1E" mask="url(#path-15-inside-6_548_19)"/>
<path d="M6.73567 40.1551L7.21691 41.0359C7.19985 40.5142 7.25383 40.0725 7.37885 39.711C7.51071 39.345 7.65957 39.0504 7.82542 38.8271C7.99127 38.6038 8.14379 38.4425 8.28297 38.3429C8.42898 38.239 8.50883 38.1827 8.5225 38.1738C9.02849 37.8473 9.54454 37.6789 10.0707 37.6687C10.5968 37.6584 11.1263 37.7961 11.6593 38.0817C12.1879 38.3605 12.7155 38.7803 13.2421 39.3412C13.7712 39.8908 14.2939 40.5656 14.8102 41.3656C15.1897 41.9537 15.5677 42.562 15.9444 43.1907C16.3235 43.808 16.682 44.4387 17.0201 45.0825C17.3605 45.7151 17.6716 46.3473 17.9534 46.979C18.2421 47.6063 18.4823 48.2262 18.6741 48.8385L16.0989 50.0936C15.7311 49.1784 15.3643 48.34 14.9987 47.5784C14.6331 46.8167 14.3009 46.1594 14.0021 45.6064C13.6528 44.9601 13.3161 44.3784 12.992 43.8611C12.5728 43.2116 12.1882 42.6607 11.8383 42.2085C11.4839 41.7495 11.1506 41.3981 10.8382 41.1541C10.5282 40.8989 10.2302 40.7523 9.94404 40.7142C9.65793 40.6761 9.37128 40.7497 9.08409 40.935C8.91912 41.0996 8.81592 41.3599 8.7745 41.7159C8.73836 42.0201 8.7692 42.4506 8.867 43.0074C8.96039 43.5573 9.19245 44.2696 9.56317 45.1442C9.88686 45.6907 10.2152 46.2295 10.5481 46.7604C10.8835 47.2801 11.2409 47.8339 11.6205 48.422C11.9426 48.9211 12.289 49.4579 12.6597 50.0322C13.0304 50.6066 13.4564 51.2518 13.9378 51.9678L11.5765 53.419C11.1469 52.7084 10.684 51.9611 10.1878 51.1771C9.69398 50.382 9.13818 49.5058 8.52038 48.5485C7.907 47.598 7.23603 46.5734 6.50747 45.4745C5.77892 44.3756 4.95725 43.1625 4.04249 41.8351L6.73567 40.1551Z" fill="white"/>
<path d="M25.7414 45.4413C25.602 45.2254 25.4649 45.0042 25.33 44.7778C25.1952 44.5513 25.0648 44.3143 24.939 44.0666C24.798 44.7197 24.5405 45.2793 24.1665 45.7453C23.7955 46.2189 23.323 46.571 22.7491 46.8017C22.4547 46.92 22.1329 46.9923 21.7838 47.0186C21.4378 47.0524 21.0894 47.0038 20.7386 46.8729C20.3954 46.739 20.0603 46.5053 19.7333 46.1718C19.4109 45.8278 19.1252 45.3462 18.8764 44.727C18.67 44.2135 18.5665 43.7377 18.5658 43.2994C18.5621 42.8536 18.6234 42.4387 18.7497 42.0546C18.876 41.6706 19.0477 41.3122 19.2648 40.9794C19.4818 40.6465 19.7042 40.3379 19.932 40.0534C20.1673 39.7659 20.392 39.4958 20.6062 39.2431C20.8204 38.9904 20.9855 38.7574 21.1015 38.5441C21.3275 38.1463 21.5022 37.7516 21.6255 37.36C21.7533 36.9578 21.8274 36.564 21.848 36.1787C21.6084 35.6698 21.3803 35.2659 21.1637 34.967C20.9517 34.6576 20.742 34.4305 20.5347 34.2857C20.3244 34.1334 20.1097 34.0575 19.8906 34.0578C19.676 34.0476 19.4516 34.0895 19.2175 34.1836C18.8702 34.3232 18.6061 34.517 18.4251 34.7652C18.2517 35.0103 18.132 35.2689 18.0659 35.541C18.3033 35.5859 18.4983 35.6566 18.6511 35.7531C18.8115 35.8466 18.9438 35.9468 19.0483 36.054C19.1664 36.1732 19.2595 36.3067 19.3277 36.4547C19.5341 36.9682 19.5446 37.42 19.3594 37.8102C19.1817 38.1974 18.8663 38.482 18.4133 38.6641C18.1792 38.7581 17.9427 38.7918 17.7039 38.7649C17.4621 38.7306 17.2262 38.6456 16.9963 38.5099C16.7739 38.3713 16.5666 38.1827 16.3743 37.9442C16.1819 37.7058 16.0221 37.428 15.8946 37.1108C15.7672 36.7937 15.7039 36.4288 15.7047 36.0163C15.7056 35.6037 15.8039 35.1827 15.9996 34.7532C16.1924 34.3162 16.4985 33.8993 16.9179 33.5027C17.3344 33.0986 17.8975 32.7539 18.6073 32.4686C19.3171 32.1834 19.9811 32.0788 20.5993 32.1548C21.2145 32.2234 21.7769 32.4227 22.2867 32.7528C22.7935 33.0754 23.2385 33.5061 23.6217 34.045C24.0125 34.5809 24.3353 35.1659 24.5902 35.8002C24.7814 36.2759 24.9855 36.7947 25.2025 37.3565C25.4195 37.9183 25.6463 38.4937 25.883 39.0827C26.0803 39.5735 26.2813 40.0628 26.4861 40.5506C26.6909 41.0384 26.8972 41.5081 27.1049 41.9596C27.3096 42.4035 27.5128 42.8218 27.7144 43.2144C27.913 43.5994 28.1062 43.9384 28.2941 44.2312L25.7414 45.4413ZM22.9041 38.8722C22.7673 39.2955 22.5934 39.6812 22.3823 40.0291C22.2195 40.2787 22.0454 40.5548 21.8601 40.8573C21.6822 41.1568 21.524 41.4616 21.3855 41.7716C21.2545 42.0786 21.1621 42.3832 21.1082 42.6855C21.0588 42.9773 21.0841 43.2477 21.1843 43.4969C21.3208 43.8367 21.5207 44.0941 21.7839 44.2689C22.0472 44.4438 22.3298 44.4706 22.6319 44.3492C22.9112 44.2369 23.1301 44.0612 23.2884 43.8222C23.4467 43.5832 23.5649 43.3208 23.643 43.0351C23.7256 42.7387 23.772 42.4395 23.7821 42.1372C23.7997 41.8319 23.8 41.5599 23.783 41.3212L22.9041 38.8722Z" fill="white"/>
<path d="M30.0984 25.7434C30.1612 25.9962 30.1735 26.2488 30.1356 26.5014C30.0957 26.7461 30.0134 26.9719 29.8887 27.179C29.7639 27.386 29.5998 27.5693 29.3962 27.7288C29.1986 27.8784 28.9734 27.9846 28.7206 28.0473C28.4679 28.11 28.2152 28.1224 27.9626 28.0845C27.716 28.0367 27.4892 27.9504 27.2821 27.8257C27.0751 27.701 26.8928 27.5408 26.7353 27.3451C26.5837 27.1396 26.4765 26.9104 26.4138 26.6577C26.3511 26.4049 26.3397 26.1562 26.3796 25.9115C26.4254 25.657 26.5107 25.4262 26.6354 25.2192C26.7601 25.0122 26.9213 24.8338 27.1189 24.6842C27.3225 24.5246 27.5507 24.4135 27.8034 24.3508C28.0562 24.2881 28.3059 24.2806 28.5525 24.3285C28.8051 24.3664 29.0349 24.4477 29.2419 24.5724C29.449 24.6972 29.6283 24.8623 29.7799 25.0678C29.9295 25.2655 30.0357 25.4907 30.0984 25.7434ZM30.9892 29.3333C31.0808 29.973 31.1931 30.662 31.326 31.4004C31.4648 32.129 31.6125 32.8763 31.7691 33.6424C31.9335 34.4066 32.1029 35.1737 32.2772 35.9437C32.4515 36.7138 32.6209 37.4474 32.7855 38.1444C32.95 38.8414 33.1038 39.495 33.2468 40.1052C33.3958 40.7054 33.5241 41.2228 33.6319 41.6572L33.9641 42.996L31.2982 43.7581C31.1787 43.2092 31.0553 42.678 30.928 42.1646C30.8006 41.6512 30.6732 41.1378 30.5458 40.6244C30.3243 39.7319 30.1009 38.865 29.8754 38.0238C29.6479 37.1747 29.4086 36.3285 29.1575 35.4852C28.9142 34.64 28.6562 33.7859 28.3834 32.9229C28.1105 32.0599 27.818 31.1682 27.5058 30.2479L30.9892 29.3333Z" fill="white"/>
<path d="M41.4117 23.2206C41.4039 24.2146 41.3972 25.1352 41.3915 25.9826C41.3858 26.8299 41.3822 27.6282 41.3806 28.3776C41.3872 29.1267 41.3963 29.839 41.4079 30.5146C41.4196 31.1901 41.4309 31.8575 41.4419 32.5168C41.461 33.1758 41.4803 33.8388 41.4997 34.5059C41.5273 35.1726 41.5562 35.8719 41.5865 36.6037C41.6201 37.4168 41.6561 38.2868 41.6944 39.2138C41.7328 40.1407 41.7834 41.1689 41.8465 42.2985L39.0753 42.352C39.0733 41.1222 39.0559 39.9134 39.023 38.7256C38.9899 37.5297 38.9474 36.3056 38.8956 35.0534C38.861 34.2159 38.8214 33.3583 38.777 32.4804C38.7322 31.5945 38.6818 30.6721 38.6259 29.7133C38.5696 28.7464 38.5072 27.7309 38.4388 26.6667C38.3784 25.6022 38.3114 24.4728 38.2375 23.2786L41.4117 23.2206Z" fill="white"/>
<path d="M54.9028 32.3776C54.8492 32.7481 54.7354 33.0523 54.5612 33.2903C54.387 33.5282 54.1916 33.7138 53.975 33.8469C53.7584 33.9801 53.5402 34.0677 53.3203 34.11C53.1004 34.1522 52.918 34.1628 52.773 34.1418C52.628 34.1209 52.4583 34.0717 52.264 33.9943C52.0708 33.9088 51.8914 33.7842 51.726 33.6205C51.5686 33.4579 51.4417 33.2546 51.3455 33.0104C51.2504 32.7582 51.2284 32.4549 51.2797 32.1006C51.3157 31.9084 51.3793 31.7244 51.4705 31.5484C51.5501 31.3955 51.6586 31.2426 51.7958 31.0898C51.9422 30.93 52.1341 30.7974 52.3713 30.692C52.2566 30.4616 52.1349 30.2795 52.0063 30.1458C51.8776 30.0121 51.7609 29.9089 51.6563 29.8362C51.5287 29.752 51.4097 29.6937 51.2993 29.6613C51.0496 29.6252 50.8165 29.6449 50.6 29.7205C50.3847 29.7881 50.1923 29.8959 50.0229 30.0441C49.8627 30.1854 49.7266 30.359 49.6146 30.5648C49.5107 30.7718 49.4418 30.9921 49.408 31.2256C49.365 31.5236 49.3461 31.7964 49.3514 32.0438C49.3568 32.2913 49.4139 32.5503 49.5228 32.821C49.6317 33.0916 49.8101 33.3929 50.0582 33.7247C50.3062 34.0566 50.652 34.4519 51.0954 34.9107C51.5389 35.3695 51.9191 35.8109 52.2361 36.235C52.5542 36.651 52.8084 37.0537 52.9988 37.443C53.1892 37.8323 53.3186 38.2169 53.387 38.5968C53.4566 38.9687 53.4635 39.3479 53.4076 39.7345C53.3703 39.9922 53.3014 40.2701 53.2008 40.568C53.1094 40.859 52.9765 41.1523 52.8022 41.4478C52.6372 41.7364 52.429 42.0105 52.1777 42.2702C51.9356 42.523 51.6452 42.74 51.3065 42.9213C50.9759 43.1037 50.5959 43.2297 50.1665 43.2992C49.744 43.3779 49.271 43.3794 48.7474 43.3037C47.9581 43.1896 47.3025 42.9756 46.7805 42.6617C46.2585 42.3478 45.8402 41.9995 45.5254 41.6169C45.22 41.2274 45.0094 40.8351 44.8938 40.4402C44.7863 40.0464 44.7529 39.7086 44.7937 39.4267C44.8368 39.1287 44.9132 38.856 45.0229 38.6088C45.1327 38.3615 45.278 38.1523 45.459 37.9811C45.648 37.8111 45.8709 37.6912 46.1277 37.6214C46.3937 37.5448 46.6998 37.5315 47.0462 37.5815C47.3361 37.6234 47.5915 37.7056 47.8123 37.8279C48.0411 37.9515 48.2273 38.114 48.3708 38.3157C48.5235 38.5104 48.6302 38.7397 48.6907 39.0033C48.7513 39.267 48.7589 39.5559 48.7135 39.87C48.6856 40.0057 48.637 40.1426 48.5678 40.2806C48.51 40.3956 48.4223 40.5186 48.3047 40.6496C48.1871 40.7806 48.0344 40.8983 47.8467 41.0027C47.9466 41.1076 48.0455 41.1918 48.1432 41.2553C48.2501 41.3118 48.3467 41.3546 48.433 41.3835C48.5261 41.4216 48.6211 41.4477 48.7177 41.4617C48.8224 41.4768 48.9473 41.4661 49.0924 41.4295C49.2467 41.386 49.3976 41.3091 49.5451 41.1989C49.6926 41.0887 49.824 40.9473 49.9394 40.7749C50.0547 40.6024 50.1311 40.3874 50.1683 40.1296C50.2056 39.8719 50.2152 39.6348 50.1971 39.4184C50.1883 39.1951 50.1277 38.9602 50.0153 38.7138C49.9122 38.4604 49.7475 38.1776 49.5213 37.8653C49.2951 37.553 48.9924 37.1722 48.6134 36.7227C48.2344 36.2732 47.9019 35.8428 47.616 35.4315C47.3313 35.0121 47.1007 34.5881 46.9241 34.1597C46.7557 33.7325 46.6425 33.2926 46.5845 32.8402C46.5266 32.3878 46.5354 31.8999 46.6111 31.3763C46.6856 30.8609 46.8585 30.376 47.1297 29.9219C47.409 29.4689 47.7647 29.0845 48.1968 28.7688C48.6301 28.4449 49.1322 28.2133 49.7033 28.0738C50.2756 27.9263 50.8959 27.9009 51.5644 27.9975C52.241 28.0953 52.8098 28.2844 53.2708 28.5649C53.7319 28.8453 54.0938 29.1854 54.3567 29.5852C54.6208 29.977 54.7961 30.4135 54.8828 30.8947C54.9695 31.3759 54.9761 31.8702 54.9028 32.3776Z" fill="white"/>
</g>
<defs>
<clipPath id="clip0_548_19">
<rect width="150" height="150" fill="white"/>
</clipPath>
</defs>
</svg>
