<svg width="150" height="150" viewBox="0 0 150 150" fill="none" xmlns="http://www.w3.org/2000/svg">
<g clip-path="url(#clip0_548_18)">
<path d="M78.1661 40C55.0969 40 36.4948 58.0514 35.3321 80.7534L23.5834 96.2348C22.1148 98.1318 23.5834 101.191 26.1534 101.191H35.3321V119.549C35.3321 126.341 40.7782 131.787 47.5704 131.787H53.6895V150.144H96.5235V121.446C111.026 114.592 121 99.9675 121 82.8339C121 59.2141 101.908 40 78.1661 40ZM102.643 75.6746C102.643 85.098 94.3206 92.6246 81.7152 104.067L78.1661 107.31L74.617 104.067C62.0116 92.6246 53.6895 85.098 53.6895 75.6746C53.6895 68.3316 59.5639 62.2737 66.9069 62.2125H67.1516C71.3738 62.2125 75.4125 64.1094 78.1661 67.2913C80.9197 64.1094 84.9583 62.2125 89.1805 62.2125C96.5235 62.1513 102.643 68.0868 102.643 75.4298V75.6746Z" fill="white"/>
<path d="M12.7722 72.2953C12.6142 73.3058 12.2413 74.1288 11.6535 74.7644C11.0657 75.4 10.3254 75.8316 9.43273 76.0592C8.54002 76.2869 7.55962 76.2946 6.49151 76.0822C5.40483 75.8661 4.47731 75.4743 3.70895 74.9067C2.93668 74.3335 2.37272 73.6377 2.01706 72.8193C1.65748 71.9954 1.55377 71.0969 1.70591 70.1238C1.82441 69.366 2.07052 68.7107 2.44425 68.158C2.81797 67.6053 3.28596 67.1846 3.84822 66.8961C4.41048 66.6075 5.03328 66.4829 5.71664 66.5224L5.4577 68.1784C4.95034 68.2077 4.47456 68.4025 4.03038 68.7628C3.58228 69.1174 3.30118 69.6597 3.18707 70.3894C3.08613 71.035 3.16481 71.6343 3.4231 72.1873C3.67748 72.7347 4.08531 73.204 4.64659 73.5954C5.20397 73.9812 5.88668 74.2544 6.69472 74.4151C7.52134 74.5794 8.26163 74.5916 8.91559 74.4515C9.57029 74.3067 10.1048 74.0272 10.5192 73.6127C10.9342 73.1936 11.193 72.6566 11.2954 72.0017C11.3627 71.5713 11.3494 71.1659 11.2557 70.7855C11.162 70.4051 10.9948 70.0656 10.7542 69.7669C10.5136 69.4683 10.2063 69.2287 9.83229 69.0482L10.0912 67.3922C10.7082 67.6113 11.2408 67.956 11.6892 68.4262C12.1337 68.8909 12.4574 69.4544 12.6603 70.117C12.8592 70.774 12.8965 71.5001 12.7722 72.2953Z" fill="white"/>
<path d="M19.5448 50.0074C19.2298 50.6227 18.8347 51.1101 18.3597 51.4695C17.8807 51.8264 17.3574 52.0167 16.7897 52.0405C16.2181 52.0616 15.6347 51.8785 15.0395 51.491C14.5157 51.1499 14.1472 50.7639 13.9341 50.3329C13.7169 49.8994 13.609 49.4385 13.6102 48.9504C13.6114 48.4623 13.6797 47.9673 13.815 47.4654C13.9485 46.9566 14.1029 46.4587 14.2782 45.9716C14.5089 45.335 14.7002 44.8218 14.8523 44.4319C15.0025 44.0351 15.0751 43.7228 15.0701 43.4948C15.0673 43.2626 14.9529 43.0728 14.7267 42.9256L14.6791 42.8946C14.0918 42.5122 13.5481 42.3858 13.048 42.5154C12.55 42.6407 12.1251 43.0468 11.7734 43.7338C11.4087 44.4461 11.2696 45.1001 11.3561 45.6959C11.4426 46.2917 11.6104 46.7802 11.8596 47.1616L10.6584 48.2677C10.2324 47.6531 9.97247 47.0344 9.87875 46.4114C9.78321 45.7817 9.80233 45.176 9.9361 44.5943C10.0681 44.0059 10.2592 43.4673 10.5095 42.9784C10.6692 42.6665 10.8883 42.3315 11.1669 41.9734C11.4436 41.6085 11.7862 41.3061 12.1947 41.0663C12.6053 40.8223 13.0916 40.7147 13.6536 40.7434C14.2156 40.7721 14.8596 41.0228 15.5858 41.4956L21.6091 45.4172L20.8453 46.9092L19.6073 46.1032L19.5684 46.179C19.7151 46.4094 19.841 46.7162 19.9464 47.0994C20.0517 47.4827 20.0834 47.922 20.0414 48.4173C19.9995 48.9126 19.8339 49.4426 19.5448 50.0074ZM18.3995 48.9582C18.7016 48.3682 18.8471 47.7998 18.836 47.2531C18.8271 46.7022 18.7029 46.2111 18.4634 45.7799C18.2261 45.3444 17.9169 45.0026 17.536 44.7546L16.2504 43.9176C16.2894 44.0273 16.2837 44.209 16.2332 44.4627C16.1808 44.7096 16.1053 44.9864 16.0065 45.2929C15.906 45.5927 15.8046 45.8836 15.7026 46.1656C15.5988 46.4408 15.5158 46.6649 15.4536 46.8379C15.3027 47.2567 15.1945 47.6695 15.129 48.0764C15.0617 48.4766 15.0804 48.8483 15.1849 49.1918C15.2877 49.5284 15.5176 49.813 15.8747 50.0455C16.3628 50.3633 16.83 50.4118 17.2763 50.191C17.7209 49.9634 18.0953 49.5525 18.3995 48.9582Z" fill="white"/>
<path d="M28.4437 26.8779L32.3612 32.1428L31.1438 33.2948L24.6315 24.5428L25.8077 23.4298L26.8252 24.7973L26.9284 24.6997C26.7834 24.0795 26.7997 23.4556 26.9774 22.8279C27.1522 22.1964 27.5388 21.5975 28.1372 21.0313C28.6737 20.5236 29.2336 20.201 29.8169 20.0633C30.3974 19.9219 30.9817 19.9904 31.5698 20.2689C32.1552 20.5436 32.7249 21.0532 33.2789 21.7977L37.4169 27.3589L36.1994 28.511L32.1292 23.0409C31.6176 22.3534 31.0574 21.9707 30.4487 21.893C29.8371 21.8114 29.2493 22.0375 28.6852 22.5712C28.2966 22.9389 28.0185 23.3607 27.8509 23.8365C27.6867 24.309 27.6498 24.8068 27.7401 25.3298C27.8304 25.8528 28.0649 26.3689 28.4437 26.8779Z" fill="white"/>
<path d="M53.3825 18.7474C52.5415 19.0926 51.7286 19.1788 50.9436 19.006C50.1572 18.8287 49.4527 18.4136 48.8303 17.7608C48.2064 17.1034 47.717 16.225 47.3622 15.1256C47.0102 14.0351 46.8866 13.0143 46.9913 12.063C47.096 11.1117 47.4019 10.2845 47.9091 9.58132C48.4163 8.87816 49.0948 8.35219 49.9446 8.00341C50.6016 7.73373 51.157 7.63334 51.6108 7.70222C52.0676 7.7648 52.4425 7.89668 52.7356 8.09786C53.0316 8.29273 53.2657 8.45691 53.4378 8.59041L53.5692 8.53647L51.9199 3.42671L53.4706 2.79027L57.9383 16.6326L56.4402 17.2474L55.9254 15.6523L55.7414 15.7278C55.6886 15.9638 55.6036 16.2692 55.4865 16.6439C55.3678 17.014 55.15 17.3918 54.8328 17.7771C54.5142 18.1579 54.0308 18.4813 53.3825 18.7474ZM53.1303 17.2282C53.7523 16.9729 54.2241 16.5904 54.5458 16.0808C54.866 15.5667 55.0418 14.9664 55.0732 14.2799C55.1032 13.5889 54.9916 12.8514 54.7386 12.0674C54.4884 11.2923 54.16 10.6591 53.7534 10.1678C53.3453 9.67188 52.8743 9.34982 52.3403 9.20158C51.8049 9.04883 51.2218 9.10191 50.591 9.3608C49.934 9.63047 49.4425 10.0287 49.1164 10.5554C48.7933 11.0759 48.6175 11.6762 48.589 12.3563C48.5634 13.0302 48.6685 13.7321 48.9041 14.4621C49.1426 15.2011 49.4688 15.8275 49.8827 16.3414C50.2995 16.849 50.7822 17.1918 51.3307 17.3698C51.8822 17.5415 52.482 17.4943 53.1303 17.2282Z" fill="white"/>
<path d="M75.2876 14.2273C74.2365 14.2273 73.3298 13.9953 72.5675 13.5312C71.8099 13.0625 71.2251 12.4091 70.8132 11.571C70.406 10.7282 70.2024 9.74811 70.2024 8.63068C70.2024 7.51326 70.406 6.52841 70.8132 5.67614C71.2251 4.81913 71.7981 4.15152 72.532 3.6733C73.2706 3.19034 74.1323 2.94886 75.1172 2.94886C75.6854 2.94886 76.2464 3.04356 76.8004 3.23295C77.3544 3.42235 77.8587 3.73011 78.3132 4.15625C78.7678 4.57765 79.13 5.13636 79.3999 5.83239C79.6697 6.52841 79.8047 7.38542 79.8047 8.40341V9.11364L71.3956 9.11364V7.66477L78.1001 7.66477C78.1001 7.04924 77.977 6.5 77.7308 6.01705C77.4893 5.53409 77.1437 5.15294 76.6939 4.87358C76.2488 4.59422 75.7232 4.45455 75.1172 4.45455C74.4496 4.45455 73.8719 4.62026 73.3842 4.9517C72.9013 5.27841 72.5296 5.70455 72.2692 6.23011C72.0088 6.75568 71.8786 7.31913 71.8786 7.92045V8.88636C71.8786 9.71023 72.0206 10.4086 72.3047 10.9815C72.5935 11.5497 72.9936 11.983 73.505 12.2812C74.0163 12.5748 74.6106 12.7216 75.2876 12.7216C75.728 12.7216 76.1257 12.66 76.4808 12.5369C76.8407 12.4091 77.1508 12.2197 77.4112 11.9688C77.6716 11.7131 77.8729 11.3958 78.0149 11.017L79.6342 11.4716C79.4638 12.0208 79.1773 12.5038 78.7749 12.9205C78.3724 13.3324 77.8752 13.6544 77.2834 13.8864C76.6915 14.1136 76.0263 14.2273 75.2876 14.2273Z" fill="white"/>
<path d="M103.157 12.0621L101.633 11.896C101.622 11.6212 101.568 11.3361 101.47 11.0407C101.378 10.7426 101.211 10.4598 100.97 10.1925C100.729 9.92512 100.383 9.69885 99.9316 9.51367C99.314 9.26018 98.752 9.19538 98.2458 9.31927C97.7453 9.44045 97.4231 9.72408 97.2791 10.1702C97.1511 10.5667 97.1902 10.9374 97.3964 11.2823C97.6026 11.6271 97.9788 11.9984 98.525 12.3961L99.9009 13.3895C100.731 13.9851 101.292 14.6058 101.584 15.2515C101.878 15.8927 101.908 16.576 101.674 17.3015C101.482 17.8963 101.144 18.3597 100.66 18.6916C100.18 19.0254 99.601 19.2061 98.9224 19.2338C98.2438 19.2614 97.5125 19.1144 96.7284 18.7925C95.6991 18.37 94.9213 17.7906 94.3951 17.0541C93.8688 16.3176 93.6585 15.4709 93.7639 14.5141L95.3578 14.7396C95.3177 15.3559 95.4474 15.8837 95.7471 16.3231C96.0512 16.7643 96.5207 17.1152 97.1559 17.3759C97.8786 17.6725 98.5033 17.7503 99.03 17.6093C99.5625 17.4656 99.9008 17.1707 100.045 16.7246C100.161 16.3641 100.136 16.0119 99.9692 15.6679C99.8039 15.3194 99.4868 14.98 99.0179 14.6498L97.4668 13.5539C96.6153 12.9492 96.0491 12.3214 95.7681 11.6702C95.493 11.0164 95.4711 10.3313 95.7023 9.61484C95.8914 9.02907 96.2185 8.5765 96.6837 8.25715C97.1533 7.9396 97.7077 7.76656 98.3469 7.73805C98.9904 7.71133 99.667 7.8436 100.377 8.13485C101.375 8.54476 102.087 9.09187 102.511 9.77619C102.939 10.4623 103.154 11.2243 103.157 12.0621Z" fill="white"/>
<path d="M115.378 30.0028L121.89 21.2508L123.107 22.4028L116.595 31.1549L115.378 30.0028ZM123.594 20.3779C123.357 20.1534 123.219 19.8705 123.18 19.5292C123.144 19.1912 123.22 18.8969 123.406 18.6462C123.593 18.3954 123.837 18.2606 124.138 18.2415C124.443 18.2257 124.714 18.33 124.951 18.5546C125.188 18.7791 125.325 19.0604 125.361 19.3984C125.4 19.7396 125.326 20.0356 125.139 20.2863C124.953 20.537 124.707 20.6703 124.402 20.6861C124.101 20.7052 123.832 20.6025 123.594 20.3779Z" fill="white"/>
<path d="M126.747 51.6302C126.378 50.9095 126.148 50.2331 126.057 49.601C125.962 48.9715 125.967 48.3923 126.072 47.8633C126.175 47.341 126.333 46.8754 126.547 46.4665L127.941 47.1435C127.844 47.3868 127.741 47.6815 127.632 48.0276C127.52 48.3762 127.476 48.7812 127.5 49.2428C127.523 49.7112 127.685 50.2383 127.985 50.8241C128.386 51.608 128.896 52.1387 129.514 52.4162C130.132 52.6936 130.822 52.5844 131.584 52.0883L133.441 50.8793L133.376 50.7529C133.154 50.7518 132.867 50.7302 132.518 50.6881C132.174 50.6476 131.811 50.5018 131.429 50.2507C131.053 50.0012 130.702 49.5604 130.379 48.9282C129.977 48.1443 129.792 47.3268 129.822 46.4757C129.854 45.6288 130.11 44.8071 130.591 44.0106C131.074 43.2184 131.792 42.5122 132.744 41.8922C133.681 41.2825 134.586 40.9266 135.459 40.8243C136.337 40.7194 137.126 40.8548 137.826 41.2306C138.53 41.6038 139.092 42.1992 139.51 43.0168C139.834 43.649 139.991 44.2151 139.983 44.7151C139.98 45.2168 139.905 45.6481 139.756 46.0089C139.614 46.3714 139.491 46.6591 139.389 46.872L139.467 47.0237L140.919 46.0782L141.657 47.5196L132.253 53.6423C131.467 54.1538 130.731 54.3801 130.045 54.3211C129.357 54.269 128.735 53.9996 128.179 53.513C127.621 53.0333 127.144 52.4056 126.747 51.6302ZM131.744 48.309C132.051 48.9074 132.439 49.3292 132.908 49.5743C133.377 49.8194 133.909 49.8919 134.503 49.7916C135.097 49.6914 135.732 49.4217 136.406 48.9825C137.065 48.5537 137.592 48.0698 137.988 47.531C138.384 46.9922 138.619 46.4233 138.694 45.8242C138.768 45.2252 138.65 44.6222 138.339 44.0153C138.015 43.3831 137.595 42.9545 137.077 42.7294C136.562 42.5085 135.997 42.458 135.381 42.5779C134.767 42.7021 134.151 42.9657 133.532 43.3687C132.897 43.782 132.39 44.253 132.009 44.7814C131.635 45.3116 131.416 45.8757 131.352 46.4738C131.294 47.0735 131.425 47.6852 131.744 48.309Z" fill="white"/>
<path d="M143.538 68.7389L137.102 70.0187L136.843 68.3627L147.542 66.2352L147.793 67.835L146.121 68.1675L146.143 68.3078C146.726 68.4524 147.222 68.7492 147.632 69.1982C148.047 69.6463 148.318 70.2773 148.445 71.0913C148.559 71.8211 148.511 72.4892 148.299 73.0956C148.092 73.7011 147.713 74.2154 147.161 74.6386C146.614 75.0609 145.886 75.3625 144.976 75.5435L138.177 76.8954L137.918 75.2394L144.605 73.9097C145.446 73.7425 146.066 73.3925 146.467 72.8595C146.871 72.3255 147.014 71.675 146.894 70.9078C146.811 70.3792 146.624 69.9293 146.331 69.5582C146.039 69.1918 145.656 68.9327 145.182 68.7809C144.709 68.6292 144.161 68.6151 143.538 68.7389Z" fill="white"/>
</g>
<defs>
<clipPath id="clip0_548_18">
<rect width="150" height="150" fill="white"/>
</clipPath>
</defs>
</svg>
