<svg width="150" height="150" viewBox="0 0 150 150" fill="none" xmlns="http://www.w3.org/2000/svg">
<path d="M121.94 90.315C123.87 90.9449 124.938 93.0273 124.171 94.9084C120.01 105.126 112.659 113.772 103.168 119.522C92.6245 125.91 80.139 128.304 67.9807 126.267C55.8224 124.23 44.7985 117.899 36.9126 108.423C29.0267 98.948 24.8022 86.9577 25.0071 74.6317C25.212 62.3057 29.8326 50.4624 38.0291 41.2543C46.2256 32.0462 57.4539 26.0846 69.6731 24.453C81.8924 22.8215 94.2914 25.6283 104.616 32.3633C113.912 38.4266 120.971 47.3111 124.791 57.662C125.494 59.5676 124.358 61.6134 122.407 62.1788L105.241 67.1541C103.289 67.7195 101.273 66.5813 100.441 64.7285C98.3908 60.1642 95.0669 56.2554 90.8335 53.494C85.5675 50.059 79.244 48.6275 73.0121 49.4596C66.7802 50.2917 61.0537 53.3321 56.8735 58.0284C52.6932 62.7245 50.3367 68.7647 50.2322 75.051C50.1277 81.3374 52.2822 87.4525 56.304 92.285C60.3259 97.1175 65.9482 100.346 72.1489 101.386C78.3497 102.424 84.7174 101.204 90.0945 97.9455C94.4174 95.3264 97.8694 91.5302 100.07 87.0366C100.964 85.2124 103.017 84.1419 104.947 84.7719L121.94 90.315Z" fill="white"/>
<path d="M76.8543 87.9888C83.5563 87.9888 88.9893 82.5558 88.9893 75.8538C88.9893 69.1518 83.5563 63.7188 76.8543 63.7188C70.1523 63.7188 64.7192 69.1518 64.7192 75.8538C64.7192 82.5558 70.1523 87.9888 76.8543 87.9888Z" fill="white"/>
</svg>
