<svg width="472" height="293" viewBox="0 0 472 293" fill="none" xmlns="http://www.w3.org/2000/svg">
<path d="M67.4992 188.405C66.7382 190.304 65.6449 191.735 64.2192 192.7C62.7936 193.664 61.164 194.159 59.3306 194.183C57.4972 194.208 55.5928 193.762 53.6173 192.845C51.6074 191.911 49.9852 190.71 48.7507 189.24C47.5112 187.758 46.7307 186.134 46.4092 184.369C46.0827 182.591 46.2858 180.788 47.0186 178.959C47.5893 177.535 48.3613 176.372 49.3347 175.468C50.308 174.565 51.4047 173.964 52.6247 173.665C53.8448 173.366 55.1084 173.416 56.4157 173.814L55.1686 176.926C54.1716 176.744 53.1615 176.901 52.1381 177.395C51.1097 177.877 50.3207 178.803 49.7711 180.175C49.2849 181.388 49.1679 182.595 49.4199 183.796C49.6669 184.985 50.2465 186.093 51.1587 187.121C52.0659 188.137 53.2668 188.991 54.7613 189.685C56.2902 190.395 57.7202 190.767 59.0512 190.801C60.3858 190.826 61.548 190.532 62.5379 189.918C63.5313 189.294 64.2746 188.368 64.7678 187.137C65.0919 186.328 65.2487 185.531 65.238 184.744C65.2274 183.957 65.056 183.215 64.7238 182.519C64.3917 181.823 63.9036 181.21 63.2596 180.682L64.5067 177.57C65.6044 178.288 66.4822 179.212 67.1401 180.341C67.793 181.457 68.167 182.71 68.2623 184.099C68.3524 185.475 68.0981 186.911 67.4992 188.405Z" fill="white"/>
<path d="M94.1644 141.711C93.3144 142.801 92.3496 143.616 91.2702 144.156C90.1838 144.689 89.0678 144.884 87.9223 144.74C86.7698 144.59 85.6664 144.039 84.6122 143.087C83.6845 142.249 83.0839 141.376 82.8104 140.467C82.5298 139.552 82.4777 138.62 82.6539 137.672C82.8302 136.724 83.1432 135.785 83.5929 134.855C84.0414 133.911 84.5279 132.995 85.0526 132.107C85.7412 130.947 86.3072 130.014 86.7505 129.307C87.1926 128.587 87.4493 128.004 87.5205 127.559C87.5976 127.107 87.4358 126.7 87.0352 126.338L86.9509 126.262C85.9108 125.323 84.8668 124.895 83.8188 124.98C82.7768 125.057 81.7812 125.704 80.8321 126.921C79.8481 128.183 79.3367 129.408 79.2978 130.594C79.2589 131.781 79.4211 132.787 79.7843 133.611L76.9846 135.359C76.3501 134.022 76.0498 132.733 76.0839 131.491C76.1168 130.235 76.3707 129.065 76.8457 127.979C77.3195 126.88 77.8941 125.897 78.5695 125.031C79.0004 124.478 79.5586 123.9 80.244 123.298C80.9283 122.681 81.7222 122.208 82.6257 121.879C83.535 121.542 84.5474 121.495 85.6628 121.739C86.7782 121.983 87.979 122.685 89.2651 123.847L99.9335 133.481L97.8723 136.125L95.6796 134.145L95.5748 134.279C95.7865 134.776 95.9295 135.414 96.0041 136.194C96.0786 136.974 95.9857 137.838 95.7253 138.787C95.4649 139.735 94.9447 140.71 94.1644 141.711ZM92.244 139.289C93.0591 138.243 93.5529 137.188 93.7253 136.122C93.9036 135.048 93.8296 134.052 93.5035 133.134C93.1832 132.209 92.6857 131.441 92.011 130.832L89.734 128.775C89.7731 129.002 89.697 129.353 89.5054 129.829C89.3127 130.291 89.0628 130.804 88.7559 131.366C88.4477 131.915 88.1412 132.447 87.8364 132.961C87.5305 133.461 87.2844 133.868 87.0983 134.184C86.647 134.947 86.2833 135.713 86.0072 136.482C85.73 137.237 85.635 137.966 85.7221 138.668C85.8081 139.356 86.1673 139.986 86.7999 140.558C87.6643 141.338 88.5828 141.589 89.5554 141.309C90.5268 141.015 91.423 140.342 92.244 139.289Z" fill="white"/>
<path d="M123.337 94.897L130.181 106.096L127.445 108.033L116.068 89.4161L118.711 87.5449L120.489 90.4538L120.721 90.2897C120.56 89.0488 120.73 87.8406 121.23 86.6651C121.724 85.4814 122.644 84.4136 123.989 83.4616C125.195 82.6081 126.408 82.1198 127.628 81.9968C128.843 81.8658 130.021 82.1436 131.16 82.8303C132.295 83.509 133.346 84.6402 134.314 86.2239L141.543 98.0536L138.807 99.9904L131.696 88.3547C130.802 86.8922 129.743 86.01 128.517 85.7082C127.287 85.3983 126.038 85.692 124.771 86.5893C123.897 87.2075 123.238 87.9581 122.792 88.841C122.354 89.7184 122.169 90.6764 122.239 91.715C122.309 92.7535 122.675 93.8142 123.337 94.897Z" fill="white"/>
<path d="M182.854 79.1805C181.123 79.7382 179.472 79.7879 177.901 79.3299C176.328 78.8627 174.941 77.9377 173.741 76.5548C172.539 75.1628 171.628 73.3537 171.009 71.1276C170.394 68.9198 170.236 66.8834 170.532 65.0184C170.828 63.1534 171.52 61.5635 172.608 60.2487C173.696 58.9339 175.114 57.9948 176.863 57.4314C178.215 56.9958 179.346 56.8797 180.257 57.0832C181.175 57.2747 181.921 57.591 182.495 58.0321C183.076 58.4613 183.535 58.8206 183.871 59.11L184.141 59.0229L181.263 48.677L184.454 47.6489L192.25 75.6758L189.167 76.669L188.269 73.4393L187.891 73.5613C187.763 74.02 187.564 74.611 187.294 75.3343C187.021 76.0485 186.547 76.7629 185.871 77.4775C185.194 78.183 184.188 78.7507 182.854 79.1805ZM182.479 76.1399C183.759 75.7275 184.747 75.0415 185.443 74.0817C186.135 73.1129 186.544 71.9522 186.669 70.5998C186.791 69.2383 186.631 67.7638 186.19 66.1764C185.753 64.6072 185.146 63.3067 184.368 62.275C183.587 61.2342 182.664 60.5277 181.598 60.1554C180.53 59.774 179.346 59.7924 178.048 60.2106C176.696 60.6463 175.667 61.3605 174.962 62.3535C174.262 63.3343 173.853 64.495 173.735 65.8353C173.623 67.1637 173.773 68.5668 174.184 70.0448C174.6 71.541 175.204 72.8278 175.994 73.9051C176.792 74.9704 177.737 75.7196 178.83 76.1529C179.929 76.5741 181.145 76.5698 182.479 76.1399Z" fill="white"/>
<path d="M236.168 70.4545C234.066 70.4545 232.253 69.9905 230.728 69.0625C229.213 68.125 228.043 66.8182 227.219 65.142C226.405 63.4564 225.998 61.4962 225.998 59.2614C225.998 57.0265 226.405 55.0568 227.219 53.3523C228.043 51.6383 229.189 50.303 230.657 49.3466C232.134 48.3807 233.858 47.8977 235.827 47.8977C236.964 47.8977 238.086 48.0871 239.194 48.4659C240.302 48.8447 241.31 49.4602 242.219 50.3125C243.129 51.1553 243.853 52.2727 244.393 53.6648C244.933 55.0568 245.202 56.7708 245.202 58.8068V60.2273L228.384 60.2273V57.3295L241.793 57.3295C241.793 56.0985 241.547 55 241.055 54.0341C240.572 53.0682 239.88 52.3059 238.981 51.7472C238.091 51.1884 237.04 50.9091 235.827 50.9091C234.492 50.9091 233.337 51.2405 232.362 51.9034C231.396 52.5568 230.652 53.4091 230.131 54.4602C229.611 55.5114 229.35 56.6383 229.35 57.8409V59.7727C229.35 61.4205 229.634 62.8172 230.202 63.9631C230.78 65.0994 231.58 65.9659 232.603 66.5625C233.626 67.1496 234.814 67.4432 236.168 67.4432C237.049 67.4432 237.844 67.3201 238.555 67.0739C239.274 66.8182 239.895 66.4394 240.416 65.9375C240.936 65.4261 241.339 64.7917 241.623 64.0341L244.862 64.9432C244.521 66.0417 243.948 67.0076 243.143 67.8409C242.338 68.6648 241.344 69.3087 240.16 69.7727C238.976 70.2273 237.646 70.4545 236.168 70.4545Z" fill="white"/>
<path d="M300.601 64.8822L297.506 64.7797C297.46 64.2381 297.325 63.6826 297.1 63.1132C296.887 62.5375 296.525 62.0033 296.014 61.5106C295.503 61.0178 294.783 60.6219 293.855 60.3227C292.584 59.9132 291.442 59.8685 290.43 60.1885C289.429 60.5023 288.803 61.1108 288.552 62.014C288.329 62.8169 288.441 63.5439 288.888 64.1951C289.336 64.8462 290.129 65.5244 291.269 66.2295L294.138 67.9892C295.868 69.0436 297.057 70.1873 297.706 71.4203C298.358 72.6443 298.479 73.9906 298.071 75.4595C297.736 76.6638 297.094 77.63 296.145 78.3581C295.205 79.0891 294.05 79.5322 292.681 79.6876C291.312 79.8429 289.821 79.6606 288.208 79.1408C286.09 78.4583 284.466 77.4281 283.337 76.0503C282.208 74.6724 281.707 73.0299 281.835 71.1227L285.076 71.3321C285.05 72.5564 285.359 73.5805 286.004 74.4047C286.658 75.2317 287.638 75.8558 288.945 76.2769C290.433 76.7561 291.702 76.8172 292.754 76.4603C293.818 76.0971 294.475 75.464 294.726 74.5608C294.929 73.8309 294.847 73.1383 294.479 72.483C294.114 71.8186 293.443 71.1948 292.466 70.6116L289.233 68.6752C287.458 67.6063 286.258 66.4491 285.632 65.2036C285.018 63.9519 284.912 62.6008 285.316 61.1502C285.646 59.9641 286.267 59.0209 287.178 58.3206C288.099 57.6232 289.204 57.1989 290.493 57.0477C291.792 56.8994 293.171 57.0605 294.631 57.531C296.686 58.1932 298.173 59.1692 299.091 60.4591C300.018 61.7519 300.521 63.2262 300.601 64.8822Z" fill="white"/>
<path d="M335.324 102.077L346.701 83.4594L349.437 85.3962L338.06 104.013L335.324 102.077ZM349.988 81.3413C349.455 80.9638 349.111 80.4484 348.956 79.795C348.81 79.1472 348.899 78.5566 349.225 78.0233C349.551 77.49 350.02 77.1675 350.63 77.0558C351.249 76.9496 351.825 77.0852 352.358 77.4628C352.891 77.8403 353.231 78.353 353.378 79.0008C353.532 79.6542 353.447 80.2475 353.121 80.7808C352.795 81.3141 352.323 81.6339 351.704 81.7401C351.093 81.8518 350.521 81.7189 349.988 81.3413Z" fill="white"/>
<path d="M371.028 147.205C370.032 145.928 369.331 144.69 368.924 143.493C368.51 142.301 368.314 141.174 368.335 140.111C368.355 139.062 368.507 138.104 368.79 137.238L371.823 138.087C371.714 138.593 371.613 139.2 371.519 139.908C371.417 140.623 371.474 141.425 371.687 142.314C371.9 143.216 372.411 144.187 373.22 145.225C374.303 146.614 375.513 147.475 376.85 147.807C378.187 148.139 379.531 147.696 380.88 146.478L384.169 143.507L383.994 143.283C383.548 143.356 382.967 143.409 382.252 143.444C381.549 143.481 380.77 143.319 379.915 142.959C379.072 142.6 378.214 141.86 377.341 140.74C376.258 139.351 375.595 137.824 375.351 136.161C375.114 134.504 375.335 132.822 376.015 131.113C376.701 129.412 377.887 127.8 379.574 126.277C381.232 124.779 382.918 123.785 384.631 123.294C386.352 122.796 387.98 122.796 389.516 123.292C391.06 123.782 392.396 124.751 393.526 126.2C394.399 127.32 394.916 128.367 395.077 129.342C395.251 130.317 395.254 131.181 395.084 131.932C394.928 132.684 394.785 133.284 394.655 133.732L394.865 134L397.437 131.677L399.429 134.232L382.772 149.274C381.381 150.53 379.987 151.216 378.592 151.331C377.195 151.46 375.853 151.144 374.567 150.385C373.279 149.639 372.099 148.579 371.028 147.205ZM379.855 139.08C380.682 140.141 381.609 140.831 382.636 141.15C383.664 141.469 384.755 141.432 385.909 141.039C387.063 140.645 388.238 139.909 389.433 138.83C390.599 137.776 391.483 136.66 392.085 135.48C392.686 134.301 392.955 133.117 392.89 131.928C392.825 130.739 392.374 129.607 391.535 128.532C390.662 127.411 389.667 126.719 388.551 126.455C387.44 126.198 386.29 126.289 385.099 126.728C383.914 127.174 382.773 127.892 381.677 128.882C380.553 129.898 379.704 130.983 379.13 132.137C378.57 133.292 378.332 134.461 378.416 135.645C378.514 136.83 378.993 137.975 379.855 139.08Z" fill="white"/>
<path d="M414.728 179.51L402.823 185.037L401.576 181.925L421.366 172.738L422.571 175.744L419.479 177.179L419.584 177.443C420.779 177.451 421.876 177.797 422.873 178.481C423.879 179.161 424.688 180.265 425.301 181.795C425.851 183.166 426.057 184.493 425.92 185.777C425.791 187.057 425.287 188.239 424.408 189.325C423.537 190.407 422.26 191.339 420.577 192.12L408.002 197.958L406.755 194.846L419.124 189.104C420.678 188.382 421.724 187.407 422.26 186.178C422.805 184.945 422.789 183.608 422.211 182.166C421.813 181.173 421.246 180.383 420.512 179.796C419.781 179.218 418.922 178.892 417.935 178.819C416.948 178.745 415.879 178.976 414.728 179.51Z" fill="white"/>
<path d="M244.809 135C211.853 135 185.278 160.788 183.617 193.219L166.833 215.335C164.735 218.045 166.833 222.416 170.505 222.416H183.617V248.641C183.617 258.344 191.397 266.124 201.101 266.124H209.842V292.349H271.034V251.351C291.751 241.56 306 220.668 306 196.191C306 162.449 278.726 135 244.809 135ZM279.775 185.964C279.775 199.426 267.887 210.178 249.879 226.525L244.809 231.158L239.739 226.525C221.731 210.178 209.842 199.426 209.842 185.964C209.842 175.474 218.234 166.819 228.724 166.732H229.074C235.105 166.732 240.875 169.442 244.809 173.988C248.742 169.442 254.512 166.732 260.544 166.732C271.034 166.645 279.775 175.124 279.775 185.614V185.964Z" fill="white"/>
</svg>
