<svg width="483" height="194" viewBox="0 0 483 194" fill="none" xmlns="http://www.w3.org/2000/svg">
<path d="M195.857 118.074L195.857 23.1541" stroke="white" stroke-width="23" stroke-linecap="round"/>
<path d="M25 74.2281L32.0315 68.3223C38.0391 63.2765 47.098 64.5684 51.4557 71.0922L52.1029 72.0611C57.1558 79.6259 68.3565 79.3783 73.0702 71.5976V71.5976C77.0871 64.9673 86.1267 63.5912 91.9346 68.7259L93.9837 70.5376C96.6734 72.9155 100.14 74.2281 103.73 74.2281H158.161" stroke="white" stroke-width="23" stroke-linecap="round"/>
<path d="M124.325 116.997L124.325 66.0584C124.325 40.9543 142.507 21.0814 165.475 21.0813V21.0813" stroke="white" stroke-width="23" stroke-linecap="round"/>
<path d="M297.335 85.8405C297.335 104.016 282.396 118.973 263.691 118.973C244.985 118.973 230.046 104.016 230.046 85.8405C230.046 67.6649 244.985 52.7075 263.691 52.7075C282.396 52.7075 297.335 67.6649 297.335 85.8405Z" stroke="white" stroke-width="23"/>
<path d="M328.426 54.1332L328.429 61.5566C328.431 67.3485 329.04 73.1244 330.245 78.7896V78.7896C331.328 83.8743 332.886 88.8461 334.899 93.6392L337.175 99.0581L338.789 101.841C342.478 108.204 348.265 113.086 355.159 115.65V115.65C365.425 119.469 376.936 117.716 385.598 111.014L390.584 107.157M456.507 54.1815L456.508 59.0717C456.511 66.529 455.433 73.9471 453.307 81.0946V81.0946C452.241 84.6793 450.915 88.1817 449.341 91.5741L445.85 99.0991L443.166 103.487C439.889 108.844 435.039 113.059 429.277 115.555V115.555C420.223 119.478 409.83 118.779 401.383 113.678L390.584 107.157M390.584 107.157L400.292 90.5797C401.891 87.8508 403.045 84.8851 403.712 81.7936L405.433 73.8198C406.453 69.0974 405.003 64.1211 401.655 60.6372V60.6372C395.78 54.5225 385.796 54.7148 380.314 61.1824V61.1824C377.587 64.3984 376.418 68.6534 377.119 72.8114L378.525 81.1518C379.116 84.6611 380.279 88.0496 381.969 91.1821L390.584 107.157Z" stroke="white" stroke-width="23" stroke-linecap="round"/>
<path d="M456.623 54.2563H456.44" stroke="white" stroke-width="23" stroke-linecap="round"/>
<path d="M4.78156 186.881C3.82156 186.881 2.9949 186.708 2.30156 186.361C1.8749 186.121 1.66156 185.841 1.66156 185.521C1.66156 185.201 1.74156 184.948 1.90156 184.761C2.06156 184.548 2.28823 184.441 2.58156 184.441C2.84823 184.441 3.2349 184.548 3.74156 184.761C4.30156 184.974 4.64823 185.081 4.78156 185.081C5.28823 185.081 5.74156 184.868 6.14156 184.441C6.56823 183.988 6.90156 183.401 7.14156 182.681C7.62156 181.348 7.86156 180.148 7.86156 179.081C7.86156 177.934 7.6749 176.734 7.30156 175.481C6.9549 174.201 6.4749 172.961 5.86156 171.761L5.22156 170.481C4.5549 169.148 4.0349 168.094 3.66156 167.321C3.3149 166.548 3.00823 165.708 2.74156 164.801C2.34156 163.521 2.14156 162.281 2.14156 161.081C2.14156 160.121 2.30156 159.214 2.62156 158.361C2.96823 157.508 3.4749 156.788 4.14156 156.201C4.80823 155.561 5.6349 155.241 6.62156 155.241C7.10156 155.241 7.56823 155.388 8.02156 155.681C8.4749 155.948 8.7949 156.294 8.98156 156.721L8.30156 157.561C7.60823 157.561 7.08823 157.428 6.74156 157.161C6.26156 157.214 5.8349 157.454 5.46156 157.881C5.1149 158.281 4.84823 158.748 4.66156 159.281C4.50156 159.788 4.42156 160.294 4.42156 160.801C4.42156 161.814 4.5549 162.854 4.82156 163.921C5.1149 164.961 5.48823 165.948 5.94156 166.881L8.74156 172.481C9.1949 173.441 9.5549 174.521 9.82156 175.721C10.0882 176.921 10.2216 178.121 10.2216 179.321C10.2216 181.081 9.7949 182.734 8.94156 184.281C8.48823 185.081 7.90156 185.708 7.18156 186.161C6.46156 186.641 5.66156 186.881 4.78156 186.881ZM28.6872 186.001C28.2605 186.001 27.9405 185.921 27.7272 185.761C27.5405 185.601 27.4472 185.334 27.4472 184.961V179.721C27.1005 179.481 26.4472 179.268 25.4872 179.081C24.5272 178.894 23.6205 178.774 22.7672 178.721C22.4739 179.281 22.2605 179.961 22.1272 180.761L21.9672 181.561C21.9405 181.748 21.8605 182.161 21.7272 182.801C21.5939 183.441 21.4472 184.001 21.2872 184.481C21.1272 184.934 20.9672 185.294 20.8072 185.561C19.7939 185.561 19.2072 185.294 19.0472 184.761C19.3405 184.334 19.6739 183.081 20.0472 181.001L21.3672 173.681C21.9539 170.214 22.4872 167.254 22.9672 164.801C23.4739 162.348 24.0072 160.294 24.5672 158.641C25.1805 156.801 25.7672 155.881 26.3272 155.881C26.8872 155.881 27.3139 155.988 27.6072 156.201C27.6072 157.268 27.8605 159.841 28.3672 163.921C28.9005 167.921 29.1672 170.654 29.1672 172.121C29.1672 173.534 29.3139 175.561 29.6072 178.201C29.8739 180.894 30.0072 183.041 30.0072 184.641C30.0072 185.548 29.5672 186.001 28.6872 186.001ZM26.6072 177.401C26.8205 177.401 27.0872 177.361 27.4072 177.281C27.3272 176.108 27.1939 174.654 27.0072 172.921C26.3939 166.894 26.0872 163.201 26.0872 161.841V161.521C25.8205 161.788 25.4472 163.001 24.9672 165.161C24.5139 167.294 24.0872 169.588 23.6872 172.041C23.2872 174.494 23.0739 176.121 23.0472 176.921C24.1672 177.241 25.3539 177.401 26.6072 177.401ZM42.5916 186.441C42.2449 186.441 41.9249 186.308 41.6316 186.041C41.3649 185.801 41.2316 185.508 41.2316 185.161C41.2316 184.921 41.2849 184.628 41.3916 184.281C41.4716 183.908 41.5116 183.628 41.5116 183.441C41.5116 181.068 41.3782 176.508 41.1116 169.761C40.8449 164.001 40.7116 159.454 40.7116 156.121C40.7116 155.881 40.8049 155.694 40.9916 155.561C41.1782 155.401 41.4049 155.321 41.6716 155.321C41.9916 155.321 42.2716 155.441 42.5116 155.681C42.7516 155.894 42.8716 156.161 42.8716 156.481C42.8716 158.081 42.9516 160.481 43.1116 163.681C43.2449 167.228 43.3116 169.628 43.3116 170.881L43.3516 171.361V171.841V172.121V172.321C43.4316 174.641 43.4716 178.108 43.4716 182.721V183.761H46.5516C47.1116 184.161 47.3916 184.561 47.3916 184.961C47.3916 185.254 47.2849 185.521 47.0716 185.761C46.8849 185.974 46.6582 186.081 46.3916 186.081C46.3116 186.081 46.1649 186.054 45.9516 186.001L45.7916 185.961C45.6316 185.988 45.3782 186.001 45.0316 186.001H44.3516C44.1649 185.974 43.9516 185.961 43.7116 185.961C43.4449 186.281 43.0716 186.441 42.5916 186.441ZM61.9916 187.121C61.2716 187.121 60.6182 186.881 60.0316 186.401C59.4449 185.921 58.9382 185.268 58.5116 184.441C57.7382 183.001 57.1649 181.028 56.7916 178.521C56.5249 176.788 56.3249 174.788 56.1916 172.521L56.1516 170.401V168.241C56.1249 167.548 56.1116 166.708 56.1116 165.721C56.1116 164.121 56.1782 162.708 56.3116 161.481C56.4182 160.201 56.6849 158.934 57.1116 157.681C57.5382 156.588 58.1516 155.814 58.9516 155.361C59.4316 155.148 59.9116 155.041 60.3916 155.041C61.8049 155.041 62.9249 155.601 63.7516 156.721C64.6582 157.974 65.2582 159.374 65.5516 160.921C65.9782 162.788 66.2182 164.574 66.2716 166.281C66.3782 168.174 66.4316 169.961 66.4316 171.641V173.921C66.4316 174.374 66.3649 175.228 66.2316 176.481C66.1249 177.468 66.0716 178.308 66.0716 179.001V179.161C65.9116 179.908 65.8316 180.788 65.8316 181.801C65.8316 182.548 65.6716 183.321 65.3516 184.121C65.0316 184.921 64.5782 185.601 63.9916 186.161C63.4049 186.801 62.7382 187.121 61.9916 187.121ZM62.0716 184.921C62.6049 184.921 63.0582 184.428 63.4316 183.441C63.7516 182.561 63.9782 181.494 64.1116 180.241C64.2716 178.961 64.4049 177.521 64.5116 175.921C64.5649 175.228 64.5916 174.334 64.5916 173.241L64.5516 169.561C64.4982 168.121 64.3382 166.321 64.0716 164.161C63.8582 162.321 63.4582 160.694 62.8716 159.281C62.6049 158.614 62.2716 158.094 61.8716 157.721C61.4716 157.348 61.0449 157.161 60.5916 157.161C59.9249 157.161 59.4316 157.681 59.1116 158.721C58.7116 159.814 58.4449 161.014 58.3116 162.321C58.1516 163.734 58.0582 165.081 58.0316 166.361L57.9916 167.681C57.9649 168.054 57.9516 168.561 57.9516 169.201V169.361C57.9516 171.148 58.1382 173.348 58.5116 175.961C58.9382 179.508 59.5649 182.028 60.3916 183.521C60.9249 184.454 61.4849 184.921 62.0716 184.921ZM59.9516 154.441C59.7916 154.441 59.6449 154.401 59.5116 154.321C59.3782 154.214 59.3116 154.081 59.3116 153.921C59.3116 153.788 59.3782 153.654 59.5116 153.521L60.1516 152.961C60.2849 152.828 61.0316 152.174 62.3916 151.001L64.7516 148.961C64.8582 148.908 64.9782 148.881 65.1116 148.881C65.4316 148.881 65.7249 149.041 65.9916 149.361C66.2582 149.681 66.3916 150.014 66.3916 150.361C66.3916 150.681 66.2982 150.894 66.1116 151.001C65.1516 151.748 63.2049 152.868 60.2716 154.361C60.2182 154.414 60.1116 154.441 59.9516 154.441ZM86.8503 186.601C86.317 186.601 85.2236 183.854 83.5703 178.361C81.7036 171.934 80.0903 166.028 78.7303 160.641V173.761C78.7303 174.881 78.837 176.788 79.0503 179.481C79.237 182.414 79.3303 184.308 79.3303 185.161C79.3303 185.401 79.1836 185.614 78.8903 185.801C78.597 185.961 78.2636 186.041 77.8903 186.041C77.3303 186.041 77.0503 185.828 77.0503 185.401L77.1303 184.241C77.1836 183.388 77.2103 182.828 77.2103 182.561C77.2103 181.148 77.1303 178.908 76.9703 175.841C76.8103 172.721 76.7303 170.828 76.7303 170.161V165.041C76.7303 164.214 76.7703 162.988 76.8503 161.361C76.957 159.948 77.0103 158.721 77.0103 157.681V157.441C77.0103 156.108 77.3036 155.441 77.8903 155.441C78.237 155.441 78.677 156.028 79.2103 157.201C80.0903 159.121 81.2103 162.561 82.5703 167.521C83.3436 170.401 84.2503 174.108 85.2903 178.641C85.2636 178.534 85.477 179.454 85.9303 181.401L85.9703 181.601C85.9703 179.014 85.997 176.694 86.0503 174.641L86.1303 167.681V155.841C86.237 155.174 86.6636 154.841 87.4103 154.841C88.1303 154.841 88.4903 155.361 88.4903 156.401V156.641C88.3303 156.961 88.2503 157.348 88.2503 157.801C88.2503 159.428 88.2103 161.881 88.1303 165.161C88.0503 168.468 88.0103 170.948 88.0103 172.601V184.801C88.0103 185.228 87.8903 185.628 87.6503 186.001C87.437 186.401 87.1703 186.601 86.8503 186.601ZM114.799 186.081C114.266 186.081 113.799 185.961 113.399 185.721C113.026 185.481 112.839 185.148 112.839 184.721C113.426 184.134 113.719 182.574 113.719 180.041C113.719 178.521 113.599 176.308 113.359 173.401C113.093 170.628 112.959 168.441 112.959 166.841L113.039 164.641C113.066 164.001 113.079 163.268 113.079 162.441C113.079 161.694 112.946 160.748 112.679 159.601C112.359 158.401 112.199 157.561 112.199 157.081C112.199 156.148 113.226 155.681 115.279 155.681H115.879C117.319 155.681 118.573 156.121 119.639 157.001C120.493 157.748 121.213 158.828 121.799 160.241C122.199 161.201 122.546 162.534 122.839 164.241C122.999 165.734 123.079 166.908 123.079 167.761V169.041V170.921C123.026 171.028 122.999 171.134 122.999 171.241C122.999 171.454 123.013 171.614 123.039 171.721C123.066 171.828 123.079 171.961 123.079 172.121C123.079 172.974 122.946 174.001 122.679 175.201C122.439 176.374 122.079 177.574 121.599 178.801C120.399 181.734 119.053 183.814 117.559 185.041C116.679 185.734 115.759 186.081 114.799 186.081ZM115.639 183.761C116.626 183.148 117.493 182.268 118.239 181.121C118.986 179.948 119.559 178.654 119.959 177.241C120.679 174.628 121.039 171.988 121.039 169.321C121.039 167.881 120.906 166.308 120.639 164.601C120.346 162.948 119.719 161.454 118.759 160.121C118.306 159.481 117.733 158.988 117.039 158.641C116.346 158.268 115.559 158.081 114.679 158.081V158.121C114.679 160.521 114.839 164.148 115.159 169.001C115.479 173.828 115.639 177.481 115.639 179.961V183.761ZM136.196 186.241C135.689 186.241 135.249 186.174 134.876 186.041C134.422 185.908 134.196 185.534 134.196 184.921V161.681C134.196 161.228 134.116 160.548 133.956 159.641C133.769 158.814 133.676 158.134 133.676 157.601V157.481C134.129 156.734 134.462 156.254 134.676 156.041C135.049 156.041 135.542 155.988 136.156 155.881C136.716 155.774 137.209 155.721 137.636 155.721C138.062 155.721 138.476 155.854 138.876 156.121C139.276 156.361 139.476 156.654 139.476 157.001C139.476 157.801 138.862 158.201 137.636 158.201H137.076C136.916 158.174 136.729 158.161 136.516 158.161C136.276 158.161 136.129 158.174 136.076 158.201C136.076 159.108 136.129 160.201 136.236 161.481L136.316 162.601L136.396 164.801C136.396 165.308 136.356 166.081 136.276 167.121L136.196 169.361L136.756 169.241C137.289 169.081 137.729 169.001 138.076 169.001C138.369 169.001 138.636 169.121 138.876 169.361C139.116 169.574 139.236 169.828 139.236 170.121C139.236 170.441 139.129 170.734 138.916 171.001C138.729 171.241 138.489 171.361 138.196 171.361L137.716 171.321H137.196C136.796 171.321 136.516 171.414 136.356 171.601V183.961L138.596 183.841C140.116 183.841 140.876 184.188 140.876 184.881V185.041C140.716 185.361 140.422 185.628 139.996 185.841C139.569 186.028 139.156 186.148 138.756 186.201L137.436 186.241H136.196ZM166.633 186.241C166.126 186.241 165.686 186.174 165.313 186.041C164.86 185.908 164.633 185.534 164.633 184.921V161.681C164.633 161.228 164.553 160.548 164.393 159.641C164.206 158.814 164.113 158.134 164.113 157.601V157.481C164.566 156.734 164.9 156.254 165.113 156.041C165.486 156.041 165.98 155.988 166.593 155.881C167.153 155.774 167.646 155.721 168.073 155.721C168.5 155.721 168.913 155.854 169.313 156.121C169.713 156.361 169.913 156.654 169.913 157.001C169.913 157.801 169.3 158.201 168.073 158.201H167.513C167.353 158.174 167.166 158.161 166.953 158.161C166.713 158.161 166.566 158.174 166.513 158.201C166.513 159.108 166.566 160.201 166.673 161.481L166.753 162.601L166.833 164.801C166.833 165.308 166.793 166.081 166.713 167.121L166.633 169.361L167.193 169.241C167.726 169.081 168.166 169.001 168.513 169.001C168.806 169.001 169.073 169.121 169.313 169.361C169.553 169.574 169.673 169.828 169.673 170.121C169.673 170.441 169.566 170.734 169.353 171.001C169.166 171.241 168.926 171.361 168.633 171.361L168.153 171.321H167.633C167.233 171.321 166.953 171.414 166.793 171.601V183.961L169.033 183.841C170.553 183.841 171.313 184.188 171.313 184.881V185.041C171.153 185.361 170.86 185.628 170.433 185.841C170.006 186.028 169.593 186.148 169.193 186.201L167.873 186.241H166.633ZM186.086 186.681C185.713 186.681 185.406 186.534 185.166 186.241C184.473 183.361 183.526 178.148 182.326 170.601C180.993 162.548 180.179 157.761 179.886 156.241C179.993 155.734 180.353 155.481 180.966 155.481C181.419 155.481 181.979 157.188 182.646 160.601C183.339 164.041 184.019 167.934 184.686 172.281L185.766 179.361C186.193 176.161 186.526 173.761 186.766 172.161C187.273 168.481 187.646 165.441 187.886 163.041C188.126 160.614 188.246 158.321 188.246 156.161C188.646 155.628 189.126 155.361 189.686 155.361L190.526 155.801L189.926 161.201C189.793 162.854 189.459 165.854 188.926 170.201L188.566 172.841C188.273 175.188 187.979 177.401 187.686 179.481C187.286 182.494 186.913 184.588 186.566 185.761C186.406 186.374 186.246 186.681 186.086 186.681ZM203.75 186.241C203.244 186.241 202.804 186.174 202.43 186.041C201.977 185.908 201.75 185.534 201.75 184.921V161.681C201.75 161.228 201.67 160.548 201.51 159.641C201.324 158.814 201.23 158.134 201.23 157.601V157.481C201.684 156.734 202.017 156.254 202.23 156.041C202.604 156.041 203.097 155.988 203.71 155.881C204.27 155.774 204.764 155.721 205.19 155.721C205.617 155.721 206.03 155.854 206.43 156.121C206.83 156.361 207.03 156.654 207.03 157.001C207.03 157.801 206.417 158.201 205.19 158.201H204.63C204.47 158.174 204.284 158.161 204.07 158.161C203.83 158.161 203.684 158.174 203.63 158.201C203.63 159.108 203.684 160.201 203.79 161.481L203.87 162.601L203.95 164.801C203.95 165.308 203.91 166.081 203.83 167.121L203.75 169.361L204.31 169.241C204.844 169.081 205.284 169.001 205.63 169.001C205.924 169.001 206.19 169.121 206.43 169.361C206.67 169.574 206.79 169.828 206.79 170.121C206.79 170.441 206.684 170.734 206.47 171.001C206.284 171.241 206.044 171.361 205.75 171.361L205.27 171.321H204.75C204.35 171.321 204.07 171.414 203.91 171.601V183.961L206.15 183.841C207.67 183.841 208.43 184.188 208.43 184.881V185.041C208.27 185.361 207.977 185.628 207.55 185.841C207.124 186.028 206.71 186.148 206.31 186.201L204.99 186.241H203.75ZM228.483 186.601C227.95 186.601 226.856 183.854 225.203 178.361C223.336 171.934 221.723 166.028 220.363 160.641V173.761C220.363 174.881 220.47 176.788 220.683 179.481C220.87 182.414 220.963 184.308 220.963 185.161C220.963 185.401 220.816 185.614 220.523 185.801C220.23 185.961 219.896 186.041 219.523 186.041C218.963 186.041 218.683 185.828 218.683 185.401L218.763 184.241C218.816 183.388 218.843 182.828 218.843 182.561C218.843 181.148 218.763 178.908 218.603 175.841C218.443 172.721 218.363 170.828 218.363 170.161V165.041C218.363 164.214 218.403 162.988 218.483 161.361C218.59 159.948 218.643 158.721 218.643 157.681V157.441C218.643 156.108 218.936 155.441 219.523 155.441C219.87 155.441 220.31 156.028 220.843 157.201C221.723 159.121 222.843 162.561 224.203 167.521C224.976 170.401 225.883 174.108 226.923 178.641C226.896 178.534 227.11 179.454 227.563 181.401L227.603 181.601C227.603 179.014 227.63 176.694 227.683 174.641L227.763 167.681V155.841C227.87 155.174 228.296 154.841 229.043 154.841C229.763 154.841 230.123 155.361 230.123 156.401V156.641C229.963 156.961 229.883 157.348 229.883 157.801C229.883 159.428 229.843 161.881 229.763 165.161C229.683 168.468 229.643 170.948 229.643 172.601V184.801C229.643 185.228 229.523 185.628 229.283 186.001C229.07 186.401 228.803 186.601 228.483 186.601ZM244.088 186.281C243.688 186.281 243.368 186.094 243.128 185.721C242.914 185.321 242.808 184.841 242.808 184.281C242.808 183.401 242.861 182.321 242.968 181.041L243.048 180.001L243.128 177.881C243.128 176.948 243.034 174.868 242.848 171.641C242.661 168.414 242.568 166.334 242.568 165.401C242.568 165.321 242.568 165.174 242.568 164.961C242.594 164.721 242.608 164.361 242.608 163.881C242.634 163.348 242.648 162.694 242.648 161.921C242.648 159.974 242.514 158.734 242.248 158.201C242.088 158.201 241.741 158.241 241.208 158.321L240.088 158.401C239.741 158.401 239.434 158.308 239.168 158.121C238.901 157.908 238.768 157.641 238.768 157.321C238.768 157.001 239.088 156.721 239.728 156.481C240.661 156.161 242.248 155.934 244.488 155.801C245.394 155.748 245.941 155.721 246.128 155.721C246.448 155.721 246.741 155.828 247.008 156.041C247.274 156.254 247.408 156.521 247.408 156.841C247.408 157.161 247.288 157.428 247.048 157.641C246.834 157.828 246.554 157.921 246.208 157.921L245.488 157.881C245.274 157.854 245.034 157.841 244.768 157.841H244.368C244.554 159.654 244.648 161.294 244.648 162.761L244.608 165.321C244.581 166.094 244.567 166.961 244.567 167.921C244.567 169.201 244.621 170.734 244.728 172.521C244.861 174.734 244.928 176.268 244.928 177.121C244.928 178.134 244.981 179.334 245.088 180.721C245.194 182.134 245.248 183.334 245.248 184.321C245.248 185.628 244.861 186.281 244.088 186.281ZM262.796 187.121C262.076 187.121 261.423 186.881 260.836 186.401C260.25 185.921 259.743 185.268 259.316 184.441C258.543 183.001 257.97 181.028 257.596 178.521C257.33 176.788 257.13 174.788 256.996 172.521L256.956 170.401V168.241C256.93 167.548 256.916 166.708 256.916 165.721C256.916 164.121 256.983 162.708 257.116 161.481C257.223 160.201 257.49 158.934 257.916 157.681C258.343 156.588 258.956 155.814 259.756 155.361C260.236 155.148 260.716 155.041 261.196 155.041C262.61 155.041 263.73 155.601 264.556 156.721C265.463 157.974 266.063 159.374 266.356 160.921C266.783 162.788 267.023 164.574 267.076 166.281C267.183 168.174 267.236 169.961 267.236 171.641V173.921C267.236 174.374 267.17 175.228 267.036 176.481C266.93 177.468 266.876 178.308 266.876 179.001V179.161C266.716 179.908 266.636 180.788 266.636 181.801C266.636 182.548 266.476 183.321 266.156 184.121C265.836 184.921 265.383 185.601 264.796 186.161C264.21 186.801 263.543 187.121 262.796 187.121ZM262.876 184.921C263.41 184.921 263.863 184.428 264.236 183.441C264.556 182.561 264.783 181.494 264.916 180.241C265.076 178.961 265.21 177.521 265.316 175.921C265.37 175.228 265.396 174.334 265.396 173.241L265.356 169.561C265.303 168.121 265.143 166.321 264.876 164.161C264.663 162.321 264.263 160.694 263.676 159.281C263.41 158.614 263.076 158.094 262.676 157.721C262.276 157.348 261.85 157.161 261.396 157.161C260.73 157.161 260.236 157.681 259.916 158.721C259.516 159.814 259.25 161.014 259.116 162.321C258.956 163.734 258.863 165.081 258.836 166.361L258.796 167.681C258.77 168.054 258.756 168.561 258.756 169.201V169.361C258.756 171.148 258.943 173.348 259.316 175.961C259.743 179.508 260.37 182.028 261.196 183.521C261.73 184.454 262.29 184.921 262.876 184.921ZM280.055 186.881C279.095 186.881 278.268 186.708 277.575 186.361C277.148 186.121 276.935 185.841 276.935 185.521C276.935 185.201 277.015 184.948 277.175 184.761C277.335 184.548 277.562 184.441 277.855 184.441C278.122 184.441 278.508 184.548 279.015 184.761C279.575 184.974 279.922 185.081 280.055 185.081C280.562 185.081 281.015 184.868 281.415 184.441C281.842 183.988 282.175 183.401 282.415 182.681C282.895 181.348 283.135 180.148 283.135 179.081C283.135 177.934 282.948 176.734 282.575 175.481C282.228 174.201 281.748 172.961 281.135 171.761L280.495 170.481C279.828 169.148 279.308 168.094 278.935 167.321C278.588 166.548 278.282 165.708 278.015 164.801C277.615 163.521 277.415 162.281 277.415 161.081C277.415 160.121 277.575 159.214 277.895 158.361C278.242 157.508 278.748 156.788 279.415 156.201C280.082 155.561 280.908 155.241 281.895 155.241C282.375 155.241 282.842 155.388 283.295 155.681C283.748 155.948 284.068 156.294 284.255 156.721L283.575 157.561C282.882 157.561 282.362 157.428 282.015 157.161C281.535 157.214 281.108 157.454 280.735 157.881C280.388 158.281 280.122 158.748 279.935 159.281C279.775 159.788 279.695 160.294 279.695 160.801C279.695 161.814 279.828 162.854 280.095 163.921C280.388 164.961 280.762 165.948 281.215 166.881L284.015 172.481C284.468 173.441 284.828 174.521 285.095 175.721C285.362 176.921 285.495 178.121 285.495 179.321C285.495 181.081 285.068 182.734 284.215 184.281C283.762 185.081 283.175 185.708 282.455 186.161C281.735 186.641 280.935 186.881 280.055 186.881ZM311.865 185.961C309.572 185.961 308.425 185.561 308.425 184.761C308.425 184.121 308.825 183.801 309.625 183.801H310.105C310.212 183.828 310.332 183.841 310.465 183.841C310.679 183.841 310.825 183.774 310.905 183.641C311.012 183.508 311.065 183.268 311.065 182.921C311.065 180.654 310.932 177.561 310.665 173.641C310.425 169.561 310.305 166.481 310.305 164.401C310.305 163.654 310.319 162.974 310.345 162.361L310.385 160.321C310.385 159.441 310.345 158.708 310.265 158.121C309.972 158.228 309.665 158.281 309.345 158.281C308.732 158.281 308.425 157.961 308.425 157.321C308.425 157.001 308.612 156.721 308.985 156.481C309.385 156.241 309.892 156.068 310.505 155.961C311.625 155.774 312.572 155.681 313.345 155.681C313.665 155.681 313.932 155.788 314.145 156.001C314.385 156.214 314.505 156.468 314.505 156.761C314.505 157.054 314.412 157.308 314.225 157.521C314.065 157.734 313.852 157.841 313.585 157.841C313.425 157.841 313.292 157.828 313.185 157.801H312.865C312.599 157.801 312.399 157.868 312.265 158.001C312.159 158.108 312.105 158.321 312.105 158.641C312.105 161.468 312.279 165.361 312.625 170.321C312.945 175.521 313.105 179.428 313.105 182.041V183.561C313.292 183.534 313.559 183.521 313.905 183.521C315.025 183.521 315.585 183.988 315.585 184.921V185.161L314.585 185.841C314.559 185.841 314.479 185.854 314.345 185.881C314.212 185.881 313.945 185.881 313.545 185.881C312.639 185.934 312.079 185.961 311.865 185.961ZM335.499 186.601C334.965 186.601 333.872 183.854 332.219 178.361C330.352 171.934 328.739 166.028 327.379 160.641V173.761C327.379 174.881 327.485 176.788 327.699 179.481C327.885 182.414 327.979 184.308 327.979 185.161C327.979 185.401 327.832 185.614 327.539 185.801C327.245 185.961 326.912 186.041 326.539 186.041C325.979 186.041 325.699 185.828 325.699 185.401L325.779 184.241C325.832 183.388 325.859 182.828 325.859 182.561C325.859 181.148 325.779 178.908 325.619 175.841C325.459 172.721 325.379 170.828 325.379 170.161V165.041C325.379 164.214 325.419 162.988 325.499 161.361C325.605 159.948 325.659 158.721 325.659 157.681V157.441C325.659 156.108 325.952 155.441 326.539 155.441C326.885 155.441 327.325 156.028 327.859 157.201C328.739 159.121 329.859 162.561 331.219 167.521C331.992 170.401 332.899 174.108 333.939 178.641C333.912 178.534 334.125 179.454 334.579 181.401L334.619 181.601C334.619 179.014 334.645 176.694 334.699 174.641L334.779 167.681V155.841C334.885 155.174 335.312 154.841 336.059 154.841C336.779 154.841 337.139 155.361 337.139 156.401V156.641C336.979 156.961 336.899 157.348 336.899 157.801C336.899 159.428 336.859 161.881 336.779 165.161C336.699 168.468 336.659 170.948 336.659 172.601V184.801C336.659 185.228 336.539 185.628 336.299 186.001C336.085 186.401 335.819 186.601 335.499 186.601ZM350.223 186.041C349.45 186.041 349.063 185.188 349.063 183.481C349.063 180.388 348.916 175.441 348.623 168.641C348.356 161.841 348.103 158.254 347.863 157.881C347.863 157.134 348.156 156.561 348.743 156.161C348.956 156.028 349.25 155.921 349.623 155.841C350.023 155.734 350.383 155.681 350.703 155.681C350.863 155.654 351.196 155.641 351.703 155.641C352.316 155.641 352.756 155.748 353.023 155.961C353.29 156.148 353.423 156.494 353.423 157.001C353.423 157.294 353.316 157.521 353.103 157.681C352.89 157.814 352.623 157.881 352.303 157.881L351.903 157.841H351.343C350.596 157.841 350.223 157.988 350.223 158.281C350.223 159.668 350.316 161.481 350.503 163.721C350.663 165.588 350.77 167.361 350.823 169.041C351.01 168.988 351.356 168.908 351.863 168.801C352.396 168.668 352.796 168.601 353.063 168.601C353.356 168.601 353.61 168.734 353.823 169.001C354.036 169.241 354.143 169.521 354.143 169.841C354.143 170.214 353.97 170.481 353.623 170.641C353.57 170.668 353.436 170.734 353.223 170.841C353.036 170.921 352.783 170.974 352.463 171.001C352.223 171.028 351.823 171.068 351.263 171.121H350.823C350.823 172.721 350.956 174.894 351.223 177.641C351.463 180.521 351.583 182.694 351.583 184.161L351.543 184.321L351.503 184.401C351.53 184.508 351.543 184.681 351.543 184.921C351.543 185.268 351.423 185.548 351.183 185.761C350.943 185.948 350.623 186.041 350.223 186.041ZM372.609 186.001C372.182 186.001 371.862 185.921 371.649 185.761C371.462 185.601 371.369 185.334 371.369 184.961V179.721C371.022 179.481 370.369 179.268 369.409 179.081C368.449 178.894 367.542 178.774 366.689 178.721C366.396 179.281 366.182 179.961 366.049 180.761L365.889 181.561C365.862 181.748 365.782 182.161 365.649 182.801C365.516 183.441 365.369 184.001 365.209 184.481C365.049 184.934 364.889 185.294 364.729 185.561C363.716 185.561 363.129 185.294 362.969 184.761C363.262 184.334 363.596 183.081 363.969 181.001L365.289 173.681C365.876 170.214 366.409 167.254 366.889 164.801C367.396 162.348 367.929 160.294 368.489 158.641C369.102 156.801 369.689 155.881 370.249 155.881C370.809 155.881 371.236 155.988 371.529 156.201C371.529 157.268 371.782 159.841 372.289 163.921C372.822 167.921 373.089 170.654 373.089 172.121C373.089 173.534 373.236 175.561 373.529 178.201C373.796 180.894 373.929 183.041 373.929 184.641C373.929 185.548 373.489 186.001 372.609 186.001ZM370.529 177.401C370.742 177.401 371.009 177.361 371.329 177.281C371.249 176.108 371.116 174.654 370.929 172.921C370.316 166.894 370.009 163.201 370.009 161.841V161.521C369.742 161.788 369.369 163.001 368.889 165.161C368.436 167.294 368.009 169.588 367.609 172.041C367.209 174.494 366.996 176.121 366.969 176.921C368.089 177.241 369.276 177.401 370.529 177.401ZM394.553 186.601C394.02 186.601 392.927 183.854 391.273 178.361C389.407 171.934 387.793 166.028 386.433 160.641V173.761C386.433 174.881 386.54 176.788 386.753 179.481C386.94 182.414 387.033 184.308 387.033 185.161C387.033 185.401 386.887 185.614 386.593 185.801C386.3 185.961 385.967 186.041 385.593 186.041C385.033 186.041 384.753 185.828 384.753 185.401L384.833 184.241C384.887 183.388 384.913 182.828 384.913 182.561C384.913 181.148 384.833 178.908 384.673 175.841C384.513 172.721 384.433 170.828 384.433 170.161V165.041C384.433 164.214 384.473 162.988 384.553 161.361C384.66 159.948 384.713 158.721 384.713 157.681V157.441C384.713 156.108 385.007 155.441 385.593 155.441C385.94 155.441 386.38 156.028 386.913 157.201C387.793 159.121 388.913 162.561 390.273 167.521C391.047 170.401 391.953 174.108 392.993 178.641C392.967 178.534 393.18 179.454 393.633 181.401L393.673 181.601C393.673 179.014 393.7 176.694 393.753 174.641L393.833 167.681V155.841C393.94 155.174 394.367 154.841 395.113 154.841C395.833 154.841 396.193 155.361 396.193 156.401V156.641C396.033 156.961 395.953 157.348 395.953 157.801C395.953 159.428 395.913 161.881 395.833 165.161C395.753 168.468 395.713 170.948 395.713 172.601V184.801C395.713 185.228 395.593 185.628 395.353 186.001C395.14 186.401 394.873 186.601 394.553 186.601ZM410.158 186.281C409.758 186.281 409.438 186.094 409.198 185.721C408.984 185.321 408.878 184.841 408.878 184.281C408.878 183.401 408.931 182.321 409.038 181.041L409.118 180.001L409.198 177.881C409.198 176.948 409.104 174.868 408.918 171.641C408.731 168.414 408.638 166.334 408.638 165.401C408.638 165.321 408.638 165.174 408.638 164.961C408.664 164.721 408.678 164.361 408.678 163.881C408.704 163.348 408.718 162.694 408.718 161.921C408.718 159.974 408.584 158.734 408.318 158.201C408.158 158.201 407.811 158.241 407.278 158.321L406.158 158.401C405.811 158.401 405.504 158.308 405.238 158.121C404.971 157.908 404.838 157.641 404.838 157.321C404.838 157.001 405.158 156.721 405.798 156.481C406.731 156.161 408.318 155.934 410.558 155.801C411.464 155.748 412.011 155.721 412.198 155.721C412.518 155.721 412.811 155.828 413.078 156.041C413.344 156.254 413.478 156.521 413.478 156.841C413.478 157.161 413.358 157.428 413.118 157.641C412.904 157.828 412.624 157.921 412.278 157.921L411.558 157.881C411.344 157.854 411.104 157.841 410.838 157.841H410.438C410.624 159.654 410.718 161.294 410.718 162.761L410.678 165.321C410.651 166.094 410.638 166.961 410.638 167.921C410.638 169.201 410.691 170.734 410.798 172.521C410.931 174.734 410.998 176.268 410.998 177.121C410.998 178.134 411.051 179.334 411.158 180.721C411.264 182.134 411.318 183.334 411.318 184.321C411.318 185.628 410.931 186.281 410.158 186.281ZM426.147 185.961C423.853 185.961 422.707 185.561 422.707 184.761C422.707 184.121 423.107 183.801 423.907 183.801H424.387C424.493 183.828 424.613 183.841 424.747 183.841C424.96 183.841 425.107 183.774 425.187 183.641C425.293 183.508 425.347 183.268 425.347 182.921C425.347 180.654 425.213 177.561 424.947 173.641C424.707 169.561 424.587 166.481 424.587 164.401C424.587 163.654 424.6 162.974 424.627 162.361L424.667 160.321C424.667 159.441 424.627 158.708 424.547 158.121C424.253 158.228 423.947 158.281 423.627 158.281C423.013 158.281 422.707 157.961 422.707 157.321C422.707 157.001 422.893 156.721 423.267 156.481C423.667 156.241 424.173 156.068 424.787 155.961C425.907 155.774 426.853 155.681 427.627 155.681C427.947 155.681 428.213 155.788 428.427 156.001C428.667 156.214 428.787 156.468 428.787 156.761C428.787 157.054 428.693 157.308 428.507 157.521C428.347 157.734 428.133 157.841 427.867 157.841C427.707 157.841 427.573 157.828 427.467 157.801H427.147C426.88 157.801 426.68 157.868 426.547 158.001C426.44 158.108 426.387 158.321 426.387 158.641C426.387 161.468 426.56 165.361 426.907 170.321C427.227 175.521 427.387 179.428 427.387 182.041V183.561C427.573 183.534 427.84 183.521 428.187 183.521C429.307 183.521 429.867 183.988 429.867 184.921V185.161L428.867 185.841C428.84 185.841 428.76 185.854 428.627 185.881C428.493 185.881 428.227 185.881 427.827 185.881C426.92 185.934 426.36 185.961 426.147 185.961ZM441.74 186.441C441.393 186.441 441.073 186.308 440.78 186.041C440.513 185.801 440.38 185.508 440.38 185.161C440.38 184.921 440.433 184.628 440.54 184.281C440.62 183.908 440.66 183.628 440.66 183.441C440.66 181.068 440.527 176.508 440.26 169.761C439.993 164.001 439.86 159.454 439.86 156.121C439.86 155.881 439.953 155.694 440.14 155.561C440.327 155.401 440.553 155.321 440.82 155.321C441.14 155.321 441.42 155.441 441.66 155.681C441.9 155.894 442.02 156.161 442.02 156.481C442.02 158.081 442.1 160.481 442.26 163.681C442.393 167.228 442.46 169.628 442.46 170.881L442.5 171.361V171.841V172.121V172.321C442.58 174.641 442.62 178.108 442.62 182.721V183.761H445.7C446.26 184.161 446.54 184.561 446.54 184.961C446.54 185.254 446.433 185.521 446.22 185.761C446.033 185.974 445.807 186.081 445.54 186.081C445.46 186.081 445.313 186.054 445.1 186.001L444.94 185.961C444.78 185.988 444.527 186.001 444.18 186.001H443.5C443.313 185.974 443.1 185.961 442.86 185.961C442.593 186.281 442.22 186.441 441.74 186.441ZM458.18 186.241C457.673 186.241 457.233 186.174 456.86 186.041C456.407 185.908 456.18 185.534 456.18 184.921V161.681C456.18 161.228 456.1 160.548 455.94 159.641C455.753 158.814 455.66 158.134 455.66 157.601V157.481C456.113 156.734 456.447 156.254 456.66 156.041C457.033 156.041 457.527 155.988 458.14 155.881C458.7 155.774 459.193 155.721 459.62 155.721C460.047 155.721 460.46 155.854 460.86 156.121C461.26 156.361 461.46 156.654 461.46 157.001C461.46 157.801 460.847 158.201 459.62 158.201H459.06C458.9 158.174 458.713 158.161 458.5 158.161C458.26 158.161 458.113 158.174 458.06 158.201C458.06 159.108 458.113 160.201 458.22 161.481L458.3 162.601L458.38 164.801C458.38 165.308 458.34 166.081 458.26 167.121L458.18 169.361L458.74 169.241C459.273 169.081 459.713 169.001 460.06 169.001C460.353 169.001 460.62 169.121 460.86 169.361C461.1 169.574 461.22 169.828 461.22 170.121C461.22 170.441 461.113 170.734 460.9 171.001C460.713 171.241 460.473 171.361 460.18 171.361L459.7 171.321H459.18C458.78 171.321 458.5 171.414 458.34 171.601V183.961L460.58 183.841C462.1 183.841 462.86 184.188 462.86 184.881V185.041C462.7 185.361 462.407 185.628 461.98 185.841C461.553 186.028 461.14 186.148 460.74 186.201L459.42 186.241H458.18ZM475.313 186.881C474.353 186.881 473.526 186.708 472.833 186.361C472.406 186.121 472.193 185.841 472.193 185.521C472.193 185.201 472.273 184.948 472.433 184.761C472.593 184.548 472.819 184.441 473.113 184.441C473.379 184.441 473.766 184.548 474.273 184.761C474.833 184.974 475.179 185.081 475.313 185.081C475.819 185.081 476.273 184.868 476.673 184.441C477.099 183.988 477.433 183.401 477.673 182.681C478.153 181.348 478.393 180.148 478.393 179.081C478.393 177.934 478.206 176.734 477.833 175.481C477.486 174.201 477.006 172.961 476.393 171.761L475.753 170.481C475.086 169.148 474.566 168.094 474.193 167.321C473.846 166.548 473.539 165.708 473.273 164.801C472.873 163.521 472.673 162.281 472.673 161.081C472.673 160.121 472.833 159.214 473.153 158.361C473.499 157.508 474.006 156.788 474.673 156.201C475.339 155.561 476.166 155.241 477.153 155.241C477.633 155.241 478.099 155.388 478.553 155.681C479.006 155.948 479.326 156.294 479.513 156.721L478.833 157.561C478.139 157.561 477.619 157.428 477.273 157.161C476.793 157.214 476.366 157.454 475.993 157.881C475.646 158.281 475.379 158.748 475.193 159.281C475.033 159.788 474.953 160.294 474.953 160.801C474.953 161.814 475.086 162.854 475.353 163.921C475.646 164.961 476.019 165.948 476.473 166.881L479.273 172.481C479.726 173.441 480.086 174.521 480.353 175.721C480.619 176.921 480.753 178.121 480.753 179.321C480.753 181.081 480.326 182.734 479.473 184.281C479.019 185.081 478.433 185.708 477.713 186.161C476.993 186.641 476.193 186.881 475.313 186.881Z" fill="white"/>
</svg>
