<svg width="259" height="150" viewBox="0 0 259 150" fill="none" xmlns="http://www.w3.org/2000/svg">
<path d="M107.947 81.9927L107.947 25.6734" stroke="white" stroke-width="9" stroke-linecap="round"/>
<path d="M11 56.9323L15.1721 53.4282C18.7366 50.4344 24.1115 51.2009 26.6971 55.0717L27.0811 55.6466C30.0792 60.1351 36.725 59.9881 39.5218 55.3716V55.3716C41.9052 51.4376 47.2687 50.6211 50.7147 53.6677L51.9305 54.7426C53.5264 56.1535 55.5831 56.9323 57.7132 56.9323H90.0094" stroke="white" stroke-width="9" stroke-linecap="round"/>
<path d="M69.9351 82.418L69.9351 52.1941C69.9351 37.2989 80.7233 25.5076 94.3513 25.5076V25.5076" stroke="white" stroke-width="9" stroke-linecap="round"/>
<path d="M160.293 63.7914C160.293 73.8541 152.028 82.0988 141.724 82.0988C131.42 82.0988 123.155 73.8541 123.155 63.7914C123.155 53.7287 131.42 45.4839 141.724 45.4839C152.028 45.4839 160.293 53.7287 160.293 63.7914Z" stroke="white" stroke-width="9"/>
<path d="M171.712 45.4173L171.714 49.8219C171.715 53.2584 172.076 56.6854 172.792 60.0468V60.0468C173.434 63.0638 174.358 66.0137 175.553 68.8576L176.903 72.0729L177.861 73.7243C180.05 77.4995 183.484 80.396 187.574 81.9175V81.9175C193.665 84.1836 200.495 83.1434 205.635 79.1668L208.593 76.8781M247.707 45.4459L247.708 48.3475C247.71 52.7722 247.07 57.1736 245.809 61.4145V61.4145C245.176 63.5414 244.39 65.6195 243.456 67.6323L241.384 72.0972L239.791 74.7008C237.847 77.8792 234.969 80.3799 231.551 81.8613V81.8613C226.179 84.1889 220.012 83.7739 215 80.7473L208.593 76.8781M208.593 76.8781L214.353 67.0423C215.301 65.4232 215.986 63.6635 216.382 61.8292L217.404 57.098C218.008 54.2961 217.148 51.3435 215.162 49.2763V49.2763C211.676 45.6483 205.752 45.7624 202.499 49.5998V49.5998C200.881 51.508 200.188 54.0327 200.604 56.4997L201.438 61.4484C201.788 63.5306 202.479 65.5411 203.481 67.3997L208.593 76.8781Z" stroke="white" stroke-width="9" stroke-linecap="round"/>
<path d="M10.34 116.44C9.86 116.44 9.44667 116.353 9.1 116.18C8.88667 116.06 8.78 115.92 8.78 115.76C8.78 115.6 8.82 115.473 8.9 115.38C8.98 115.273 9.09333 115.22 9.24 115.22C9.37333 115.22 9.56667 115.273 9.82 115.38C10.1 115.487 10.2733 115.54 10.34 115.54C10.5933 115.54 10.82 115.433 11.02 115.22C11.2333 114.993 11.4 114.7 11.52 114.34C11.76 113.673 11.88 113.073 11.88 112.54C11.88 111.967 11.7867 111.367 11.6 110.74C11.4267 110.1 11.1867 109.48 10.88 108.88L10.56 108.24C10.2267 107.573 9.96667 107.047 9.78 106.66C9.60667 106.273 9.45333 105.853 9.32 105.4C9.12 104.76 9.02 104.14 9.02 103.54C9.02 103.06 9.1 102.607 9.26 102.18C9.43333 101.753 9.68667 101.393 10.02 101.1C10.3533 100.78 10.7667 100.62 11.26 100.62C11.5 100.62 11.7333 100.693 11.96 100.84C12.1867 100.973 12.3467 101.147 12.44 101.36L12.1 101.78C11.7533 101.78 11.4933 101.713 11.32 101.58C11.08 101.607 10.8667 101.727 10.68 101.94C10.5067 102.14 10.3733 102.373 10.28 102.64C10.2 102.893 10.16 103.147 10.16 103.4C10.16 103.907 10.2267 104.427 10.36 104.96C10.5067 105.48 10.6933 105.973 10.92 106.44L12.32 109.24C12.5467 109.72 12.7267 110.26 12.86 110.86C12.9933 111.46 13.06 112.06 13.06 112.66C13.06 113.54 12.8467 114.367 12.42 115.14C12.1933 115.54 11.9 115.853 11.54 116.08C11.18 116.32 10.78 116.44 10.34 116.44ZM22.2928 116C22.0795 116 21.9195 115.96 21.8128 115.88C21.7195 115.8 21.6728 115.667 21.6728 115.48V112.86C21.4995 112.74 21.1728 112.633 20.6928 112.54C20.2128 112.447 19.7595 112.387 19.3328 112.36C19.1861 112.64 19.0795 112.98 19.0128 113.38L18.9328 113.78C18.9195 113.873 18.8795 114.08 18.8128 114.4C18.7461 114.72 18.6728 115 18.5928 115.24C18.5128 115.467 18.4328 115.647 18.3528 115.78C17.8461 115.78 17.5528 115.647 17.4728 115.38C17.6195 115.167 17.7861 114.54 17.9728 113.5L18.6328 109.84C18.9261 108.107 19.1928 106.627 19.4328 105.4C19.6861 104.173 19.9528 103.147 20.2328 102.32C20.5395 101.4 20.8328 100.94 21.1128 100.94C21.3928 100.94 21.6061 100.993 21.7528 101.1C21.7528 101.633 21.8795 102.92 22.1328 104.96C22.3995 106.96 22.5328 108.327 22.5328 109.06C22.5328 109.767 22.6061 110.78 22.7528 112.1C22.8861 113.447 22.9528 114.52 22.9528 115.32C22.9528 115.773 22.7328 116 22.2928 116ZM21.2528 111.7C21.3595 111.7 21.4928 111.68 21.6528 111.64C21.6128 111.053 21.5461 110.327 21.4528 109.46C21.1461 106.447 20.9928 104.6 20.9928 103.92V103.76C20.8595 103.893 20.6728 104.5 20.4328 105.58C20.2061 106.647 19.9928 107.793 19.7928 109.02C19.5928 110.247 19.4861 111.06 19.4728 111.46C20.0328 111.62 20.6261 111.7 21.2528 111.7ZM29.245 116.22C29.0717 116.22 28.9117 116.153 28.765 116.02C28.6317 115.9 28.565 115.753 28.565 115.58C28.565 115.46 28.5917 115.313 28.645 115.14C28.685 114.953 28.705 114.813 28.705 114.72C28.705 113.533 28.6383 111.253 28.505 107.88C28.3717 105 28.305 102.727 28.305 101.06C28.305 100.94 28.3517 100.847 28.445 100.78C28.5383 100.7 28.6517 100.66 28.785 100.66C28.945 100.66 29.085 100.72 29.205 100.84C29.325 100.947 29.385 101.08 29.385 101.24C29.385 102.04 29.425 103.24 29.505 104.84C29.5717 106.613 29.605 107.813 29.605 108.44L29.625 108.68V108.92V109.06V109.16C29.665 110.32 29.685 112.053 29.685 114.36V114.88H31.225C31.505 115.08 31.645 115.28 31.645 115.48C31.645 115.627 31.5917 115.76 31.485 115.88C31.3917 115.987 31.2783 116.04 31.145 116.04C31.105 116.04 31.0317 116.027 30.925 116L30.845 115.98C30.765 115.993 30.6383 116 30.465 116H30.125C30.0317 115.987 29.925 115.98 29.805 115.98C29.6717 116.14 29.485 116.22 29.245 116.22ZM38.945 116.56C38.585 116.56 38.2583 116.44 37.965 116.2C37.6717 115.96 37.4183 115.633 37.205 115.22C36.8183 114.5 36.5317 113.513 36.345 112.26C36.2117 111.393 36.1117 110.393 36.045 109.26L36.025 108.2V107.12C36.0117 106.773 36.005 106.353 36.005 105.86C36.005 105.06 36.0383 104.353 36.105 103.74C36.1583 103.1 36.2917 102.467 36.505 101.84C36.7183 101.293 37.025 100.907 37.425 100.68C37.665 100.573 37.905 100.52 38.145 100.52C38.8517 100.52 39.4117 100.8 39.825 101.36C40.2783 101.987 40.5783 102.687 40.725 103.46C40.9383 104.393 41.0583 105.287 41.085 106.14C41.1383 107.087 41.165 107.98 41.165 108.82V109.96C41.165 110.187 41.1317 110.613 41.065 111.24C41.0117 111.733 40.985 112.153 40.985 112.5V112.58C40.905 112.953 40.865 113.393 40.865 113.9C40.865 114.273 40.785 114.66 40.625 115.06C40.465 115.46 40.2383 115.8 39.945 116.08C39.6517 116.4 39.3183 116.56 38.945 116.56ZM38.985 115.46C39.2517 115.46 39.4783 115.213 39.665 114.72C39.825 114.28 39.9383 113.747 40.005 113.12C40.085 112.48 40.1517 111.76 40.205 110.96C40.2317 110.613 40.245 110.167 40.245 109.62L40.225 107.78C40.1983 107.06 40.1183 106.16 39.985 105.08C39.8783 104.16 39.6783 103.347 39.385 102.64C39.2517 102.307 39.085 102.047 38.885 101.86C38.685 101.673 38.4717 101.58 38.245 101.58C37.9117 101.58 37.665 101.84 37.505 102.36C37.305 102.907 37.1717 103.507 37.105 104.16C37.025 104.867 36.9783 105.54 36.965 106.18L36.945 106.84C36.9317 107.027 36.925 107.28 36.925 107.6V107.68C36.925 108.573 37.0183 109.673 37.205 110.98C37.4183 112.753 37.7317 114.013 38.145 114.76C38.4117 115.227 38.6917 115.46 38.985 115.46ZM37.925 100.22C37.845 100.22 37.7717 100.2 37.705 100.16C37.6383 100.107 37.605 100.04 37.605 99.96C37.605 99.8933 37.6383 99.8267 37.705 99.76L38.025 99.48C38.0917 99.4133 38.465 99.0867 39.145 98.5L40.325 97.48C40.3783 97.4533 40.4383 97.44 40.505 97.44C40.665 97.44 40.8117 97.52 40.945 97.68C41.0783 97.84 41.145 98.0067 41.145 98.18C41.145 98.34 41.0983 98.4467 41.005 98.5C40.525 98.8733 39.5517 99.4333 38.085 100.18C38.0583 100.207 38.005 100.22 37.925 100.22ZM51.3744 116.3C51.1077 116.3 50.561 114.927 49.7344 112.18C48.801 108.967 47.9944 106.013 47.3144 103.32V109.88C47.3144 110.44 47.3677 111.393 47.4744 112.74C47.5677 114.207 47.6144 115.153 47.6144 115.58C47.6144 115.7 47.541 115.807 47.3944 115.9C47.2477 115.98 47.081 116.02 46.8944 116.02C46.6144 116.02 46.4744 115.913 46.4744 115.7L46.5144 115.12C46.541 114.693 46.5544 114.413 46.5544 114.28C46.5544 113.573 46.5144 112.453 46.4344 110.92C46.3544 109.36 46.3144 108.413 46.3144 108.08V105.52C46.3144 105.107 46.3344 104.493 46.3744 103.68C46.4277 102.973 46.4544 102.36 46.4544 101.84V101.72C46.4544 101.053 46.601 100.72 46.8944 100.72C47.0677 100.72 47.2877 101.013 47.5544 101.6C47.9944 102.56 48.5544 104.28 49.2344 106.76C49.621 108.2 50.0744 110.053 50.5944 112.32C50.581 112.267 50.6877 112.727 50.9144 113.7L50.9344 113.8C50.9344 112.507 50.9477 111.347 50.9744 110.32L51.0144 106.84V100.92C51.0677 100.587 51.281 100.42 51.6544 100.42C52.0144 100.42 52.1944 100.68 52.1944 101.2V101.32C52.1144 101.48 52.0744 101.673 52.0744 101.9C52.0744 102.713 52.0544 103.94 52.0144 105.58C51.9744 107.233 51.9544 108.473 51.9544 109.3V115.4C51.9544 115.613 51.8944 115.813 51.7744 116C51.6677 116.2 51.5344 116.3 51.3744 116.3ZM65.3489 116.04C65.0822 116.04 64.8489 115.98 64.6489 115.86C64.4622 115.74 64.3689 115.573 64.3689 115.36C64.6622 115.067 64.8089 114.287 64.8089 113.02C64.8089 112.26 64.7489 111.153 64.6289 109.7C64.4956 108.313 64.4289 107.22 64.4289 106.42L64.4689 105.32C64.4822 105 64.4889 104.633 64.4889 104.22C64.4889 103.847 64.4222 103.373 64.2889 102.8C64.1289 102.2 64.0489 101.78 64.0489 101.54C64.0489 101.073 64.5622 100.84 65.5889 100.84H65.8889C66.6089 100.84 67.2356 101.06 67.7689 101.5C68.1956 101.873 68.5556 102.413 68.8489 103.12C69.0489 103.6 69.2222 104.267 69.3689 105.12C69.4489 105.867 69.4889 106.453 69.4889 106.88V107.52V108.46C69.4622 108.513 69.4489 108.567 69.4489 108.62C69.4489 108.727 69.4556 108.807 69.4689 108.86C69.4822 108.913 69.4889 108.98 69.4889 109.06C69.4889 109.487 69.4222 110 69.2889 110.6C69.1689 111.187 68.9889 111.787 68.7489 112.4C68.1489 113.867 67.4756 114.907 66.7289 115.52C66.2889 115.867 65.8289 116.04 65.3489 116.04ZM65.7689 114.88C66.2622 114.573 66.6956 114.133 67.0689 113.56C67.4422 112.973 67.7289 112.327 67.9289 111.62C68.2889 110.313 68.4689 108.993 68.4689 107.66C68.4689 106.94 68.4022 106.153 68.2689 105.3C68.1222 104.473 67.8089 103.727 67.3289 103.06C67.1022 102.74 66.8156 102.493 66.4689 102.32C66.1222 102.133 65.7289 102.04 65.2889 102.04V102.06C65.2889 103.26 65.3689 105.073 65.5289 107.5C65.6889 109.913 65.7689 111.74 65.7689 112.98V114.88ZM76.047 116.12C75.7937 116.12 75.5737 116.087 75.387 116.02C75.1604 115.953 75.047 115.767 75.047 115.46V103.84C75.047 103.613 75.007 103.273 74.927 102.82C74.8337 102.407 74.787 102.067 74.787 101.8V101.74C75.0137 101.367 75.1804 101.127 75.287 101.02C75.4737 101.02 75.7204 100.993 76.027 100.94C76.307 100.887 76.5537 100.86 76.767 100.86C76.9804 100.86 77.187 100.927 77.387 101.06C77.587 101.18 77.687 101.327 77.687 101.5C77.687 101.9 77.3804 102.1 76.767 102.1H76.487C76.407 102.087 76.3137 102.08 76.207 102.08C76.087 102.08 76.0137 102.087 75.987 102.1C75.987 102.553 76.0137 103.1 76.067 103.74L76.107 104.3L76.147 105.4C76.147 105.653 76.127 106.04 76.087 106.56L76.047 107.68L76.327 107.62C76.5937 107.54 76.8137 107.5 76.987 107.5C77.1337 107.5 77.267 107.56 77.387 107.68C77.507 107.787 77.567 107.913 77.567 108.06C77.567 108.22 77.5137 108.367 77.407 108.5C77.3137 108.62 77.1937 108.68 77.047 108.68L76.807 108.66H76.547C76.347 108.66 76.207 108.707 76.127 108.8V114.98L77.247 114.92C78.007 114.92 78.387 115.093 78.387 115.44V115.52C78.307 115.68 78.1604 115.813 77.947 115.92C77.7337 116.013 77.527 116.073 77.327 116.1L76.667 116.12H76.047ZM91.2658 116.12C91.0124 116.12 90.7924 116.087 90.6058 116.02C90.3791 115.953 90.2658 115.767 90.2658 115.46V103.84C90.2658 103.613 90.2258 103.273 90.1458 102.82C90.0524 102.407 90.0058 102.067 90.0058 101.8V101.74C90.2324 101.367 90.3991 101.127 90.5058 101.02C90.6924 101.02 90.9391 100.993 91.2458 100.94C91.5258 100.887 91.7724 100.86 91.9858 100.86C92.1991 100.86 92.4058 100.927 92.6058 101.06C92.8058 101.18 92.9058 101.327 92.9058 101.5C92.9058 101.9 92.5991 102.1 91.9858 102.1H91.7058C91.6258 102.087 91.5324 102.08 91.4258 102.08C91.3058 102.08 91.2324 102.087 91.2058 102.1C91.2058 102.553 91.2324 103.1 91.2858 103.74L91.3258 104.3L91.3658 105.4C91.3658 105.653 91.3458 106.04 91.3058 106.56L91.2658 107.68L91.5458 107.62C91.8124 107.54 92.0324 107.5 92.2058 107.5C92.3524 107.5 92.4858 107.56 92.6058 107.68C92.7258 107.787 92.7858 107.913 92.7858 108.06C92.7858 108.22 92.7324 108.367 92.6258 108.5C92.5324 108.62 92.4124 108.68 92.2658 108.68L92.0258 108.66H91.7658C91.5658 108.66 91.4258 108.707 91.3458 108.8V114.98L92.4658 114.92C93.2258 114.92 93.6058 115.093 93.6058 115.44V115.52C93.5258 115.68 93.3791 115.813 93.1658 115.92C92.9524 116.013 92.7458 116.073 92.5458 116.1L91.8858 116.12H91.2658ZM100.992 116.34C100.806 116.34 100.652 116.267 100.532 116.12C100.186 114.68 99.7122 112.073 99.1122 108.3C98.4455 104.273 98.0389 101.88 97.8922 101.12C97.9455 100.867 98.1255 100.74 98.4322 100.74C98.6589 100.74 98.9389 101.593 99.2722 103.3C99.6189 105.02 99.9589 106.967 100.292 109.14L100.832 112.68C101.046 111.08 101.212 109.88 101.332 109.08C101.586 107.24 101.772 105.72 101.892 104.52C102.012 103.307 102.072 102.16 102.072 101.08C102.272 100.813 102.512 100.68 102.792 100.68L103.212 100.9L102.912 103.6C102.846 104.427 102.679 105.927 102.412 108.1L102.232 109.42C102.086 110.593 101.939 111.7 101.792 112.74C101.592 114.247 101.406 115.293 101.232 115.88C101.152 116.187 101.072 116.34 100.992 116.34ZM109.824 116.12C109.571 116.12 109.351 116.087 109.164 116.02C108.938 115.953 108.824 115.767 108.824 115.46V103.84C108.824 103.613 108.784 103.273 108.704 102.82C108.611 102.407 108.564 102.067 108.564 101.8V101.74C108.791 101.367 108.958 101.127 109.064 101.02C109.251 101.02 109.498 100.993 109.804 100.94C110.084 100.887 110.331 100.86 110.544 100.86C110.758 100.86 110.964 100.927 111.164 101.06C111.364 101.18 111.464 101.327 111.464 101.5C111.464 101.9 111.158 102.1 110.544 102.1H110.264C110.184 102.087 110.091 102.08 109.984 102.08C109.864 102.08 109.791 102.087 109.764 102.1C109.764 102.553 109.791 103.1 109.844 103.74L109.884 104.3L109.924 105.4C109.924 105.653 109.904 106.04 109.864 106.56L109.824 107.68L110.104 107.62C110.371 107.54 110.591 107.5 110.764 107.5C110.911 107.5 111.044 107.56 111.164 107.68C111.284 107.787 111.344 107.913 111.344 108.06C111.344 108.22 111.291 108.367 111.184 108.5C111.091 108.62 110.971 108.68 110.824 108.68L110.584 108.66H110.324C110.124 108.66 109.984 108.707 109.904 108.8V114.98L111.024 114.92C111.784 114.92 112.164 115.093 112.164 115.44V115.52C112.084 115.68 111.938 115.813 111.724 115.92C111.511 116.013 111.304 116.073 111.104 116.1L110.444 116.12H109.824ZM122.191 116.3C121.924 116.3 121.377 114.927 120.551 112.18C119.617 108.967 118.811 106.013 118.131 103.32V109.88C118.131 110.44 118.184 111.393 118.291 112.74C118.384 114.207 118.431 115.153 118.431 115.58C118.431 115.7 118.357 115.807 118.211 115.9C118.064 115.98 117.897 116.02 117.711 116.02C117.431 116.02 117.291 115.913 117.291 115.7L117.331 115.12C117.357 114.693 117.371 114.413 117.371 114.28C117.371 113.573 117.331 112.453 117.251 110.92C117.171 109.36 117.131 108.413 117.131 108.08V105.52C117.131 105.107 117.151 104.493 117.191 103.68C117.244 102.973 117.271 102.36 117.271 101.84V101.72C117.271 101.053 117.417 100.72 117.711 100.72C117.884 100.72 118.104 101.013 118.371 101.6C118.811 102.56 119.371 104.28 120.051 106.76C120.437 108.2 120.891 110.053 121.411 112.32C121.397 112.267 121.504 112.727 121.731 113.7L121.751 113.8C121.751 112.507 121.764 111.347 121.791 110.32L121.831 106.84V100.92C121.884 100.587 122.097 100.42 122.471 100.42C122.831 100.42 123.011 100.68 123.011 101.2V101.32C122.931 101.48 122.891 101.673 122.891 101.9C122.891 102.713 122.871 103.94 122.831 105.58C122.791 107.233 122.771 108.473 122.771 109.3V115.4C122.771 115.613 122.711 115.813 122.591 116C122.484 116.2 122.351 116.3 122.191 116.3ZM129.993 116.14C129.793 116.14 129.633 116.047 129.513 115.86C129.406 115.66 129.353 115.42 129.353 115.14C129.353 114.7 129.38 114.16 129.433 113.52L129.473 113L129.513 111.94C129.513 111.473 129.466 110.433 129.373 108.82C129.28 107.207 129.233 106.167 129.233 105.7C129.233 105.66 129.233 105.587 129.233 105.48C129.246 105.36 129.253 105.18 129.253 104.94C129.266 104.673 129.273 104.347 129.273 103.96C129.273 102.987 129.206 102.367 129.073 102.1C128.993 102.1 128.82 102.12 128.553 102.16L127.993 102.2C127.82 102.2 127.666 102.153 127.533 102.06C127.4 101.953 127.333 101.82 127.333 101.66C127.333 101.5 127.493 101.36 127.813 101.24C128.28 101.08 129.073 100.967 130.193 100.9C130.646 100.873 130.92 100.86 131.013 100.86C131.173 100.86 131.32 100.913 131.453 101.02C131.586 101.127 131.653 101.26 131.653 101.42C131.653 101.58 131.593 101.713 131.473 101.82C131.366 101.913 131.226 101.96 131.053 101.96L130.693 101.94C130.586 101.927 130.466 101.92 130.333 101.92H130.133C130.226 102.827 130.273 103.647 130.273 104.38L130.253 105.66C130.24 106.047 130.233 106.48 130.233 106.96C130.233 107.6 130.26 108.367 130.313 109.26C130.38 110.367 130.413 111.133 130.413 111.56C130.413 112.067 130.44 112.667 130.493 113.36C130.546 114.067 130.573 114.667 130.573 115.16C130.573 115.813 130.38 116.14 129.993 116.14ZM139.347 116.56C138.987 116.56 138.661 116.44 138.367 116.2C138.074 115.96 137.821 115.633 137.607 115.22C137.221 114.5 136.934 113.513 136.747 112.26C136.614 111.393 136.514 110.393 136.447 109.26L136.427 108.2V107.12C136.414 106.773 136.407 106.353 136.407 105.86C136.407 105.06 136.441 104.353 136.507 103.74C136.561 103.1 136.694 102.467 136.907 101.84C137.121 101.293 137.427 100.907 137.827 100.68C138.067 100.573 138.307 100.52 138.547 100.52C139.254 100.52 139.814 100.8 140.227 101.36C140.681 101.987 140.981 102.687 141.127 103.46C141.341 104.393 141.461 105.287 141.487 106.14C141.541 107.087 141.567 107.98 141.567 108.82V109.96C141.567 110.187 141.534 110.613 141.467 111.24C141.414 111.733 141.387 112.153 141.387 112.5V112.58C141.307 112.953 141.267 113.393 141.267 113.9C141.267 114.273 141.187 114.66 141.027 115.06C140.867 115.46 140.641 115.8 140.347 116.08C140.054 116.4 139.721 116.56 139.347 116.56ZM139.387 115.46C139.654 115.46 139.881 115.213 140.067 114.72C140.227 114.28 140.341 113.747 140.407 113.12C140.487 112.48 140.554 111.76 140.607 110.96C140.634 110.613 140.647 110.167 140.647 109.62L140.627 107.78C140.601 107.06 140.521 106.16 140.387 105.08C140.281 104.16 140.081 103.347 139.787 102.64C139.654 102.307 139.487 102.047 139.287 101.86C139.087 101.673 138.874 101.58 138.647 101.58C138.314 101.58 138.067 101.84 137.907 102.36C137.707 102.907 137.574 103.507 137.507 104.16C137.427 104.867 137.381 105.54 137.367 106.18L137.347 106.84C137.334 107.027 137.327 107.28 137.327 107.6V107.68C137.327 108.573 137.421 109.673 137.607 110.98C137.821 112.753 138.134 114.013 138.547 114.76C138.814 115.227 139.094 115.46 139.387 115.46ZM147.977 116.44C147.497 116.44 147.083 116.353 146.737 116.18C146.523 116.06 146.417 115.92 146.417 115.76C146.417 115.6 146.457 115.473 146.537 115.38C146.617 115.273 146.73 115.22 146.877 115.22C147.01 115.22 147.203 115.273 147.457 115.38C147.737 115.487 147.91 115.54 147.977 115.54C148.23 115.54 148.457 115.433 148.657 115.22C148.87 114.993 149.037 114.7 149.157 114.34C149.397 113.673 149.517 113.073 149.517 112.54C149.517 111.967 149.423 111.367 149.237 110.74C149.063 110.1 148.823 109.48 148.517 108.88L148.197 108.24C147.863 107.573 147.603 107.047 147.417 106.66C147.243 106.273 147.09 105.853 146.957 105.4C146.757 104.76 146.657 104.14 146.657 103.54C146.657 103.06 146.737 102.607 146.897 102.18C147.07 101.753 147.323 101.393 147.657 101.1C147.99 100.78 148.403 100.62 148.897 100.62C149.137 100.62 149.37 100.693 149.597 100.84C149.823 100.973 149.983 101.147 150.077 101.36L149.737 101.78C149.39 101.78 149.13 101.713 148.957 101.58C148.717 101.607 148.503 101.727 148.317 101.94C148.143 102.14 148.01 102.373 147.917 102.64C147.837 102.893 147.797 103.147 147.797 103.4C147.797 103.907 147.863 104.427 147.997 104.96C148.143 105.48 148.33 105.973 148.557 106.44L149.957 109.24C150.183 109.72 150.363 110.26 150.497 110.86C150.63 111.46 150.697 112.06 150.697 112.66C150.697 113.54 150.483 114.367 150.057 115.14C149.83 115.54 149.537 115.853 149.177 116.08C148.817 116.32 148.417 116.44 147.977 116.44ZM163.882 115.98C162.735 115.98 162.162 115.78 162.162 115.38C162.162 115.06 162.362 114.9 162.762 114.9H163.002C163.055 114.913 163.115 114.92 163.182 114.92C163.289 114.92 163.362 114.887 163.402 114.82C163.455 114.753 163.482 114.633 163.482 114.46C163.482 113.327 163.415 111.78 163.282 109.82C163.162 107.78 163.102 106.24 163.102 105.2C163.102 104.827 163.109 104.487 163.122 104.18L163.142 103.16C163.142 102.72 163.122 102.353 163.082 102.06C162.935 102.113 162.782 102.14 162.622 102.14C162.315 102.14 162.162 101.98 162.162 101.66C162.162 101.5 162.255 101.36 162.442 101.24C162.642 101.12 162.895 101.033 163.202 100.98C163.762 100.887 164.235 100.84 164.622 100.84C164.782 100.84 164.915 100.893 165.022 101C165.142 101.107 165.202 101.233 165.202 101.38C165.202 101.527 165.155 101.653 165.062 101.76C164.982 101.867 164.875 101.92 164.742 101.92C164.662 101.92 164.595 101.913 164.542 101.9H164.382C164.249 101.9 164.149 101.933 164.082 102C164.029 102.053 164.002 102.16 164.002 102.32C164.002 103.733 164.089 105.68 164.262 108.16C164.422 110.76 164.502 112.713 164.502 114.02V114.78C164.595 114.767 164.729 114.76 164.902 114.76C165.462 114.76 165.742 114.993 165.742 115.46V115.58L165.242 115.92C165.229 115.92 165.189 115.927 165.122 115.94C165.055 115.94 164.922 115.94 164.722 115.94C164.269 115.967 163.989 115.98 163.882 115.98ZM175.699 116.3C175.432 116.3 174.885 114.927 174.059 112.18C173.125 108.967 172.319 106.013 171.639 103.32V109.88C171.639 110.44 171.692 111.393 171.799 112.74C171.892 114.207 171.939 115.153 171.939 115.58C171.939 115.7 171.865 115.807 171.719 115.9C171.572 115.98 171.405 116.02 171.219 116.02C170.939 116.02 170.799 115.913 170.799 115.7L170.839 115.12C170.865 114.693 170.879 114.413 170.879 114.28C170.879 113.573 170.839 112.453 170.759 110.92C170.679 109.36 170.639 108.413 170.639 108.08V105.52C170.639 105.107 170.659 104.493 170.699 103.68C170.752 102.973 170.779 102.36 170.779 101.84V101.72C170.779 101.053 170.925 100.72 171.219 100.72C171.392 100.72 171.612 101.013 171.879 101.6C172.319 102.56 172.879 104.28 173.559 106.76C173.945 108.2 174.399 110.053 174.919 112.32C174.905 112.267 175.012 112.727 175.239 113.7L175.259 113.8C175.259 112.507 175.272 111.347 175.299 110.32L175.339 106.84V100.92C175.392 100.587 175.605 100.42 175.979 100.42C176.339 100.42 176.519 100.68 176.519 101.2V101.32C176.439 101.48 176.399 101.673 176.399 101.9C176.399 102.713 176.379 103.94 176.339 105.58C176.299 107.233 176.279 108.473 176.279 109.3V115.4C176.279 115.613 176.219 115.813 176.099 116C175.992 116.2 175.859 116.3 175.699 116.3ZM183.061 116.02C182.674 116.02 182.481 115.593 182.481 114.74C182.481 113.193 182.407 110.72 182.261 107.32C182.127 103.92 182.001 102.127 181.881 101.94C181.881 101.567 182.027 101.28 182.321 101.08C182.427 101.013 182.574 100.96 182.761 100.92C182.961 100.867 183.141 100.84 183.301 100.84C183.381 100.827 183.547 100.82 183.801 100.82C184.107 100.82 184.327 100.873 184.461 100.98C184.594 101.073 184.661 101.247 184.661 101.5C184.661 101.647 184.607 101.76 184.501 101.84C184.394 101.907 184.261 101.94 184.101 101.94L183.901 101.92H183.621C183.247 101.92 183.061 101.993 183.061 102.14C183.061 102.833 183.107 103.74 183.201 104.86C183.281 105.793 183.334 106.68 183.361 107.52C183.454 107.493 183.627 107.453 183.881 107.4C184.147 107.333 184.347 107.3 184.481 107.3C184.627 107.3 184.754 107.367 184.861 107.5C184.967 107.62 185.021 107.76 185.021 107.92C185.021 108.107 184.934 108.24 184.761 108.32C184.734 108.333 184.667 108.367 184.561 108.42C184.467 108.46 184.341 108.487 184.181 108.5C184.061 108.513 183.861 108.533 183.581 108.56H183.361C183.361 109.36 183.427 110.447 183.561 111.82C183.681 113.26 183.741 114.347 183.741 115.08L183.721 115.16L183.701 115.2C183.714 115.253 183.721 115.34 183.721 115.46C183.721 115.633 183.661 115.773 183.541 115.88C183.421 115.973 183.261 116.02 183.061 116.02ZM194.254 116C194.04 116 193.88 115.96 193.774 115.88C193.68 115.8 193.634 115.667 193.634 115.48V112.86C193.46 112.74 193.134 112.633 192.654 112.54C192.174 112.447 191.72 112.387 191.294 112.36C191.147 112.64 191.04 112.98 190.974 113.38L190.894 113.78C190.88 113.873 190.84 114.08 190.774 114.4C190.707 114.72 190.634 115 190.554 115.24C190.474 115.467 190.394 115.647 190.314 115.78C189.807 115.78 189.514 115.647 189.434 115.38C189.58 115.167 189.747 114.54 189.934 113.5L190.594 109.84C190.887 108.107 191.154 106.627 191.394 105.4C191.647 104.173 191.914 103.147 192.194 102.32C192.5 101.4 192.794 100.94 193.074 100.94C193.354 100.94 193.567 100.993 193.714 101.1C193.714 101.633 193.84 102.92 194.094 104.96C194.36 106.96 194.494 108.327 194.494 109.06C194.494 109.767 194.567 110.78 194.714 112.1C194.847 113.447 194.914 114.52 194.914 115.32C194.914 115.773 194.694 116 194.254 116ZM193.214 111.7C193.32 111.7 193.454 111.68 193.614 111.64C193.574 111.053 193.507 110.327 193.414 109.46C193.107 106.447 192.954 104.6 192.954 103.92V103.76C192.82 103.893 192.634 104.5 192.394 105.58C192.167 106.647 191.954 107.793 191.754 109.02C191.554 110.247 191.447 111.06 191.434 111.46C191.994 111.62 192.587 111.7 193.214 111.7ZM205.226 116.3C204.959 116.3 204.413 114.927 203.586 112.18C202.653 108.967 201.846 106.013 201.166 103.32V109.88C201.166 110.44 201.219 111.393 201.326 112.74C201.419 114.207 201.466 115.153 201.466 115.58C201.466 115.7 201.393 115.807 201.246 115.9C201.099 115.98 200.933 116.02 200.746 116.02C200.466 116.02 200.326 115.913 200.326 115.7L200.366 115.12C200.393 114.693 200.406 114.413 200.406 114.28C200.406 113.573 200.366 112.453 200.286 110.92C200.206 109.36 200.166 108.413 200.166 108.08V105.52C200.166 105.107 200.186 104.493 200.226 103.68C200.279 102.973 200.306 102.36 200.306 101.84V101.72C200.306 101.053 200.453 100.72 200.746 100.72C200.919 100.72 201.139 101.013 201.406 101.6C201.846 102.56 202.406 104.28 203.086 106.76C203.473 108.2 203.926 110.053 204.446 112.32C204.433 112.267 204.539 112.727 204.766 113.7L204.786 113.8C204.786 112.507 204.799 111.347 204.826 110.32L204.866 106.84V100.92C204.919 100.587 205.133 100.42 205.506 100.42C205.866 100.42 206.046 100.68 206.046 101.2V101.32C205.966 101.48 205.926 101.673 205.926 101.9C205.926 102.713 205.906 103.94 205.866 105.58C205.826 107.233 205.806 108.473 205.806 109.3V115.4C205.806 115.613 205.746 115.813 205.626 116C205.519 116.2 205.386 116.3 205.226 116.3ZM213.028 116.14C212.828 116.14 212.668 116.047 212.548 115.86C212.441 115.66 212.388 115.42 212.388 115.14C212.388 114.7 212.415 114.16 212.468 113.52L212.508 113L212.548 111.94C212.548 111.473 212.501 110.433 212.408 108.82C212.315 107.207 212.268 106.167 212.268 105.7C212.268 105.66 212.268 105.587 212.268 105.48C212.281 105.36 212.288 105.18 212.288 104.94C212.301 104.673 212.308 104.347 212.308 103.96C212.308 102.987 212.241 102.367 212.108 102.1C212.028 102.1 211.855 102.12 211.588 102.16L211.028 102.2C210.855 102.2 210.701 102.153 210.568 102.06C210.435 101.953 210.368 101.82 210.368 101.66C210.368 101.5 210.528 101.36 210.848 101.24C211.315 101.08 212.108 100.967 213.228 100.9C213.681 100.873 213.955 100.86 214.048 100.86C214.208 100.86 214.355 100.913 214.488 101.02C214.621 101.127 214.688 101.26 214.688 101.42C214.688 101.58 214.628 101.713 214.508 101.82C214.401 101.913 214.261 101.96 214.088 101.96L213.728 101.94C213.621 101.927 213.501 101.92 213.368 101.92H213.168C213.261 102.827 213.308 103.647 213.308 104.38L213.288 105.66C213.275 106.047 213.268 106.48 213.268 106.96C213.268 107.6 213.295 108.367 213.348 109.26C213.415 110.367 213.448 111.133 213.448 111.56C213.448 112.067 213.475 112.667 213.528 113.36C213.581 114.067 213.608 114.667 213.608 115.16C213.608 115.813 213.415 116.14 213.028 116.14ZM221.023 115.98C219.876 115.98 219.303 115.78 219.303 115.38C219.303 115.06 219.503 114.9 219.903 114.9H220.143C220.196 114.913 220.256 114.92 220.323 114.92C220.429 114.92 220.503 114.887 220.543 114.82C220.596 114.753 220.623 114.633 220.623 114.46C220.623 113.327 220.556 111.78 220.423 109.82C220.303 107.78 220.243 106.24 220.243 105.2C220.243 104.827 220.249 104.487 220.263 104.18L220.283 103.16C220.283 102.72 220.263 102.353 220.223 102.06C220.076 102.113 219.923 102.14 219.763 102.14C219.456 102.14 219.303 101.98 219.303 101.66C219.303 101.5 219.396 101.36 219.583 101.24C219.783 101.12 220.036 101.033 220.343 100.98C220.903 100.887 221.376 100.84 221.763 100.84C221.923 100.84 222.056 100.893 222.163 101C222.283 101.107 222.343 101.233 222.343 101.38C222.343 101.527 222.296 101.653 222.203 101.76C222.123 101.867 222.016 101.92 221.883 101.92C221.803 101.92 221.736 101.913 221.683 101.9H221.523C221.389 101.9 221.289 101.933 221.223 102C221.169 102.053 221.143 102.16 221.143 102.32C221.143 103.733 221.229 105.68 221.403 108.16C221.563 110.76 221.643 112.713 221.643 114.02V114.78C221.736 114.767 221.869 114.76 222.043 114.76C222.603 114.76 222.883 114.993 222.883 115.46V115.58L222.383 115.92C222.369 115.92 222.329 115.927 222.263 115.94C222.196 115.94 222.063 115.94 221.863 115.94C221.409 115.967 221.129 115.98 221.023 115.98ZM228.819 116.22C228.646 116.22 228.486 116.153 228.339 116.02C228.206 115.9 228.139 115.753 228.139 115.58C228.139 115.46 228.166 115.313 228.219 115.14C228.259 114.953 228.279 114.813 228.279 114.72C228.279 113.533 228.213 111.253 228.079 107.88C227.946 105 227.879 102.727 227.879 101.06C227.879 100.94 227.926 100.847 228.019 100.78C228.113 100.7 228.226 100.66 228.359 100.66C228.519 100.66 228.659 100.72 228.779 100.84C228.899 100.947 228.959 101.08 228.959 101.24C228.959 102.04 228.999 103.24 229.079 104.84C229.146 106.613 229.179 107.813 229.179 108.44L229.199 108.68V108.92V109.06V109.16C229.239 110.32 229.259 112.053 229.259 114.36V114.88H230.799C231.079 115.08 231.219 115.28 231.219 115.48C231.219 115.627 231.166 115.76 231.059 115.88C230.966 115.987 230.853 116.04 230.719 116.04C230.679 116.04 230.606 116.027 230.499 116L230.419 115.98C230.339 115.993 230.213 116 230.039 116H229.699C229.606 115.987 229.499 115.98 229.379 115.98C229.246 116.14 229.059 116.22 228.819 116.22ZM237.039 116.12C236.786 116.12 236.566 116.087 236.379 116.02C236.153 115.953 236.039 115.767 236.039 115.46V103.84C236.039 103.613 235.999 103.273 235.919 102.82C235.826 102.407 235.779 102.067 235.779 101.8V101.74C236.006 101.367 236.173 101.127 236.279 101.02C236.466 101.02 236.713 100.993 237.019 100.94C237.299 100.887 237.546 100.86 237.759 100.86C237.973 100.86 238.179 100.927 238.379 101.06C238.579 101.18 238.679 101.327 238.679 101.5C238.679 101.9 238.373 102.1 237.759 102.1H237.479C237.399 102.087 237.306 102.08 237.199 102.08C237.079 102.08 237.006 102.087 236.979 102.1C236.979 102.553 237.006 103.1 237.059 103.74L237.099 104.3L237.139 105.4C237.139 105.653 237.119 106.04 237.079 106.56L237.039 107.68L237.319 107.62C237.586 107.54 237.806 107.5 237.979 107.5C238.126 107.5 238.259 107.56 238.379 107.68C238.499 107.787 238.559 107.913 238.559 108.06C238.559 108.22 238.506 108.367 238.399 108.5C238.306 108.62 238.186 108.68 238.039 108.68L237.799 108.66H237.539C237.339 108.66 237.199 108.707 237.119 108.8V114.98L238.239 114.92C238.999 114.92 239.379 115.093 239.379 115.44V115.52C239.299 115.68 239.153 115.813 238.939 115.92C238.726 116.013 238.519 116.073 238.319 116.1L237.659 116.12H237.039ZM245.606 116.44C245.126 116.44 244.712 116.353 244.366 116.18C244.152 116.06 244.046 115.92 244.046 115.76C244.046 115.6 244.086 115.473 244.166 115.38C244.246 115.273 244.359 115.22 244.506 115.22C244.639 115.22 244.832 115.273 245.086 115.38C245.366 115.487 245.539 115.54 245.606 115.54C245.859 115.54 246.086 115.433 246.286 115.22C246.499 114.993 246.666 114.7 246.786 114.34C247.026 113.673 247.146 113.073 247.146 112.54C247.146 111.967 247.052 111.367 246.866 110.74C246.692 110.1 246.452 109.48 246.146 108.88L245.826 108.24C245.492 107.573 245.232 107.047 245.046 106.66C244.872 106.273 244.719 105.853 244.586 105.4C244.386 104.76 244.286 104.14 244.286 103.54C244.286 103.06 244.366 102.607 244.526 102.18C244.699 101.753 244.952 101.393 245.286 101.1C245.619 100.78 246.032 100.62 246.526 100.62C246.766 100.62 246.999 100.693 247.226 100.84C247.452 100.973 247.612 101.147 247.706 101.36L247.366 101.78C247.019 101.78 246.759 101.713 246.586 101.58C246.346 101.607 246.132 101.727 245.946 101.94C245.772 102.14 245.639 102.373 245.546 102.64C245.466 102.893 245.426 103.147 245.426 103.4C245.426 103.907 245.492 104.427 245.626 104.96C245.772 105.48 245.959 105.973 246.186 106.44L247.586 109.24C247.812 109.72 247.992 110.26 248.126 110.86C248.259 111.46 248.326 112.06 248.326 112.66C248.326 113.54 248.112 114.367 247.686 115.14C247.459 115.54 247.166 115.853 246.806 116.08C246.446 116.32 246.046 116.44 245.606 116.44Z" fill="white"/>
</svg>
