<svg width="48" height="50" viewBox="0 0 48 50" fill="none" xmlns="http://www.w3.org/2000/svg">
<path d="M44.0855 30.9785C42.6565 35.5404 39.6408 39.4395 35.5847 41.9695C31.5285 44.4995 26.7003 45.493 21.9749 44.7699C17.2494 44.0468 12.9392 41.655 9.82521 38.0279C6.71123 34.4007 4.99945 29.7782 5 24.9977C5.00055 20.2172 6.7134 15.595 9.82822 11.9686C12.943 8.34219 17.2538 5.95141 21.9794 5.22941C26.7051 4.50742 31.533 5.50198 35.5886 8.03291C39.6441 10.5638 42.659 14.4637 44.0869 19.0259L42.4606 19.5349C41.1544 15.3614 38.3964 11.7938 34.6864 9.47856C30.9764 7.16328 26.5598 6.25346 22.2368 6.91394C17.9138 7.57441 13.9703 9.7615 11.1209 13.0789C8.27148 16.3964 6.70458 20.6247 6.70407 24.9979C6.70357 29.3711 8.2695 33.5998 11.1182 36.9179C13.9668 40.236 17.9098 42.424 22.2326 43.0854C26.5555 43.7469 30.9723 42.8381 34.6828 40.5237C38.3933 38.2092 41.1521 34.6423 42.4594 30.4691L44.0855 30.9785Z" fill="white"/>
<path d="M46.531 31.8312C47.4578 32.1336 47.9701 33.1331 47.6022 34.036C45.6049 38.9407 42.0765 43.0905 37.5207 45.8507C32.4598 48.917 26.4667 50.0659 20.6308 49.0883C14.7948 48.1106 9.50328 45.0715 5.71803 40.5231C1.9328 35.9751 -0.0949307 30.2197 0.00341656 24.3032C0.101764 18.3868 2.31965 12.702 6.25396 8.28204C10.1883 3.86217 15.5779 1.00059 21.4431 0.217454C27.3083 -0.565681 33.2599 0.781602 38.2158 4.01441C42.6778 6.92476 46.066 11.1893 47.8995 16.1578C48.237 17.0724 47.6919 18.0544 46.7556 18.3258L38.5156 20.714C37.5789 20.9854 36.6112 20.439 36.2115 19.5497C35.2276 17.3588 33.6321 15.4826 31.6001 14.1571C29.0724 12.5083 26.0371 11.8212 23.0458 12.2206C20.0545 12.62 17.3058 14.0794 15.2993 16.3336C13.2927 18.5878 12.1616 21.487 12.1114 24.5045C12.0613 27.5219 13.0954 30.4572 15.0259 32.7768C16.9564 35.0964 19.6551 36.6462 22.6315 37.1451C25.6079 37.6436 28.6643 37.0579 31.2454 35.4938C33.3204 34.2367 34.9773 32.4145 36.0336 30.2576C36.4626 29.382 37.4479 28.8681 38.3747 29.1705L46.531 31.8312Z" fill="url(#paint0_linear_98_57)"/>
<path d="M24.89 30.7146C28.107 30.7146 30.7148 28.1067 30.7148 24.8898C30.7148 21.6728 28.107 19.0649 24.89 19.0649C21.673 19.0649 19.0652 21.6728 19.0652 24.8898C19.0652 28.1067 21.673 30.7146 24.89 30.7146Z" fill="url(#paint1_linear_98_57)"/>
<defs>
<linearGradient id="paint0_linear_98_57" x1="1.2357" y1="3.88362" x2="46.7799" y2="49.2513" gradientUnits="userSpaceOnUse">
<stop stop-color="white" stop-opacity="0.7"/>
<stop offset="1" stop-color="white" stop-opacity="0.14"/>
</linearGradient>
<linearGradient id="paint1_linear_98_57" x1="19.3651" y1="19.9803" x2="30.096" y2="30.9876" gradientUnits="userSpaceOnUse">
<stop stop-color="white"/>
<stop offset="1" stop-color="white" stop-opacity="0"/>
</linearGradient>
</defs>
</svg>
