<svg width="48" height="50" viewBox="0 0 48 50" fill="none" xmlns="http://www.w3.org/2000/svg">
<path d="M46.531 31.8312C47.4578 32.1336 47.9701 33.1331 47.6022 34.036C45.6049 38.9407 42.0765 43.0905 37.5207 45.8507C32.4598 48.917 26.4667 50.0659 20.6308 49.0883C14.7948 48.1106 9.50328 45.0715 5.71803 40.5231C1.9328 35.9751 -0.0949307 30.2197 0.00341656 24.3032C0.101764 18.3868 2.31965 12.702 6.25396 8.28204C10.1883 3.86217 15.5779 1.00059 21.4431 0.217454C27.3083 -0.565681 33.2599 0.781602 38.2158 4.01441C42.6778 6.92476 46.066 11.1893 47.8995 16.1578C48.237 17.0724 47.6919 18.0544 46.7556 18.3258L38.5156 20.714C37.5789 20.9854 36.6112 20.439 36.2115 19.5497C35.2276 17.3588 33.6321 15.4826 31.6001 14.1571C29.0724 12.5083 26.0371 11.8212 23.0458 12.2206C20.0545 12.62 17.3058 14.0794 15.2993 16.3336C13.2927 18.5878 12.1616 21.487 12.1114 24.5045C12.0613 27.5219 13.0954 30.4572 15.0259 32.7768C16.9564 35.0964 19.6551 36.6462 22.6315 37.1451C25.6079 37.6436 28.6643 37.0579 31.2454 35.4938C33.3204 34.2367 34.9773 32.4145 36.0336 30.2576C36.4626 29.382 37.4479 28.8681 38.3747 29.1705L46.531 31.8312Z" fill="white"/>
<path d="M24.8898 30.7146C28.1067 30.7146 30.7146 28.1067 30.7146 24.8898C30.7146 21.6728 28.1067 19.0649 24.8898 19.0649C21.6728 19.0649 19.0649 21.6728 19.0649 24.8898C19.0649 28.1067 21.6728 30.7146 24.8898 30.7146Z" fill="#FDE400"/>
</svg>
