<svg width="80" height="83" viewBox="0 0 80 83" fill="none" xmlns="http://www.w3.org/2000/svg">
<path d="M77.5517 53.052C79.0963 53.5559 79.9501 55.2218 79.337 56.7267C76.0082 64.9012 70.1275 71.8176 62.5344 76.4179C54.0996 81.5284 44.1112 83.4431 34.3846 81.8138C24.658 80.1844 15.8388 75.1192 9.53004 67.5385C3.22133 59.9584 -0.158218 50.3662 0.00569426 40.5054C0.169606 30.6446 3.86609 21.1699 10.4233 13.8034C16.9805 6.43695 25.9631 1.66765 35.7385 0.362423C45.5139 -0.942802 55.4331 1.30267 63.6931 6.69068C71.1296 11.5413 76.7767 18.6489 79.8324 26.9296C80.395 28.4541 79.4864 30.0907 77.9259 30.543L64.1926 34.5233C62.6315 34.9756 61.0187 34.0651 60.3526 32.5828C58.7127 28.9314 56.0535 25.8043 52.6668 23.5952C48.454 20.8472 43.3952 19.702 38.4097 20.3677C33.4242 21.0334 28.843 23.4657 25.4988 27.2227C22.1546 30.9796 20.2694 35.8117 20.1857 40.8408C20.1021 45.8699 21.8257 50.762 25.0432 54.628C28.2607 58.494 32.7585 61.077 37.7191 61.9085C42.6798 62.7393 47.7739 61.7631 52.0756 59.1564C55.5339 57.0611 58.2955 54.0241 60.056 50.4293C60.7709 48.97 62.4132 48.1135 63.9578 48.6175L77.5517 53.052Z" fill="white"/>
<path d="M41.4834 51.191C46.845 51.191 51.1915 46.8445 51.1915 41.4829C51.1915 36.1213 46.845 31.7749 41.4834 31.7749C36.1218 31.7749 31.7754 36.1213 31.7754 41.4829C31.7754 46.8445 36.1218 51.191 41.4834 51.191Z" fill="white"/>
</svg>
