<svg width="200" height="122" viewBox="0 0 200 122" fill="none" xmlns="http://www.w3.org/2000/svg">
<mask id="path-1-inside-1_489_38" fill="white">
<path d="M186.72 55.9125C186.034 56.065 184.662 56.065 184.662 56.065C184.662 56.065 186.492 56.2175 186.72 56.2938C186.949 56.37 187.181 56.5739 187.407 56.8275C187.638 57.087 187.769 57.2562 187.864 57.5901C188.017 58.1238 188.093 60.7165 188.093 60.7165C188.093 60.7165 188.093 58.2001 188.246 57.5901C188.334 57.2374 188.527 57.0897 188.779 56.8275C189.015 56.5827 189.169 56.4594 189.466 56.2938C189.618 56.2085 191.753 56.065 191.753 56.065C191.753 56.065 189.83 56.065 189.466 55.9125C189.183 55.7942 189.009 55.7347 188.779 55.5312C188.489 55.2735 188.278 55.0794 188.246 54.6925C188.169 53.7774 188.093 50.9561 188.093 50.9561C188.093 50.9561 188.017 53.9959 187.864 54.6925C187.784 55.057 187.677 55.2739 187.407 55.5312C187.185 55.7427 187.02 55.846 186.72 55.9125Z"/>
</mask>
<path d="M186.72 55.9125C186.034 56.065 184.662 56.065 184.662 56.065C184.662 56.065 186.492 56.2175 186.72 56.2938C186.949 56.37 187.181 56.5739 187.407 56.8275C187.638 57.087 187.769 57.2562 187.864 57.5901C188.017 58.1238 188.093 60.7165 188.093 60.7165C188.093 60.7165 188.093 58.2001 188.246 57.5901C188.334 57.2374 188.527 57.0897 188.779 56.8275C189.015 56.5827 189.169 56.4594 189.466 56.2938C189.618 56.2085 191.753 56.065 191.753 56.065C191.753 56.065 189.83 56.065 189.466 55.9125C189.183 55.7942 189.009 55.7347 188.779 55.5312C188.489 55.2735 188.278 55.0794 188.246 54.6925C188.169 53.7774 188.093 50.9561 188.093 50.9561C188.093 50.9561 188.017 53.9959 187.864 54.6925C187.784 55.057 187.677 55.2739 187.407 55.5312C187.185 55.7427 187.02 55.846 186.72 55.9125Z" fill="white"/>
<path d="M184.662 56.065V19.065L181.589 92.9372L184.662 56.065ZM186.72 55.9125L178.694 19.7936L178.694 19.7936L186.72 55.9125ZM187.407 55.5312L161.892 28.7353L161.892 28.7354L187.407 55.5312ZM187.864 54.6925L224.008 62.6061L224.008 62.6061L187.864 54.6925ZM188.093 50.9561L225.08 49.9564L151.105 50.0282L188.093 50.9561ZM188.246 54.6925L225.118 51.6198L225.118 51.6198L188.246 54.6925ZM188.779 55.5312L213.337 27.8556L213.337 27.8556L188.779 55.5312ZM189.466 55.9125L203.74 21.7769L203.74 21.7769L189.466 55.9125ZM191.753 56.065L194.235 92.9817L191.753 19.065V56.065ZM189.466 56.2938L171.412 23.997L171.412 23.997L189.466 56.2938ZM188.779 56.8275L162.098 31.1937L162.098 31.1937L188.779 56.8275ZM188.093 60.7165L151.109 61.8042L225.093 60.7165H188.093ZM187.864 57.5901L223.441 47.4254L223.441 47.4254L187.864 57.5901ZM187.407 56.8275L215.047 32.2309L215.047 32.2308L187.407 56.8275ZM186.72 56.2938L198.421 21.1925L198.421 21.1925L186.72 56.2938ZM184.662 56.065C184.662 93.065 184.664 93.065 184.666 93.065C184.666 93.065 184.668 93.065 184.67 93.065C184.672 93.065 184.675 93.065 184.678 93.065C184.684 93.065 184.689 93.065 184.695 93.065C184.707 93.065 184.719 93.065 184.731 93.065C184.756 93.0649 184.783 93.0648 184.812 93.0647C184.869 93.0645 184.934 93.0642 185.005 93.0636C185.148 93.0625 185.321 93.0606 185.519 93.0572C185.902 93.0507 186.444 93.0376 187.077 93.0095C187.465 92.9922 190.906 92.8849 194.747 92.0314L178.694 19.7936C180.696 19.3486 182.216 19.204 182.601 19.1673C183.195 19.1108 183.619 19.0901 183.791 19.0824C183.995 19.0734 184.15 19.0698 184.254 19.068C184.313 19.067 184.374 19.0663 184.438 19.0658C184.471 19.0656 184.506 19.0654 184.542 19.0652C184.561 19.0652 184.58 19.0651 184.6 19.0651C184.61 19.0651 184.62 19.065 184.63 19.065C184.635 19.065 184.64 19.065 184.646 19.065C184.648 19.065 184.651 19.065 184.654 19.065C184.655 19.065 184.657 19.065 184.658 19.065C184.66 19.065 184.662 19.065 184.662 56.065ZM194.747 92.0314C197.622 91.3926 201.383 90.2163 205.398 87.9307C209.185 85.7746 211.755 83.4379 212.921 82.3271L161.892 28.7354C162.837 27.836 165.213 25.6566 168.787 23.6218C172.589 21.4573 176.118 20.3659 178.694 19.7936L194.747 92.0314ZM212.921 82.3272C215.152 80.2025 217.966 77.0259 220.329 72.6102C222.598 68.3699 223.567 64.6194 224.008 62.6061L151.72 46.7789C152.081 45.13 152.957 41.6702 155.085 37.6939C157.306 33.5421 159.931 30.6027 161.892 28.7353L212.921 82.3272ZM224.008 62.6061C224.692 59.4821 224.86 56.5981 224.862 56.57C224.929 55.6662 224.972 54.8123 224.998 54.2268C225.027 53.5981 225.047 53.0302 225.06 52.6333C225.066 52.4296 225.071 52.2584 225.075 52.1313C225.077 52.0674 225.078 52.0141 225.079 51.9725C225.08 51.9517 225.08 51.9338 225.08 51.919C225.081 51.9116 225.081 51.905 225.081 51.8991C225.081 51.8962 225.081 51.8934 225.081 51.8909C225.081 51.8896 225.081 51.8884 225.081 51.8872C225.081 51.8867 225.081 51.8858 225.081 51.8855C225.081 51.8847 225.081 51.8839 188.093 50.9561C151.105 50.0282 151.105 50.0274 151.105 50.0267C151.105 50.0264 151.105 50.0256 151.105 50.0251C151.105 50.0242 151.105 50.0232 151.105 50.0223C151.105 50.0205 151.105 50.0189 151.105 50.0174C151.105 50.0145 151.105 50.0122 151.105 50.0106C151.105 50.0073 151.105 50.0066 151.105 50.0082C151.105 50.0115 151.105 50.0241 151.104 50.0448C151.103 50.0867 151.101 50.1583 151.098 50.2506C151.092 50.4454 151.083 50.681 151.073 50.8993C151.061 51.1608 151.057 51.1975 151.067 51.0596C151.072 50.9959 151.095 50.6902 151.145 50.2368C151.166 50.051 151.315 48.6285 151.72 46.7789L224.008 62.6061ZM188.093 50.9561C151.107 51.9557 151.107 51.956 151.107 51.9564C151.107 51.9565 151.107 51.9569 151.107 51.9571C151.107 51.9577 151.107 51.9582 151.107 51.9589C151.107 51.9601 151.107 51.9615 151.107 51.9631C151.107 51.9662 151.107 51.9701 151.107 51.9746C151.107 51.9837 151.108 51.9955 151.108 52.0099C151.109 52.0386 151.11 52.0776 151.111 52.1258C151.114 52.2221 151.118 52.3559 151.123 52.5175C151.132 52.8374 151.146 53.2827 151.163 53.771C151.183 54.3275 151.246 56.2343 151.373 57.7651L225.118 51.6198C225.169 52.2356 225.156 52.2742 225.118 51.1912C225.107 50.8598 225.097 50.5426 225.09 50.3048C225.086 50.1877 225.083 50.0939 225.082 50.0323C225.081 50.0016 225.08 49.9791 225.08 49.9661C225.08 49.9595 225.079 49.9554 225.079 49.9537C225.079 49.9529 225.079 49.9527 225.079 49.9531C225.079 49.9533 225.079 49.9537 225.079 49.9543C225.079 49.9546 225.079 49.9549 225.079 49.9552C225.079 49.9554 225.079 49.9557 225.079 49.9558C225.079 49.9561 225.08 49.9564 188.093 50.9561ZM151.373 57.7651C151.974 64.9707 154.569 71.4827 158.405 76.8018C160.039 79.0682 161.604 80.7072 162.555 81.648C163.431 82.5151 164.221 83.2057 164.222 83.2069L213.337 27.8556C212.63 27.229 215.718 29.763 218.426 33.5189C222.076 38.5797 224.549 44.8011 225.118 51.6198L151.373 57.7651ZM164.222 83.2069C166.753 85.4528 169.455 87.2613 172.232 88.6841C173.397 89.2807 174.351 89.6934 174.786 89.8785C174.865 89.9119 175.752 90.2826 175.191 90.0481L203.74 21.7769C203.667 21.7462 203.605 21.7207 203.565 21.7042C203.546 21.696 203.528 21.6889 203.518 21.6847C203.504 21.6789 203.504 21.6788 203.5 21.6772C203.476 21.6673 203.597 21.7171 203.756 21.7848C204.072 21.9191 204.915 22.2821 205.972 22.8235C208.535 24.1362 211.035 25.8132 213.337 27.8556L164.222 83.2069ZM175.191 90.0481C179.379 91.7992 182.973 92.3572 183.58 92.4584C184.888 92.6767 185.968 92.7877 186.565 92.843C187.797 92.9571 188.857 93.0018 189.407 93.0217C190.049 93.0449 190.606 93.0549 190.973 93.0596C191.167 93.0621 191.333 93.0634 191.463 93.0641C191.528 93.0645 191.586 93.0647 191.634 93.0648C191.659 93.0649 191.681 93.065 191.7 93.065C191.71 93.065 191.72 93.065 191.729 93.065C191.733 93.065 191.737 93.065 191.741 93.065C191.743 93.065 191.745 93.065 191.747 93.065C191.748 93.065 191.75 93.065 191.75 93.065C191.752 93.065 191.753 93.065 191.753 56.065C191.753 19.065 191.755 19.065 191.756 19.065C191.756 19.065 191.758 19.065 191.759 19.065C191.761 19.065 191.763 19.065 191.764 19.065C191.768 19.065 191.772 19.065 191.775 19.065C191.782 19.065 191.789 19.065 191.795 19.065C191.807 19.0651 191.819 19.0651 191.829 19.0651C191.849 19.0652 191.865 19.0652 191.877 19.0653C191.9 19.0654 191.913 19.0656 191.921 19.0657C191.928 19.0658 191.94 19.0659 191.958 19.0663C191.975 19.0667 192.018 19.0678 192.085 19.0702C192.109 19.0711 192.62 19.0871 193.389 19.1584C193.755 19.1922 194.624 19.2782 195.757 19.4673C196.189 19.5393 199.644 20.064 203.74 21.7769L175.191 90.0481ZM191.753 56.065C189.272 19.1483 189.271 19.1484 189.27 19.1484C189.27 19.1484 189.27 19.1485 189.269 19.1485C189.268 19.1486 189.267 19.1486 189.266 19.1487C189.264 19.1488 189.262 19.149 189.26 19.1491C189.255 19.1494 189.25 19.1498 189.245 19.1501C189.234 19.1509 189.22 19.1518 189.205 19.1529C189.174 19.155 189.135 19.1577 189.088 19.1609C188.995 19.1674 188.871 19.1762 188.723 19.187C188.44 19.2076 188.023 19.2391 187.563 19.2778C187.173 19.3106 186.451 19.3735 185.667 19.4635C185.328 19.5024 184.53 19.5964 183.564 19.7564C183.116 19.8306 182.138 19.9989 180.924 20.2887C180.315 20.434 179.284 20.6954 178.03 21.1035C177.071 21.4158 174.465 22.2904 171.412 23.997L207.519 88.5906C204.475 90.2918 201.883 91.161 200.941 91.4677C199.704 91.8703 198.693 92.126 198.109 92.2656C196.943 92.5439 196.026 92.7004 195.651 92.7625C194.831 92.8983 194.225 92.9672 194.107 92.9806C193.767 93.0197 193.607 93.0308 193.77 93.017C193.863 93.0092 193.989 92.9995 194.111 92.9906C194.166 92.9865 194.21 92.9835 194.234 92.9818C194.246 92.9809 194.253 92.9805 194.253 92.9804C194.254 92.9804 194.252 92.9805 194.249 92.9807C194.248 92.9808 194.246 92.981 194.243 92.9811C194.242 92.9812 194.241 92.9813 194.239 92.9814C194.239 92.9814 194.238 92.9815 194.237 92.9815C194.237 92.9816 194.236 92.9816 194.236 92.9816C194.235 92.9817 194.235 92.9817 191.753 56.065ZM171.412 23.997C167.685 26.0807 164.665 28.5217 162.098 31.1937L215.461 82.4614C214.932 83.0121 213.68 84.2802 211.879 85.6872C210.035 87.1279 208.427 88.0827 207.519 88.5906L171.412 23.997ZM162.098 31.1937C162.276 31.0083 162.412 30.871 162.418 30.8656C162.486 30.7963 162.295 30.9885 162.143 31.1443C161.816 31.4787 160.751 32.5694 159.548 34.0744C158.248 35.7016 156.75 37.8467 155.381 40.5279C154.004 43.223 153.017 45.9495 152.35 48.6163L224.141 66.5639C223.518 69.0543 222.589 71.6302 221.281 74.1901C219.98 76.7363 218.563 78.762 217.354 80.2753C216.242 81.6666 215.278 82.6491 215.061 82.871C214.964 82.9706 214.83 83.1056 214.958 82.9766C215.022 82.9116 215.22 82.7123 215.461 82.4614L162.098 31.1937ZM152.35 48.6163C151.739 51.0599 151.507 53.0652 151.436 53.6813C151.332 54.5939 151.273 55.3713 151.239 55.8747C151.172 56.8908 151.141 57.8078 151.126 58.3824C151.109 59.0127 151.101 59.5712 151.097 59.9545C151.095 60.1531 151.094 60.3216 151.094 60.4497C151.093 60.5141 151.093 60.5692 151.093 60.6139C151.093 60.6363 151.093 60.6561 151.093 60.6732C151.093 60.6818 151.093 60.6897 151.093 60.6969C151.093 60.7005 151.093 60.7039 151.093 60.7072C151.093 60.7088 151.093 60.7104 151.093 60.7119C151.093 60.7127 151.093 60.7138 151.093 60.7142C151.093 60.7153 151.093 60.7165 188.093 60.7165C225.093 60.7165 225.093 60.7175 225.093 60.7186C225.093 60.719 225.093 60.72 225.093 60.7207C225.093 60.7221 225.093 60.7235 225.093 60.7248C225.093 60.7275 225.093 60.73 225.093 60.7324C225.093 60.7372 225.093 60.7415 225.093 60.7452C225.093 60.7528 225.093 60.7584 225.093 60.7622C225.093 60.7697 225.093 60.7702 225.093 60.7646C225.093 60.7527 225.093 60.7199 225.094 60.673C225.095 60.5654 225.097 60.4567 225.099 60.3817C225.102 60.251 225.1 60.4244 225.075 60.7971C225.063 60.9789 225.029 61.4596 224.954 62.1178C224.912 62.4796 224.714 64.2727 224.141 66.5639L152.35 48.6163ZM188.093 60.7165C225.077 59.6287 225.077 59.6277 225.077 59.6268C225.077 59.6264 225.077 59.6254 225.077 59.6247C225.077 59.6234 225.077 59.622 225.077 59.6205C225.077 59.6177 225.077 59.6146 225.077 59.6114C225.076 59.6049 225.076 59.5977 225.076 59.5899C225.075 59.5742 225.075 59.5558 225.074 59.5349C225.073 59.4931 225.071 59.4407 225.069 59.379C225.065 59.2563 225.059 59.0935 225.052 58.9012C225.038 58.5295 225.016 57.9884 224.983 57.3829C224.954 56.8341 224.902 55.9542 224.816 54.9913C224.773 54.5199 224.699 53.7593 224.577 52.8645C224.512 52.3888 224.215 50.1369 223.441 47.4254L152.288 67.7547C151.551 65.1767 151.291 63.1226 151.259 62.8908C151.17 62.24 151.127 61.7695 151.113 61.6162C151.084 61.2895 151.079 61.1579 151.088 61.324C151.094 61.4334 151.1 61.5737 151.105 61.7049C151.108 61.7639 151.109 61.8078 151.11 61.829C151.11 61.8393 151.11 61.8431 151.11 61.8395C151.11 61.8377 151.11 61.8339 151.11 61.8281C151.11 61.8252 151.11 61.8218 151.109 61.8178C151.109 61.8158 151.109 61.8137 151.109 61.8114C151.109 61.8103 151.109 61.8091 151.109 61.8079C151.109 61.8073 151.109 61.8064 151.109 61.8061C151.109 61.8052 151.109 61.8042 188.093 60.7165ZM223.441 47.4254C221.086 39.1825 216.657 34.04 215.047 32.2309L159.766 81.4242C159.706 81.3566 159.266 80.865 158.722 80.1875C158.134 79.456 157.3 78.3581 156.408 76.9463C154.402 73.7712 153.101 70.6018 152.288 67.7548L223.441 47.4254ZM215.047 32.2308C214.274 31.3615 208.542 24.5661 198.421 21.1925L175.02 91.395C169.557 89.5741 165.806 86.8771 163.89 85.3375C161.853 83.7004 160.457 82.2007 159.766 81.4242L215.047 32.2308ZM198.421 21.1925C196.271 20.4759 194.522 20.1207 194.066 20.0274C193.333 19.8778 192.735 19.7782 192.391 19.7234C191.695 19.6125 191.113 19.5387 190.812 19.5018C190.164 19.4221 189.566 19.3617 189.215 19.3273C188.817 19.2883 188.457 19.2556 188.211 19.2339C188.083 19.2226 187.975 19.2133 187.894 19.2064C187.854 19.2029 187.82 19.2 187.793 19.1977C187.779 19.1966 187.768 19.1956 187.758 19.1948C187.753 19.1944 187.749 19.194 187.745 19.1937C187.743 19.1935 187.741 19.1934 187.739 19.1932C187.738 19.1932 187.737 19.1931 187.737 19.193C187.736 19.193 187.736 19.1929 187.735 19.1929C187.735 19.1929 187.734 19.1928 184.662 56.065C181.589 92.9372 181.588 92.9372 181.588 92.9371C181.588 92.9371 181.587 92.9371 181.587 92.937C181.586 92.937 181.585 92.9369 181.585 92.9369C181.583 92.9368 181.582 92.9367 181.581 92.9366C181.579 92.9364 181.577 92.9362 181.576 92.9361C181.573 92.9359 181.572 92.9358 181.572 92.9358C181.572 92.9358 181.577 92.9362 181.587 92.9371C181.607 92.9388 181.644 92.942 181.692 92.9462C181.796 92.9554 181.907 92.9656 181.995 92.9743C182.131 92.9876 182.033 92.9795 181.792 92.95C181.695 92.938 181.294 92.8887 180.741 92.8007C180.47 92.7574 179.934 92.6688 179.253 92.5298C178.849 92.4472 177.141 92.1022 175.02 91.3951L198.421 21.1925Z" fill="white" mask="url(#path-1-inside-1_489_38)"/>
<mask id="path-3-inside-2_489_38" fill="white">
<path d="M80.7875 28.5195C80.0463 28.6842 78.564 28.6842 78.564 28.6842C78.564 28.6842 80.5404 28.8489 80.7875 28.9312C81.0346 29.0136 81.2849 29.2338 81.5287 29.5077C81.778 29.7879 81.9198 29.9706 82.0228 30.3312C82.1875 30.9077 82.2699 33.7077 82.2699 33.7077C82.2699 33.7077 82.2699 30.9901 82.4346 30.3312C82.5298 29.9504 82.7391 29.7908 83.011 29.5077C83.2651 29.2433 83.4321 29.1102 83.7522 28.9312C83.9169 28.8392 86.2228 28.6842 86.2228 28.6842C86.2228 28.6842 84.1461 28.6842 83.7522 28.5195C83.4467 28.3917 83.2587 28.3275 83.011 28.1077C82.6974 27.8294 82.4694 27.6197 82.4346 27.2018C82.3522 26.2136 82.2699 23.1665 82.2699 23.1665C82.2699 23.1665 82.1875 26.4496 82.0228 27.2018C81.9366 27.5955 81.8205 27.8298 81.5287 28.1077C81.2889 28.336 81.1107 28.4476 80.7875 28.5195Z"/>
</mask>
<path d="M80.7875 28.5195C80.0463 28.6842 78.564 28.6842 78.564 28.6842C78.564 28.6842 80.5404 28.8489 80.7875 28.9312C81.0346 29.0136 81.2849 29.2338 81.5287 29.5077C81.778 29.7879 81.9198 29.9706 82.0228 30.3312C82.1875 30.9077 82.2699 33.7077 82.2699 33.7077C82.2699 33.7077 82.2699 30.9901 82.4346 30.3312C82.5298 29.9504 82.7391 29.7908 83.011 29.5077C83.2651 29.2433 83.4321 29.1102 83.7522 28.9312C83.9169 28.8392 86.2228 28.6842 86.2228 28.6842C86.2228 28.6842 84.1461 28.6842 83.7522 28.5195C83.4467 28.3917 83.2587 28.3275 83.011 28.1077C82.6974 27.8294 82.4694 27.6197 82.4346 27.2018C82.3522 26.2136 82.2699 23.1665 82.2699 23.1665C82.2699 23.1665 82.1875 26.4496 82.0228 27.2018C81.9366 27.5955 81.8205 27.8298 81.5287 28.1077C81.2889 28.336 81.1107 28.4476 80.7875 28.5195Z" fill="white"/>
<path d="M78.564 28.6842V-8.31582L75.4913 65.5564L78.564 28.6842ZM80.7875 28.5195L88.8139 64.6384L88.814 64.6384L80.7875 28.5195ZM81.5287 28.1077L107.043 54.9036L107.043 54.9036L81.5287 28.1077ZM82.0228 27.2018L45.879 19.2882L45.879 19.2882L82.0228 27.2018ZM82.2699 23.1665L119.256 22.1669L45.2815 22.2387L82.2699 23.1665ZM82.4346 27.2018L119.307 24.1292L119.307 24.1291L82.4346 27.2018ZM83.011 28.1077L58.4538 55.7833L58.4538 55.7834L83.011 28.1077ZM83.7522 28.5195L69.4777 62.6551L69.4778 62.6551L83.7522 28.5195ZM86.2228 28.6842L88.7042 65.6009L86.2228 -8.31582V28.6842ZM83.7522 28.9312L101.805 61.228L101.805 61.228L83.7522 28.9312ZM83.011 29.5077L56.3295 3.87385L56.3295 3.87385L83.011 29.5077ZM82.4346 30.3312L118.33 39.3051L118.33 39.305L82.4346 30.3312ZM82.2699 33.7077L45.2859 34.7955L119.27 33.7077H82.2699ZM82.0228 30.3312L46.4464 40.4959L46.4464 40.4959L82.0228 30.3312ZM81.5287 29.5077L53.8881 54.1044L53.8881 54.1044L81.5287 29.5077ZM80.7875 28.9312L92.488 -6.17003L92.4879 -6.17005L80.7875 28.9312ZM78.564 28.6842C78.564 65.6842 78.566 65.6842 78.568 65.6842C78.5687 65.6842 78.5707 65.6842 78.5721 65.6842C78.5748 65.6842 78.5776 65.6842 78.5804 65.6842C78.586 65.6842 78.5917 65.6842 78.5975 65.6842C78.6092 65.6842 78.6214 65.6841 78.634 65.6841C78.6593 65.6841 78.6865 65.684 78.7156 65.6839C78.7737 65.6837 78.8396 65.6833 78.9126 65.6828C79.0579 65.6817 79.2357 65.6797 79.4396 65.6762C79.8337 65.6695 80.3905 65.656 81.0406 65.6271C81.4633 65.6083 84.9461 65.4979 88.8139 64.6384L72.7611 -7.59945C74.7497 -8.04137 76.2525 -8.18369 76.6195 -8.21864C77.1948 -8.27343 77.6007 -8.29306 77.755 -8.29992C77.9419 -8.30822 78.0817 -8.3114 78.1748 -8.31299C78.2281 -8.3139 78.2843 -8.31458 78.3456 -8.31505C78.3766 -8.31529 78.41 -8.31548 78.446 -8.31561C78.464 -8.31568 78.4828 -8.31573 78.5025 -8.31577C78.5123 -8.31578 78.5223 -8.3158 78.5325 -8.31581C78.5377 -8.31581 78.5428 -8.31581 78.5481 -8.31582C78.5507 -8.31582 78.5533 -8.31582 78.556 -8.31582C78.5573 -8.31582 78.5593 -8.31582 78.56 -8.31582C78.562 -8.31582 78.564 -8.31582 78.564 28.6842ZM88.814 64.6384C91.7008 63.9969 95.4716 62.8172 99.4949 60.5267C103.291 58.3659 105.868 56.0228 107.043 54.9036L56.0144 1.3118C56.95 0.420916 59.3181 -1.75214 62.8839 -3.78215C66.6773 -5.94177 70.1974 -7.02975 72.761 -7.59944L88.814 64.6384ZM107.043 54.9036C109.285 52.7686 112.106 49.5826 114.475 45.1563C116.75 40.9055 117.723 37.1433 118.167 35.1154L45.879 19.2882C46.2368 17.6539 47.1083 14.2058 49.2306 10.2401C51.4468 6.09881 54.064 3.16888 56.0144 1.31182L107.043 54.9036ZM118.167 35.1154C118.854 31.9775 119.024 29.0679 119.028 29.0091C119.098 28.0747 119.143 27.1852 119.171 26.5658C119.201 25.9032 119.222 25.3032 119.235 24.8826C119.242 24.6671 119.248 24.4861 119.251 24.3523C119.253 24.2851 119.255 24.229 119.256 24.1857C119.256 24.164 119.257 24.1454 119.257 24.1302C119.258 24.1225 119.258 24.1157 119.258 24.1097C119.258 24.1067 119.258 24.104 119.258 24.1014C119.258 24.1001 119.258 24.0989 119.258 24.0977C119.258 24.0971 119.258 24.0963 119.258 24.096C119.258 24.0952 119.258 24.0943 82.2699 23.1665C45.2815 22.2387 45.2815 22.2379 45.2815 22.2371C45.2815 22.2369 45.2816 22.2361 45.2816 22.2356C45.2816 22.2346 45.2816 22.2337 45.2816 22.2328C45.2817 22.231 45.2817 22.2295 45.2818 22.228C45.2818 22.2252 45.2819 22.2231 45.2819 22.2217C45.282 22.2189 45.282 22.2189 45.2819 22.2214C45.2818 22.2265 45.2814 22.2418 45.2807 22.2658C45.2793 22.3144 45.277 22.3958 45.2736 22.4999C45.2666 22.7183 45.2569 22.9861 45.2455 23.2383C45.2322 23.5337 45.2256 23.606 45.2336 23.4987C45.2372 23.4503 45.2589 23.1588 45.308 22.7173C45.3274 22.5435 45.4756 21.1309 45.879 19.2882L118.167 35.1154ZM82.2699 23.1665C45.2834 24.1661 45.2834 24.1665 45.2834 24.1668C45.2834 24.167 45.2834 24.1673 45.2834 24.1676C45.2834 24.1681 45.2834 24.1687 45.2835 24.1693C45.2835 24.1706 45.2835 24.1721 45.2836 24.1737C45.2837 24.177 45.2838 24.181 45.2839 24.1857C45.2842 24.1952 45.2845 24.2077 45.2849 24.2229C45.2858 24.2532 45.2869 24.2947 45.2884 24.3461C45.2913 24.4487 45.2954 24.5916 45.3006 24.7644C45.3108 25.1066 45.3257 25.5824 45.3438 26.1035C45.3655 26.7255 45.4318 28.707 45.5624 30.2745L119.307 24.1291C119.355 24.7084 119.339 24.6722 119.299 23.5237C119.286 23.1594 119.275 22.8117 119.267 22.5517C119.264 22.4234 119.261 22.3205 119.259 22.2526C119.258 22.2187 119.257 22.1938 119.257 22.1791C119.256 22.1717 119.256 22.1669 119.256 22.1648C119.256 22.1638 119.256 22.1634 119.256 22.1637C119.256 22.1639 119.256 22.1643 119.256 22.1648C119.256 22.165 119.256 22.1653 119.256 22.1657C119.256 22.1659 119.256 22.1662 119.256 22.1662C119.256 22.1666 119.256 22.1669 82.2699 23.1665ZM45.5624 30.2745C46.1641 37.4956 48.7643 44.0191 52.6074 49.3485C54.2455 51.6201 55.8147 53.2639 56.7705 54.2096C57.6518 55.0816 58.4467 55.777 58.4538 55.7833L107.568 0.432085C106.851 -0.204842 109.928 2.32011 112.629 6.06568C116.271 11.1162 118.74 17.326 119.307 24.1292L45.5624 30.2745ZM58.4538 55.7834C60.9941 58.0374 63.704 59.8511 66.49 61.2784C67.6587 61.8771 68.6176 62.2919 69.0575 62.479C69.1408 62.5145 70.0328 62.8872 69.4777 62.6551L98.0267 -5.61612C97.9519 -5.64742 97.8889 -5.67352 97.8479 -5.69051C97.8274 -5.69898 97.8095 -5.70637 97.7986 -5.71091C97.784 -5.71691 97.7831 -5.71731 97.7786 -5.71914C97.7521 -5.7301 97.8706 -5.68133 98.0272 -5.61472C98.3382 -5.48242 99.1773 -5.12143 100.23 -4.58221C102.784 -3.27395 105.276 -1.60221 107.568 0.432063L58.4538 55.7834ZM69.4778 62.6551C73.6689 64.4077 77.2689 64.967 77.8826 65.0694C79.1979 65.2888 80.2859 65.4009 80.8922 65.457C82.1429 65.5729 83.2246 65.6186 83.7959 65.6393C84.4587 65.6633 85.0359 65.6737 85.4181 65.6786C85.6194 65.6811 85.7919 65.6825 85.926 65.6833C85.9936 65.6837 86.0527 65.6839 86.1022 65.684C86.127 65.6841 86.1496 65.6841 86.1697 65.6841C86.1797 65.6842 86.1892 65.6842 86.1981 65.6842C86.2025 65.6842 86.2068 65.6842 86.2109 65.6842C86.213 65.6842 86.215 65.6842 86.217 65.6842C86.218 65.6842 86.2194 65.6842 86.2199 65.6842C86.2214 65.6842 86.2228 65.6842 86.2228 28.6842C86.2228 -8.31582 86.2243 -8.31582 86.2257 -8.31582C86.2261 -8.31582 86.2276 -8.31582 86.2285 -8.31582C86.2303 -8.31582 86.2322 -8.31582 86.234 -8.31582C86.2376 -8.31582 86.2411 -8.31581 86.2446 -8.31581C86.2514 -8.31581 86.2579 -8.3158 86.264 -8.31579C86.2763 -8.31578 86.2871 -8.31576 86.2966 -8.31573C86.3155 -8.31568 86.3296 -8.31562 86.3396 -8.31556C86.3586 -8.31546 86.3659 -8.31536 86.3662 -8.31536C86.3668 -8.31535 86.3674 -8.31534 86.3684 -8.31532C86.3693 -8.31531 86.3723 -8.31525 86.3777 -8.31513C86.3849 -8.31497 86.4177 -8.31422 86.4745 -8.31216C86.4775 -8.31205 86.9662 -8.29714 87.7167 -8.22763C88.0729 -8.19463 88.934 -8.10963 90.0603 -7.92172C90.4851 -7.85085 93.9341 -7.32755 98.0267 -5.61613L69.4778 62.6551ZM86.2228 28.6842C83.7414 -8.23252 83.7408 -8.23248 83.7401 -8.23243C83.7399 -8.23242 83.7393 -8.23237 83.7388 -8.23234C83.7379 -8.23228 83.7369 -8.23222 83.7359 -8.23215C83.734 -8.23201 83.7318 -8.23187 83.7295 -8.23172C83.725 -8.23141 83.7198 -8.23106 83.714 -8.23067C83.7025 -8.22989 83.6887 -8.22894 83.6726 -8.22785C83.6405 -8.22565 83.5993 -8.22282 83.5503 -8.2194C83.4528 -8.2126 83.3214 -8.2033 83.1661 -8.19197C82.8671 -8.17014 82.4274 -8.13697 81.9459 -8.09643C81.5338 -8.06174 80.7892 -7.99678 79.9877 -7.90475C79.64 -7.86484 78.834 -7.7698 77.8619 -7.60887C77.411 -7.5342 76.4303 -7.36542 75.2145 -7.07513C74.6051 -6.92962 73.5727 -6.66797 72.3186 -6.25963C71.3588 -5.94714 68.7524 -5.0723 65.699 -3.36554L101.805 61.228C98.7624 62.929 96.1704 63.798 95.2291 64.1045C93.9933 64.5068 92.9832 64.7624 92.3997 64.9017C91.2358 65.1796 90.3216 65.3356 89.9494 65.3972C89.135 65.5321 88.5361 65.5999 88.4278 65.6123C88.1049 65.6494 87.9678 65.6584 88.1527 65.6428C88.2682 65.6331 88.4154 65.6217 88.5538 65.6116C88.6173 65.607 88.6673 65.6035 88.6965 65.6014C88.7109 65.6004 88.7194 65.5999 88.7212 65.5997C88.7221 65.5997 88.7212 65.5997 88.7184 65.5999C88.717 65.6 88.7151 65.6001 88.7128 65.6003C88.7116 65.6004 88.7103 65.6005 88.7089 65.6006C88.7082 65.6006 88.7074 65.6007 88.7066 65.6007C88.7063 65.6007 88.7056 65.6008 88.7054 65.6008C88.7048 65.6008 88.7042 65.6009 86.2228 28.6842ZM65.699 -3.36554C61.9476 -1.26858 58.9154 1.18229 56.3295 3.87385L109.693 55.1416C109.173 55.6825 107.929 56.9432 106.137 58.3436C104.301 59.7777 102.702 60.7268 101.805 61.228L65.699 -3.36554ZM56.3295 3.87385C56.5051 3.69109 56.6391 3.55628 56.6421 3.55325C56.7085 3.48632 56.515 3.68083 56.3605 3.83891C56.0292 4.17779 54.9603 5.27275 53.7538 6.78238C52.4496 8.41407 50.9487 10.564 49.5764 13.2506C48.197 15.9511 47.2077 18.6837 46.5393 21.3575L118.33 39.305C117.709 41.7884 116.782 44.3582 115.477 46.9128C114.179 49.4535 112.765 51.4745 111.559 52.9833C110.451 54.37 109.491 55.3482 109.279 55.5656C109.184 55.663 109.052 55.7956 109.182 55.6643C109.249 55.5968 109.449 55.3951 109.693 55.1416L56.3295 3.87385ZM46.5393 21.3574C45.5812 25.1898 45.4224 28.6586 45.4213 28.6756C45.3518 29.7174 45.3203 30.6641 45.304 31.2669C45.2862 31.9254 45.2781 32.5106 45.2742 32.9136C45.2722 33.1219 45.2711 33.2985 45.2705 33.4322C45.2702 33.4994 45.2701 33.5568 45.27 33.6029C45.2699 33.626 45.2699 33.6464 45.2699 33.6639C45.2699 33.6726 45.2699 33.6807 45.2699 33.688C45.2699 33.6917 45.2699 33.6951 45.2699 33.6984C45.2699 33.7001 45.2699 33.7017 45.2699 33.7032C45.2699 33.704 45.2699 33.7051 45.2699 33.7055C45.2699 33.7066 45.2699 33.7077 82.2699 33.7077C119.27 33.7077 119.27 33.7088 119.27 33.7099C119.27 33.7102 119.27 33.7113 119.27 33.712C119.27 33.7134 119.27 33.7147 119.27 33.7161C119.27 33.7187 119.27 33.7212 119.27 33.7235C119.27 33.7282 119.27 33.7324 119.27 33.7359C119.27 33.7431 119.27 33.7482 119.27 33.7512C119.27 33.7572 119.27 33.7555 119.27 33.7471C119.27 33.7296 119.27 33.6887 119.271 33.632C119.272 33.5048 119.274 33.3695 119.277 33.2662C119.281 33.1073 119.281 33.251 119.257 33.598C119.246 33.7669 119.213 34.2357 119.139 34.8837C119.099 35.2353 118.901 37.02 118.33 39.3051L46.5393 21.3574ZM82.2699 33.7077C119.254 32.62 119.254 32.619 119.254 32.618C119.254 32.6177 119.254 32.6167 119.254 32.616C119.254 32.6147 119.254 32.6132 119.254 32.6118C119.254 32.6089 119.253 32.6058 119.253 32.6025C119.253 32.5959 119.253 32.5886 119.253 32.5806C119.252 32.5645 119.252 32.5456 119.251 32.5238C119.25 32.4805 119.248 32.4258 119.246 32.3613C119.241 32.2329 119.236 32.0618 119.228 31.8594C119.213 31.4676 119.189 30.8992 119.156 30.2651C119.125 29.6877 119.071 28.778 118.982 27.7895C118.939 27.3054 118.863 26.5332 118.74 25.6287C118.673 25.1432 118.375 22.8834 117.599 20.1666L46.4464 40.4959C45.7114 37.9232 45.4523 35.877 45.4219 35.655C45.3342 35.014 45.2921 34.555 45.2795 34.4145C45.2524 34.1132 45.2502 34.0116 45.2606 34.2062C45.268 34.3442 45.2753 34.5118 45.281 34.6631C45.2836 34.7322 45.2854 34.7844 45.2863 34.8113C45.2867 34.8245 45.2869 34.8305 45.2868 34.8285C45.2868 34.8274 45.2867 34.8242 45.2866 34.8188C45.2865 34.8161 45.2864 34.8128 45.2863 34.8089C45.2862 34.807 45.2861 34.8049 45.2861 34.8027C45.286 34.8015 45.286 34.8004 45.286 34.7992C45.2859 34.7986 45.2859 34.7977 45.2859 34.7974C45.2859 34.7964 45.2859 34.7955 82.2699 33.7077ZM117.599 20.1666C115.236 11.897 110.798 6.74091 109.169 4.91102L53.8881 54.1044C53.8325 54.042 53.3971 53.5551 52.8563 52.8822C52.272 52.1553 51.4416 51.0619 50.5524 49.6547C48.5519 46.489 47.256 43.3296 46.4464 40.4959L117.599 20.1666ZM109.169 4.91103C108.378 4.02142 102.627 -2.79034 92.488 -6.17003L69.087 64.0325C63.6334 62.2146 59.8918 59.5232 57.9848 57.991C55.9564 56.3613 54.57 54.8707 53.8881 54.1044L109.169 4.91103ZM92.4879 -6.17005C90.3369 -6.88706 88.5865 -7.24262 88.128 -7.3363C87.3936 -7.48634 86.7924 -7.5864 86.446 -7.64162C85.7441 -7.75352 85.1551 -7.82823 84.8458 -7.86621C84.1812 -7.94783 83.5629 -8.01038 83.1932 -8.04663C82.7755 -8.08758 82.3962 -8.12195 82.136 -8.14495C82.0014 -8.15686 81.8876 -8.1667 81.803 -8.17393C81.7605 -8.17757 81.7248 -8.1806 81.6969 -8.18296C81.6829 -8.18414 81.6708 -8.18515 81.6607 -8.186C81.6557 -8.18642 81.6512 -8.1868 81.6472 -8.18713C81.6451 -8.1873 81.6433 -8.18746 81.6415 -8.18761C81.6406 -8.18768 81.6398 -8.18775 81.639 -8.18782C81.6386 -8.18785 81.638 -8.1879 81.6378 -8.18792C81.6372 -8.18796 81.6366 -8.18801 78.564 28.6842C75.4913 65.5564 75.4907 65.5563 75.4902 65.5563C75.49 65.5563 75.4895 65.5562 75.4891 65.5562C75.4884 65.5561 75.4878 65.5561 75.4871 65.556C75.4859 65.5559 75.4847 65.5558 75.4836 65.5557C75.4815 65.5556 75.4798 65.5554 75.4785 65.5553C75.476 65.5551 75.475 65.555 75.4756 65.5551C75.4767 65.5552 75.4837 65.5557 75.4957 65.5568C75.5202 65.5589 75.5627 65.5625 75.6173 65.5674C75.7354 65.5778 75.8657 65.5898 75.9729 65.6003C76.1282 65.6155 76.0504 65.6096 75.8259 65.582C75.7366 65.571 75.3426 65.5227 74.796 65.4356C74.5273 65.3927 73.994 65.3047 73.3157 65.1661C72.9132 65.0839 71.2072 64.7392 69.0871 64.0325L92.4879 -6.17005Z" fill="white" mask="url(#path-3-inside-2_489_38)"/>
<mask id="path-5-inside-3_489_38" fill="white">
<path d="M2.22354 61.1459C1.48236 61.3106 0 61.3106 0 61.3106C0 61.3106 1.97648 61.4754 2.22354 61.5577C2.4706 61.6401 2.72095 61.8602 2.96472 62.1342C3.21405 62.4144 3.3558 62.5971 3.45884 62.9577C3.62355 63.5342 3.7059 66.3342 3.7059 66.3342C3.7059 66.3342 3.7059 63.6165 3.87061 62.9577C3.96582 62.5769 4.1751 62.4173 4.44708 62.1342C4.70113 61.8698 4.86818 61.7366 5.18826 61.5577C5.35297 61.4656 7.65886 61.3106 7.65886 61.3106C7.65886 61.3106 5.58214 61.3106 5.18826 61.1459C4.88278 61.0182 4.69475 60.9539 4.44708 60.7342C4.13343 60.4559 3.90543 60.2462 3.87061 59.8283C3.78825 58.84 3.7059 55.793 3.7059 55.793C3.7059 55.793 3.62355 59.076 3.45884 59.8283C3.37265 60.2219 3.25656 60.4563 2.96472 60.7342C2.72492 60.9625 2.54677 61.0741 2.22354 61.1459Z"/>
</mask>
<path d="M2.22354 61.1459C1.48236 61.3106 0 61.3106 0 61.3106C0 61.3106 1.97648 61.4754 2.22354 61.5577C2.4706 61.6401 2.72095 61.8602 2.96472 62.1342C3.21405 62.4144 3.3558 62.5971 3.45884 62.9577C3.62355 63.5342 3.7059 66.3342 3.7059 66.3342C3.7059 66.3342 3.7059 63.6165 3.87061 62.9577C3.96582 62.5769 4.1751 62.4173 4.44708 62.1342C4.70113 61.8698 4.86818 61.7366 5.18826 61.5577C5.35297 61.4656 7.65886 61.3106 7.65886 61.3106C7.65886 61.3106 5.58214 61.3106 5.18826 61.1459C4.88278 61.0182 4.69475 60.9539 4.44708 60.7342C4.13343 60.4559 3.90543 60.2462 3.87061 59.8283C3.78825 58.84 3.7059 55.793 3.7059 55.793C3.7059 55.793 3.62355 59.076 3.45884 59.8283C3.37265 60.2219 3.25656 60.4563 2.96472 60.7342C2.72492 60.9625 2.54677 61.0741 2.22354 61.1459Z" fill="white"/>
<path d="M0 61.3106V24.3106L-3.07268 98.1828L0 61.3106ZM2.22354 61.1459L10.25 97.2649L10.25 97.2649L2.22354 61.1459ZM2.96472 60.7342L28.479 87.5301L28.479 87.5301L2.96472 60.7342ZM3.45884 59.8283L-32.685 51.9147L-32.685 51.9147L3.45884 59.8283ZM3.7059 55.793L40.6924 54.7933L-33.2825 54.8651L3.7059 55.793ZM3.87061 59.8283L40.7428 56.7556L40.7428 56.7556L3.87061 59.8283ZM4.44708 60.7342L-20.1102 88.4098L-20.1102 88.4098L4.44708 60.7342ZM5.18826 61.1459L-9.08623 95.2815L-9.0862 95.2815L5.18826 61.1459ZM7.65886 61.3106L10.1402 98.2273L7.65886 24.3106V61.3106ZM5.18826 61.5577L23.2415 93.8545L23.2415 93.8545L5.18826 61.5577ZM4.44708 62.1342L-22.2345 36.5003L-22.2345 36.5003L4.44708 62.1342ZM3.87061 62.9577L39.7659 71.9315L39.7659 71.9315L3.87061 62.9577ZM3.7059 66.3342L-33.2781 67.422L40.7059 66.3342H3.7059ZM3.45884 62.9577L-32.1175 73.1224L-32.1175 73.1224L3.45884 62.9577ZM2.96472 62.1342L-24.6759 86.7309L-24.6759 86.7309L2.96472 62.1342ZM2.22354 61.5577L13.924 26.4564L13.9239 26.4564L2.22354 61.5577ZM0 61.3106C0 98.3106 0.00201598 98.3106 0.00403759 98.3106C0.00472031 98.3106 0.00675347 98.3106 0.00812083 98.3106C0.0108582 98.3106 0.013626 98.3106 0.016424 98.3106C0.0220201 98.3106 0.0277379 98.3106 0.0335761 98.3106C0.0452517 98.3106 0.0574142 98.3106 0.0700527 98.3106C0.095322 98.3105 0.12254 98.3105 0.151618 98.3104C0.209702 98.3101 0.275627 98.3098 0.348659 98.3092C0.493918 98.3081 0.671701 98.3062 0.875586 98.3027C1.26975 98.2959 1.82651 98.2825 2.47665 98.2536C2.89934 98.2348 6.38209 98.1244 10.25 97.2649L-5.80289 25.027C-3.81424 24.5851 -2.3115 24.4428 -1.94451 24.4078C-1.36918 24.353 -0.963301 24.3334 -0.808995 24.3265C-0.622094 24.3182 -0.482245 24.3151 -0.389187 24.3135C-0.335853 24.3126 -0.27967 24.3119 -0.218374 24.3114C-0.187322 24.3112 -0.153969 24.311 -0.117961 24.3109C-0.0999209 24.3108 -0.0811173 24.3107 -0.0615027 24.3107C-0.0516915 24.3107 -0.0416666 24.3107 -0.0314217 24.3107C-0.0262988 24.3107 -0.0211196 24.3107 -0.0158833 24.3106C-0.0132651 24.3106 -0.0106325 24.3106 -0.00798538 24.3106C-0.00666312 24.3106 -0.00466383 24.3106 -0.0040037 24.3106C-0.00200467 24.3106 0 24.3106 0 61.3106ZM10.25 97.2649C13.1368 96.6233 16.9077 95.4436 20.9309 93.1532C24.7266 90.9923 27.3036 88.6493 28.479 87.5301L-22.5496 33.9383C-21.6139 33.0474 -19.2459 30.8743 -15.6801 28.8443C-11.8867 26.6847 -8.36652 25.5967 -5.80292 25.027L10.25 97.2649ZM28.479 87.5301C30.7212 85.3951 33.5424 82.2091 35.9112 77.7828C38.1861 73.5319 39.1586 69.7698 39.6026 67.7419L-32.685 51.9147C-32.3271 50.2804 -31.4557 46.8323 -29.3334 42.8665C-27.1172 38.7253 -24.4999 35.7953 -22.5496 33.9383L28.479 87.5301ZM39.6026 67.7419C40.2897 64.604 40.4598 61.6944 40.4642 61.6356C40.534 60.7012 40.5788 59.8117 40.6067 59.1923C40.6365 58.5297 40.6577 57.9297 40.6713 57.5091C40.6782 57.2936 40.6836 57.1126 40.6873 56.9787C40.6892 56.9115 40.6907 56.8555 40.6919 56.8122C40.6925 56.7905 40.693 56.7719 40.6934 56.7566C40.6935 56.749 40.6937 56.7422 40.6939 56.7362C40.694 56.7332 40.694 56.7304 40.6941 56.7279C40.6941 56.7266 40.6942 56.7253 40.6942 56.7242C40.6942 56.7236 40.6942 56.7227 40.6942 56.7224C40.6942 56.7216 40.6943 56.7208 3.7059 55.793C-33.2825 54.8651 -33.2824 54.8643 -33.2824 54.8636C-33.2824 54.8633 -33.2824 54.8626 -33.2824 54.8621C-33.2824 54.8611 -33.2823 54.8602 -33.2823 54.8593C-33.2823 54.8575 -33.2822 54.8559 -33.2822 54.8545C-33.2821 54.8517 -33.2821 54.8496 -33.282 54.8482C-33.282 54.8454 -33.282 54.8453 -33.282 54.8479C-33.2822 54.853 -33.2826 54.8682 -33.2832 54.8923C-33.2846 54.9409 -33.287 55.0223 -33.2904 55.1263C-33.2974 55.3448 -33.3071 55.6126 -33.3184 55.8648C-33.3317 56.1602 -33.3384 56.2325 -33.3303 56.1252C-33.3267 56.0768 -33.3051 55.7852 -33.2559 55.3438C-33.2366 55.17 -33.0884 53.7573 -32.685 51.9147L39.6026 67.7419ZM3.7059 55.793C-33.2806 56.7926 -33.2806 56.7929 -33.2806 56.7933C-33.2806 56.7934 -33.2806 56.7938 -33.2806 56.7941C-33.2805 56.7946 -33.2805 56.7952 -33.2805 56.7958C-33.2805 56.7971 -33.2804 56.7985 -33.2804 56.8002C-33.2803 56.8034 -33.2802 56.8075 -33.2801 56.8122C-33.2798 56.8217 -33.2795 56.8341 -33.279 56.8493C-33.2782 56.8797 -33.277 56.9212 -33.2756 56.9726C-33.2727 57.0751 -33.2686 57.2181 -33.2634 57.3909C-33.2532 57.7331 -33.2383 58.2089 -33.2201 58.7299C-33.1984 59.352 -33.1322 61.3335 -33.0016 62.901L40.7428 56.7556C40.7911 57.3348 40.7749 57.2987 40.7349 56.1501C40.7222 55.7859 40.7113 55.4382 40.7035 55.1782C40.6997 55.0499 40.6967 54.947 40.6948 54.8791C40.6938 54.8452 40.6931 54.8203 40.6927 54.8055C40.6925 54.7982 40.6924 54.7934 40.6923 54.7913C40.6923 54.7902 40.6923 54.7899 40.6923 54.7902C40.6923 54.7904 40.6923 54.7907 40.6923 54.7912C40.6923 54.7915 40.6924 54.7918 40.6924 54.7922C40.6924 54.7923 40.6924 54.7926 40.6924 54.7927C40.6924 54.793 40.6924 54.7933 3.7059 55.793ZM-33.0016 62.901C-32.3998 70.122 -29.7997 76.6456 -25.9565 81.975C-24.3184 84.2466 -22.7493 85.8904 -21.7935 86.836C-20.9122 87.708 -20.1173 88.4035 -20.1102 88.4098L29.0044 33.0585C28.2866 32.4216 31.3641 34.9466 34.0651 38.6921C37.7071 43.7426 40.1759 49.9524 40.7428 56.7556L-33.0016 62.901ZM-20.1102 88.4098C-17.5699 90.6639 -14.86 92.4776 -12.0739 93.9049C-10.9052 94.5036 -9.94633 94.9183 -9.50643 95.1055C-9.42314 95.1409 -8.53118 95.5136 -9.08623 95.2815L19.4627 27.0103C19.3879 26.979 19.325 26.9529 19.2839 26.936C19.2635 26.9275 19.2456 26.9201 19.2346 26.9156C19.2201 26.9096 19.2191 26.9092 19.2147 26.9073C19.1882 26.8964 19.3067 26.9451 19.4632 27.0117C19.7742 27.144 20.6134 27.505 21.6659 28.0443C24.2197 29.3525 26.7117 31.0243 29.0043 33.0585L-20.1102 88.4098ZM-9.0862 95.2815C-4.8951 97.0341 -1.29507 97.5935 -0.681341 97.6959C0.633894 97.9153 1.7219 98.0273 2.32822 98.0835C3.57889 98.1993 4.66059 98.2451 5.23198 98.2658C5.89469 98.2898 6.47195 98.3001 6.85416 98.305C7.05539 98.3076 7.22796 98.309 7.36206 98.3097C7.42959 98.3101 7.48869 98.3103 7.53824 98.3105C7.56305 98.3105 7.58559 98.3106 7.60571 98.3106C7.61577 98.3106 7.62524 98.3106 7.6341 98.3106C7.63853 98.3106 7.64281 98.3106 7.64694 98.3106C7.649 98.3106 7.65103 98.3106 7.65301 98.3106C7.65401 98.3106 7.65547 98.3106 7.65597 98.3106C7.65742 98.3106 7.65886 98.3106 7.65886 61.3106C7.65886 24.3106 7.66029 24.3106 7.66171 24.3106C7.66217 24.3106 7.66359 24.3106 7.66452 24.3106C7.66638 24.3106 7.66822 24.3106 7.67003 24.3106C7.67365 24.3106 7.67718 24.3107 7.68061 24.3107C7.68747 24.3107 7.69396 24.3107 7.70008 24.3107C7.71231 24.3107 7.72314 24.3107 7.73264 24.3107C7.75158 24.3108 7.76568 24.3108 7.77566 24.3109C7.79465 24.311 7.8019 24.3111 7.80228 24.3111C7.80288 24.3111 7.80346 24.3111 7.80446 24.3111C7.80537 24.3112 7.80838 24.3112 7.81375 24.3113C7.82097 24.3115 7.85376 24.3122 7.91055 24.3143C7.91352 24.3144 8.40219 24.3293 9.15269 24.3988C9.50894 24.4318 10.3701 24.5168 11.4964 24.7047C11.9211 24.7756 15.3701 25.2989 19.4627 27.0103L-9.0862 95.2815ZM7.65886 61.3106C5.17747 24.3939 5.17683 24.394 5.17619 24.394C5.17596 24.394 5.1753 24.3941 5.17484 24.3941C5.17392 24.3942 5.17297 24.3942 5.17197 24.3943C5.16999 24.3945 5.16785 24.3946 5.16556 24.3947C5.16099 24.3951 5.15582 24.3954 5.15006 24.3958C5.13855 24.3966 5.12469 24.3975 5.10862 24.3986C5.07652 24.4008 5.03536 24.4036 4.98636 24.4071C4.88885 24.4139 4.75744 24.4232 4.60211 24.4345C4.30309 24.4563 3.86346 24.4895 3.3819 24.53C2.96979 24.5647 2.22527 24.6297 1.42369 24.7217C1.07605 24.7616 0.270008 24.8567 -0.702035 25.0176C-1.15301 25.0923 -2.13367 25.261 -3.34947 25.5513C-3.95891 25.6968 -4.99128 25.9585 -6.24541 26.3668C-7.20514 26.6793 -9.81159 27.5542 -12.8649 29.2609L23.2415 93.8545C20.1984 95.5555 17.6064 96.4245 16.6651 96.731C15.4293 97.1333 14.4193 97.3889 13.8358 97.5282C12.6718 97.8061 11.7576 97.9621 11.3855 98.0237C10.571 98.1586 9.97216 98.2264 9.86387 98.2388C9.54096 98.2759 9.4038 98.2848 9.58876 98.2693C9.70426 98.2595 9.85139 98.2482 9.98987 98.2381C10.0533 98.2335 10.1033 98.2299 10.1326 98.2279C10.1469 98.2269 10.1555 98.2263 10.1572 98.2262C10.1581 98.2261 10.1572 98.2262 10.1544 98.2264C10.153 98.2265 10.1512 98.2266 10.1488 98.2268C10.1476 98.2268 10.1463 98.2269 10.1449 98.227C10.1442 98.2271 10.1435 98.2271 10.1427 98.2272C10.1423 98.2272 10.1417 98.2272 10.1415 98.2273C10.1409 98.2273 10.1402 98.2273 7.65886 61.3106ZM-12.8649 29.2609C-16.6163 31.3579 -19.6486 33.8088 -22.2345 36.5003L31.1286 87.768C30.609 88.3089 29.3651 89.5696 27.5726 90.9701C25.7371 92.4042 24.1381 93.3533 23.2415 93.8545L-12.8649 29.2609ZM-22.2345 36.5003C-22.0589 36.3176 -21.9248 36.1827 -21.9218 36.1797C-21.8554 36.1128 -22.049 36.3073 -22.2035 36.4654C-22.5347 36.8043 -23.6036 37.8992 -24.8102 39.4088C-26.1143 41.0405 -27.6152 43.1905 -28.9876 45.8771C-30.367 48.5775 -31.3562 51.3101 -32.0247 53.9839L39.7659 71.9315C39.145 74.4149 38.2177 76.9847 36.9128 79.5393C35.615 82.08 34.2012 84.1009 32.9953 85.6097C31.887 86.9965 30.9273 87.9746 30.7148 88.1921C30.6196 88.2894 30.4878 88.4221 30.6181 88.2907C30.685 88.2233 30.885 88.0216 31.1286 87.768L-22.2345 36.5003ZM-32.0247 53.9839C-32.9827 57.8162 -33.1415 61.2851 -33.1427 61.302C-33.2121 62.3439 -33.2437 63.2905 -33.26 63.8934C-33.2778 64.5519 -33.2859 65.1371 -33.2898 65.5401C-33.2918 65.7484 -33.2929 65.925 -33.2934 66.0587C-33.2937 66.1259 -33.2939 66.1832 -33.294 66.2294C-33.294 66.2525 -33.2941 66.2729 -33.2941 66.2904C-33.2941 66.2991 -33.2941 66.3072 -33.2941 66.3145C-33.2941 66.3181 -33.2941 66.3216 -33.2941 66.3249C-33.2941 66.3265 -33.2941 66.3281 -33.2941 66.3297C-33.2941 66.3305 -33.2941 66.3316 -33.2941 66.332C-33.2941 66.3331 -33.2941 66.3342 3.7059 66.3342C40.7059 66.3342 40.7059 66.3353 40.7059 66.3364C40.7059 66.3367 40.7059 66.3378 40.7059 66.3385C40.7059 66.3399 40.7059 66.3412 40.7059 66.3425C40.7059 66.3452 40.7059 66.3476 40.7059 66.35C40.7059 66.3547 40.7059 66.3588 40.7059 66.3624C40.7059 66.3696 40.7059 66.3746 40.7059 66.3777C40.7059 66.3837 40.7059 66.382 40.7059 66.3736C40.706 66.3561 40.7062 66.3152 40.7067 66.2585C40.708 66.1313 40.7102 65.9959 40.713 65.8927C40.7173 65.7337 40.7166 65.8774 40.6934 66.2244C40.6822 66.3933 40.6494 66.8622 40.575 67.5102C40.5347 67.8618 40.3371 69.6465 39.7659 71.9315L-32.0247 53.9839ZM3.7059 66.3342C40.6899 65.2464 40.6899 65.2455 40.6899 65.2445C40.6898 65.2442 40.6898 65.2432 40.6898 65.2425C40.6898 65.2411 40.6897 65.2397 40.6897 65.2383C40.6896 65.2353 40.6895 65.2322 40.6894 65.229C40.6892 65.2224 40.689 65.2151 40.6887 65.207C40.6882 65.191 40.6877 65.172 40.687 65.1503C40.6856 65.1069 40.6839 65.0523 40.6818 64.9878C40.6775 64.8593 40.6716 64.6882 40.6639 64.4859C40.649 64.0941 40.6254 63.5257 40.5916 62.8916C40.5608 62.3142 40.5072 61.4044 40.4184 60.416C40.3748 59.9319 40.2992 59.1597 40.1756 58.2551C40.1092 57.7697 39.8115 55.5099 39.0352 52.793L-32.1175 73.1224C-32.8526 70.5497 -33.1117 68.5035 -33.1421 68.2815C-33.2297 67.6404 -33.2719 67.1815 -33.2845 67.041C-33.3116 66.7397 -33.3137 66.638 -33.3034 66.8327C-33.296 66.9707 -33.2887 67.1383 -33.283 67.2895C-33.2804 67.3587 -33.2786 67.4108 -33.2777 67.4378C-33.2772 67.4509 -33.2771 67.457 -33.2771 67.4549C-33.2771 67.4539 -33.2772 67.4507 -33.2774 67.4453C-33.2775 67.4425 -33.2776 67.4393 -33.2777 67.4354C-33.2778 67.4334 -33.2778 67.4314 -33.2779 67.4291C-33.2779 67.428 -33.278 67.4269 -33.278 67.4257C-33.278 67.4251 -33.278 67.4241 -33.2781 67.4238C-33.2781 67.4229 -33.2781 67.422 3.7059 66.3342ZM39.0352 52.793C36.6725 44.5234 32.2337 39.3674 30.6053 37.5375L-24.6759 86.7309C-24.7314 86.6684 -25.1669 86.1816 -25.7077 85.5087C-26.2919 84.7818 -27.1224 83.6884 -28.0116 82.2812C-30.0121 79.1154 -31.3079 75.9561 -32.1175 73.1224L39.0352 52.793ZM30.6053 37.5375C29.8137 36.6479 24.063 29.8361 13.924 26.4564L-9.47692 96.659C-14.9306 94.8411 -18.6722 92.1497 -20.5792 90.6175C-22.6076 88.9877 -23.9939 87.4972 -24.6759 86.7309L30.6053 37.5375ZM13.9239 26.4564C11.7729 25.7394 10.0225 25.3838 9.564 25.2902C8.82961 25.1401 8.22848 25.0401 7.88205 24.9848C7.18012 24.8729 6.59116 24.7982 6.28186 24.7603C5.61726 24.6786 4.99898 24.6161 4.62926 24.5798C4.21156 24.5389 3.83222 24.5045 3.57207 24.4815C3.43744 24.4696 3.32367 24.4598 3.23908 24.4525C3.19658 24.4489 3.16086 24.4459 3.13292 24.4435C3.11893 24.4423 3.10685 24.4413 3.09678 24.4405C3.09174 24.44 3.08721 24.4397 3.08319 24.4393C3.08118 24.4392 3.0793 24.439 3.07755 24.4389C3.07667 24.4388 3.07583 24.4387 3.07502 24.4386C3.07461 24.4386 3.07403 24.4386 3.07383 24.4385C3.07325 24.4385 3.07268 24.4385 0 61.3106C-3.07268 98.1828 -3.07324 98.1828 -3.07378 98.1827C-3.07395 98.1827 -3.07449 98.1827 -3.07484 98.1827C-3.07553 98.1826 -3.07619 98.1825 -3.07683 98.1825C-3.0781 98.1824 -3.07926 98.1823 -3.08032 98.1822C-3.08244 98.182 -3.08414 98.1819 -3.08542 98.1818C-3.088 98.1816 -3.08896 98.1815 -3.08841 98.1815C-3.08727 98.1816 -3.08029 98.1822 -3.06826 98.1832C-3.0438 98.1853 -3.00122 98.189 -2.9467 98.1938C-2.82854 98.2043 -2.69831 98.2162 -2.59102 98.2267C-2.43573 98.242 -2.51357 98.236 -2.73809 98.2085C-2.82736 98.1975 -3.22137 98.1492 -3.76792 98.062C-4.03666 98.0192 -4.56999 97.9311 -5.24829 97.7926C-5.65073 97.7103 -7.35672 97.3657 -9.47686 96.659L13.9239 26.4564Z" fill="white" mask="url(#path-5-inside-3_489_38)"/>
<mask id="path-7-inside-4_489_38" fill="white">
<path d="M7.79574 51.1062C6.51926 51.3899 3.96631 51.3899 3.96631 51.3899C3.96631 51.3899 7.37025 51.6735 7.79574 51.8154C8.22123 51.9572 8.6524 52.3364 9.07222 52.8082C9.50162 53.2907 9.74575 53.6054 9.9232 54.2265C10.2069 55.2193 10.3487 60.0416 10.3487 60.0416C10.3487 60.0416 10.3487 55.3611 10.6324 54.2265C10.7963 53.5706 11.1568 53.2957 11.6252 52.8082C12.0627 52.3528 12.3504 52.1235 12.9016 51.8154C13.1853 51.6568 17.1566 51.3899 17.1566 51.3899C17.1566 51.3899 13.58 51.3899 12.9016 51.1062C12.3755 50.8862 12.0517 50.7755 11.6252 50.3971C11.085 49.9177 10.6923 49.5566 10.6324 48.8369C10.4905 47.1349 10.3487 41.8872 10.3487 41.8872C10.3487 41.8872 10.2069 47.5414 9.9232 48.8369C9.77477 49.5149 9.57483 49.9185 9.07222 50.3971C8.65923 50.7903 8.35242 50.9825 7.79574 51.1062Z"/>
</mask>
<path d="M7.79574 51.1062C6.51926 51.3899 3.96631 51.3899 3.96631 51.3899C3.96631 51.3899 7.37025 51.6735 7.79574 51.8154C8.22123 51.9572 8.6524 52.3364 9.07222 52.8082C9.50162 53.2907 9.74575 53.6054 9.9232 54.2265C10.2069 55.2193 10.3487 60.0416 10.3487 60.0416C10.3487 60.0416 10.3487 55.3611 10.6324 54.2265C10.7963 53.5706 11.1568 53.2957 11.6252 52.8082C12.0627 52.3528 12.3504 52.1235 12.9016 51.8154C13.1853 51.6568 17.1566 51.3899 17.1566 51.3899C17.1566 51.3899 13.58 51.3899 12.9016 51.1062C12.3755 50.8862 12.0517 50.7755 11.6252 50.3971C11.085 49.9177 10.6923 49.5566 10.6324 48.8369C10.4905 47.1349 10.3487 41.8872 10.3487 41.8872C10.3487 41.8872 10.2069 47.5414 9.9232 48.8369C9.77477 49.5149 9.57483 49.9185 9.07222 50.3971C8.65923 50.7903 8.35242 50.9825 7.79574 51.1062Z" fill="white"/>
<path d="M3.96631 51.3899V14.3899L0.893623 88.2621L3.96631 51.3899ZM7.79574 51.1062L-0.230654 14.9873L-0.230694 14.9873L7.79574 51.1062ZM9.07222 50.3971L-16.4421 23.6012L-16.4421 23.6012L9.07222 50.3971ZM9.9232 48.8369L46.067 56.7505L46.067 56.7505L9.9232 48.8369ZM10.3487 41.8872L47.3352 40.8876L-26.6397 40.9594L10.3487 41.8872ZM10.6324 48.8369L-26.2398 51.9096L-26.2398 51.9096L10.6324 48.8369ZM11.6252 50.3971L36.1824 22.7214L36.1824 22.7214L11.6252 50.3971ZM12.9016 51.1062L27.1761 16.9706L27.1761 16.9706L12.9016 51.1062ZM17.1566 51.3899L19.638 88.3066L17.1566 14.3899V51.3899ZM12.9016 51.8154L30.9548 84.1122L30.9549 84.1121L12.9016 51.8154ZM11.6252 52.8082L-15.0564 27.1743L-15.0564 27.1743L11.6252 52.8082ZM10.6324 54.2265L46.5276 63.2003L46.5276 63.2003L10.6324 54.2265ZM10.3487 60.0416L-26.6353 61.1293L47.3487 60.0416H10.3487ZM9.9232 54.2265L45.4996 44.0618L45.4996 44.0618L9.9232 54.2265ZM9.07222 52.8082L36.7128 28.2115L36.7128 28.2115L9.07222 52.8082ZM7.79574 51.8154L-3.90473 86.9166L-3.90466 86.9167L7.79574 51.8154ZM3.96631 51.3899C3.96631 88.3899 3.96833 88.3899 3.97036 88.3899C3.97105 88.3899 3.97309 88.3899 3.97448 88.3899C3.97725 88.3899 3.98006 88.3899 3.98293 88.3899C3.98865 88.3899 3.99457 88.3899 4.00066 88.3899C4.01285 88.3898 4.02579 88.3898 4.03945 88.3898C4.06676 88.3898 4.09702 88.3897 4.13008 88.3896C4.19614 88.3893 4.27382 88.3889 4.36202 88.3882C4.53759 88.3869 4.75929 88.3845 5.01754 88.38C5.52043 88.3714 6.22775 88.3543 7.04517 88.3179C7.80242 88.2843 11.6866 88.1441 15.8222 87.2251L-0.230694 14.9873C1.62413 14.5751 2.95959 14.4551 3.15094 14.4369C3.37235 14.4158 3.52975 14.4046 3.60998 14.3994C3.69435 14.3939 3.74509 14.3915 3.75952 14.3909C3.7758 14.3902 3.77845 14.3902 3.76938 14.3904C3.76592 14.3905 3.76217 14.3906 3.75859 14.3907C3.75689 14.3908 3.75548 14.3908 3.75441 14.3908C3.75389 14.3908 3.75348 14.3908 3.75319 14.3908C3.75291 14.3908 3.75276 14.3908 3.75277 14.3908C3.75277 14.3908 3.75293 14.3908 3.75327 14.3908C3.75361 14.3908 3.75414 14.3908 3.75487 14.3908C3.7563 14.3908 3.75861 14.3908 3.76187 14.3907C3.76831 14.3906 3.77911 14.3905 3.79498 14.3904C3.81087 14.3903 3.83247 14.3902 3.8605 14.39C3.87456 14.39 3.89032 14.39 3.90789 14.3899C3.91668 14.3899 3.92594 14.3899 3.93566 14.3899C3.94053 14.3899 3.94551 14.3899 3.95062 14.3899C3.95317 14.3899 3.95576 14.3899 3.95837 14.3899C3.95968 14.3899 3.96167 14.3899 3.96232 14.3899C3.96431 14.3899 3.96631 14.3899 3.96631 51.3899ZM15.8221 87.2251C18.8257 86.5577 22.6871 85.3449 26.7934 83.0071C30.672 80.799 33.3245 78.3946 34.5866 77.1929L-16.4421 23.6012C-15.5931 22.7927 -13.3005 20.681 -9.81766 18.6983C-6.10717 16.5859 -2.67754 15.531 -0.230654 14.9873L15.8221 87.2251ZM34.5865 77.193C36.9341 74.9577 39.8289 71.6791 42.2528 67.1499C44.5828 62.7961 45.5919 58.9206 46.067 56.7505L-26.2206 40.9233C-25.8939 39.4312 -25.059 36.0964 -22.9918 32.2336C-20.8306 28.1953 -18.2871 25.3579 -16.4421 23.6012L34.5865 77.193ZM46.067 56.7505C46.7838 53.4768 46.9799 50.3171 47.0066 49.9597C47.0987 48.7265 47.1621 47.4897 47.2049 46.54C47.2496 45.547 47.2819 44.6337 47.3029 43.9823C47.3136 43.6514 47.3217 43.3757 47.3273 43.1759C47.3302 43.0758 47.3324 42.994 47.334 42.9332C47.3348 42.9027 47.3355 42.8775 47.336 42.8577C47.3362 42.8478 47.3364 42.8393 47.3366 42.8321C47.3367 42.8286 47.3368 42.8254 47.3369 42.8225C47.3369 42.8211 47.3369 42.8198 47.337 42.8185C47.337 42.8179 47.337 42.817 47.337 42.8167C47.337 42.8159 47.3371 42.815 10.3487 41.8872C-26.6397 40.9594 -26.6397 40.9586 -26.6396 40.9578C-26.6396 40.9576 -26.6396 40.9569 -26.6396 40.9564C-26.6396 40.9555 -26.6396 40.9547 -26.6395 40.9539C-26.6395 40.9525 -26.6395 40.9513 -26.6394 40.9505C-26.6394 40.9488 -26.6394 40.9484 -26.6394 40.9492C-26.6395 40.9509 -26.6396 40.9576 -26.6399 40.9689C-26.6405 40.9915 -26.6416 41.0325 -26.6432 41.0895C-26.6465 41.204 -26.6516 41.3801 -26.6587 41.5996C-26.6732 42.0488 -26.694 42.6299 -26.7203 43.2125C-26.7484 43.8382 -26.7736 44.2579 -26.7879 44.4493C-26.8676 45.5163 -26.7956 43.5493 -26.2206 40.9233L46.067 56.7505ZM10.3487 41.8872C-26.6378 42.8868 -26.6378 42.8872 -26.6378 42.8876C-26.6378 42.8877 -26.6378 42.8881 -26.6378 42.8884C-26.6377 42.889 -26.6377 42.8897 -26.6377 42.8904C-26.6377 42.892 -26.6376 42.8938 -26.6376 42.896C-26.6374 42.9003 -26.6373 42.9059 -26.6371 42.9128C-26.6367 42.9265 -26.6362 42.9451 -26.6356 42.9684C-26.6343 43.0151 -26.6324 43.0806 -26.6301 43.1628C-26.6255 43.3269 -26.6188 43.5586 -26.6104 43.8401C-26.5936 44.3998 -26.5695 45.173 -26.5402 46.0137C-26.4962 47.2752 -26.4002 49.9853 -26.2398 51.9096L47.5045 45.7642C47.5231 45.9866 47.4772 45.2218 47.4148 43.4339C47.391 42.75 47.3708 42.1049 47.3565 41.6274C47.3494 41.3904 47.3439 41.1988 47.3403 41.0693C47.3384 41.0046 47.3371 40.9557 47.3362 40.9247C47.3358 40.9092 47.3355 40.8981 47.3353 40.8919C47.3352 40.8887 47.3352 40.8868 47.3351 40.886C47.3351 40.8857 47.3351 40.8856 47.3351 40.8859C47.3351 40.886 47.3352 40.8862 47.3352 40.8865C47.3352 40.8866 47.3352 40.8869 47.3352 40.887C47.3352 40.8873 47.3352 40.8876 10.3487 41.8872ZM-26.2398 51.9096C-24.8258 68.8779 -12.9492 78.0575 -12.9321 78.0727L36.1824 22.7214C35.3514 21.984 38.3311 24.4208 40.9595 28.0657C44.5289 33.0155 46.9502 39.1119 47.5045 45.7642L-26.2398 51.9096ZM-12.9321 78.0727C-10.3024 80.4061 -7.5138 82.2711 -4.64385 83.7414C-3.43318 84.3616 -2.43103 84.7957 -1.94458 85.0027C-1.81468 85.058 -0.872939 85.4509 -1.37278 85.2418L27.1761 16.9706C27.0203 16.9055 26.8562 16.8378 26.849 16.8348C26.7973 16.8135 26.8917 16.8522 27.025 16.9089C27.2895 17.0214 28.0854 17.363 29.096 17.8808C30.1771 18.4346 31.4185 19.1442 32.7392 20.0425C34.0509 20.9346 35.1969 21.8469 36.1824 22.7214L-12.9321 78.0727ZM-1.37282 85.2418C2.85384 87.0093 6.50842 87.5816 7.19039 87.6954C8.57386 87.9262 9.74379 88.048 10.4404 88.1125C11.8717 88.2451 13.1676 88.302 13.9442 88.3302C14.8122 88.3616 15.5858 88.3756 16.1131 88.3824C16.3868 88.3859 16.6191 88.3878 16.7948 88.3887C16.8831 88.3892 16.9584 88.3895 17.019 88.3897C17.0494 88.3898 17.0761 88.3898 17.0991 88.3898C17.1106 88.3898 17.1211 88.3899 17.1307 88.3899C17.1355 88.3899 17.1401 88.3899 17.1444 88.3899C17.1465 88.3899 17.1486 88.3899 17.1507 88.3899C17.1517 88.3899 17.1532 88.3899 17.1537 88.3899C17.1551 88.3899 17.1566 88.3899 17.1566 51.3899C17.1566 14.3899 17.158 14.3899 17.1594 14.3899C17.1599 14.3899 17.1613 14.3899 17.1622 14.3899C17.164 14.3899 17.1657 14.3899 17.1675 14.3899C17.1709 14.3899 17.1742 14.3899 17.1772 14.3899C17.1834 14.3899 17.1888 14.3899 17.1935 14.3899C17.2029 14.3899 17.2095 14.3899 17.2134 14.3899C17.2213 14.39 17.2192 14.39 17.2084 14.3899C17.1858 14.3898 17.1333 14.3894 17.0612 14.3885C16.8967 14.3864 16.7337 14.3827 16.6228 14.3787C16.4205 14.3713 16.695 14.3751 17.2649 14.4279C17.5308 14.4525 18.31 14.5278 19.3681 14.7043C19.7246 14.7638 23.119 15.2741 27.1761 16.9706L-1.37282 85.2418ZM17.1566 51.3899C14.6752 14.4732 14.6745 14.4732 14.6739 14.4733C14.6736 14.4733 14.673 14.4733 14.6725 14.4734C14.6715 14.4734 14.6705 14.4735 14.6694 14.4736C14.6672 14.4737 14.6647 14.4739 14.6621 14.4741C14.6567 14.4744 14.6503 14.4749 14.643 14.4753C14.6283 14.4763 14.6098 14.4776 14.5876 14.4791C14.5433 14.4822 14.4842 14.4862 14.4123 14.4912C14.269 14.5012 14.0721 14.5152 13.8377 14.5323C13.3807 14.5656 12.7292 14.6149 12.032 14.6735C11.4043 14.7264 10.4405 14.8116 9.46605 14.9234C9.03199 14.9733 8.15113 15.0781 7.12216 15.2485C6.64273 15.3279 5.63807 15.5013 4.40354 15.796C4.39656 15.7977 -0.191121 16.7458 -5.15159 19.5186L30.9549 84.1121C27.9155 85.8111 25.3288 86.6779 24.3941 86.9822C23.165 87.3824 22.163 87.6358 21.5888 87.7729C20.4436 88.0463 19.5534 88.1977 19.2097 88.2546C18.4522 88.38 17.9281 88.438 17.9063 88.4405C17.7562 88.4578 17.8384 88.4465 18.2389 88.4128C18.57 88.3849 18.929 88.3575 19.2255 88.3359C19.3679 88.3255 19.4835 88.3173 19.5585 88.3121C19.5957 88.3095 19.6222 88.3077 19.6362 88.3067C19.6432 88.3062 19.647 88.306 19.6474 88.3059C19.6476 88.3059 19.6469 88.306 19.6453 88.3061C19.6445 88.3061 19.6435 88.3062 19.6423 88.3063C19.6417 88.3063 19.641 88.3064 19.6403 88.3064C19.64 88.3064 19.6394 88.3065 19.6392 88.3065C19.6386 88.3065 19.638 88.3066 17.1566 51.3899ZM-5.15148 19.5185C-9.13411 21.7447 -12.287 24.2918 -15.0564 27.1743L38.3067 78.4421C37.8788 78.8875 36.7109 80.0764 35.0004 81.4128C33.2469 82.7828 31.7359 83.6756 30.9548 84.1122L-5.15148 19.5185ZM-15.0564 27.1743C-14.9054 27.0171 -14.7952 26.9065 -14.8152 26.9267C-14.8198 26.9313 -14.8242 26.9358 -14.8415 26.9532C-14.8553 26.9671 -14.88 26.9919 -14.9072 27.0194C-14.9606 27.0733 -15.0534 27.1671 -15.1637 27.2799C-15.5378 27.6626 -16.6461 28.7998 -17.8882 30.3538C-20.9663 34.205 -23.7417 39.1678 -25.2629 45.2527L46.5276 63.2003C45.924 65.6149 45.0189 68.1259 43.741 70.6278C42.4701 73.1159 41.0878 75.0902 39.9174 76.5546C38.8445 77.897 37.9243 78.833 37.7547 79.0066C37.6809 79.082 37.5714 79.1923 37.7247 79.0377C37.8147 78.947 38.0386 78.7211 38.3067 78.442L-15.0564 27.1743ZM-25.2629 45.2527C-26.2507 49.2039 -26.4318 52.8847 -26.4497 53.1526C-26.5359 54.4453 -26.5786 55.6819 -26.6023 56.5599C-26.6276 57.4934 -26.6394 58.3389 -26.6451 58.9333C-26.6481 59.2374 -26.6496 59.4925 -26.6504 59.6808C-26.6508 59.7753 -26.651 59.8539 -26.6512 59.9146C-26.6512 59.9449 -26.6513 59.9708 -26.6513 59.9921C-26.6513 60.0027 -26.6513 60.0121 -26.6513 60.0204C-26.6513 60.0245 -26.6513 60.0284 -26.6513 60.0319C-26.6513 60.0336 -26.6513 60.0353 -26.6513 60.0369C-26.6513 60.0378 -26.6513 60.0389 -26.6513 60.0393C-26.6513 60.0404 -26.6513 60.0416 10.3487 60.0416C47.3487 60.0416 47.3487 60.0426 47.3487 60.0437C47.3487 60.044 47.3487 60.0451 47.3487 60.0457C47.3487 60.0471 47.3487 60.0483 47.3487 60.0495C47.3487 60.0519 47.3487 60.054 47.3487 60.0559C47.3487 60.0597 47.3487 60.0624 47.3487 60.0641C47.3487 60.0676 47.3487 60.0671 47.3487 60.0629C47.3487 60.0544 47.3488 60.0314 47.3489 59.9957C47.3492 59.9236 47.3499 59.8042 47.3514 59.6517C47.3545 59.3331 47.3604 58.9375 47.3706 58.5591C47.3824 58.1251 47.3928 57.9789 47.3864 58.075C47.3835 58.1184 47.3605 58.4716 47.2975 59.0203C47.2685 59.2727 47.084 60.9747 46.5276 63.2003L-25.2629 45.2527ZM10.3487 60.0416C47.3327 58.9538 47.3327 58.9528 47.3326 58.9518C47.3326 58.9515 47.3326 58.9505 47.3326 58.9497C47.3325 58.9483 47.3325 58.9468 47.3324 58.9452C47.3324 58.9421 47.3323 58.9386 47.3321 58.9348C47.3319 58.9273 47.3317 58.9185 47.3314 58.9086C47.3307 58.8887 47.33 58.864 47.3291 58.8348C47.3273 58.7766 47.3248 58.7 47.3218 58.6074C47.3156 58.4229 47.3069 58.1711 47.2955 57.8707C47.2732 57.2829 47.2385 56.4486 47.1898 55.5358C47.1441 54.6796 47.0719 53.478 46.9608 52.2415C46.9061 51.6333 46.8184 50.7479 46.6817 49.7482C46.6023 49.1676 46.2907 46.8307 45.4996 44.0618L-25.6532 64.3912C-26.3734 61.8705 -26.6185 59.9014 -26.6359 59.7746C-26.7105 59.2287 -26.7406 58.8829 -26.7421 58.8664C-26.7468 58.8133 -26.7304 59.0034 -26.7052 59.4769C-26.6829 59.8937 -26.6645 60.3271 -26.6513 60.6744C-26.645 60.8416 -26.6404 60.9744 -26.6377 61.0574C-26.6363 61.0986 -26.6354 61.1266 -26.635 61.1395C-26.6348 61.1459 -26.6347 61.1484 -26.6348 61.1468C-26.6348 61.146 -26.6349 61.1442 -26.635 61.1413C-26.635 61.1398 -26.6351 61.1381 -26.6351 61.1361C-26.6351 61.1351 -26.6352 61.1341 -26.6352 61.1329C-26.6352 61.1324 -26.6352 61.1315 -26.6353 61.1312C-26.6353 61.1303 -26.6353 61.1293 10.3487 60.0416ZM45.4996 44.0618C43.0624 35.5318 38.5213 30.2438 36.7128 28.2115L-18.5684 77.4049C-18.5789 77.393 -18.9742 76.9524 -19.479 76.3243C-20.0271 75.6423 -20.8255 74.5925 -21.6861 73.2308C-23.6292 70.1559 -24.8808 67.0947 -25.6532 64.3912L45.4996 44.0618ZM36.7128 28.2115C35.7451 27.124 29.8136 20.1532 19.4961 16.7141L-3.90466 86.9167C-9.26915 85.1285 -12.9209 82.4917 -14.7384 81.0314C-16.6773 79.4736 -17.9745 78.0723 -18.5684 77.4049L36.7128 28.2115ZM19.4962 16.7141C17.334 15.9934 15.5676 15.6338 15.0888 15.536C14.3341 15.3819 13.7085 15.2775 13.334 15.2178C12.576 15.0969 11.9166 15.0127 11.5279 14.9649C10.7044 14.8638 9.89092 14.7808 9.33161 14.726C8.72432 14.6664 8.16097 14.6153 7.76421 14.5803C7.56127 14.5623 7.39105 14.5476 7.26708 14.537C7.20488 14.5317 7.15374 14.5273 7.11531 14.5241C7.09607 14.5225 7.07996 14.5211 7.06719 14.52C7.0608 14.5195 7.05524 14.519 7.05054 14.5186C7.04818 14.5184 7.04604 14.5183 7.04412 14.5181C7.04315 14.518 7.04225 14.518 7.04139 14.5179C7.04097 14.5178 7.04037 14.5178 7.04015 14.5178C7.03957 14.5177 7.03899 14.5177 3.96631 51.3899C0.893623 88.2621 0.893076 88.262 0.892543 88.262C0.892382 88.262 0.891859 88.2619 0.891536 88.2619C0.890889 88.2618 0.89029 88.2618 0.889741 88.2617C0.888641 88.2617 0.887735 88.2616 0.887019 88.2615C0.885589 88.2614 0.884917 88.2613 0.884983 88.2613C0.885116 88.2614 0.888175 88.2616 0.893974 88.2621C0.905606 88.2631 0.928013 88.265 0.959726 88.2677C1.02357 88.2732 1.1226 88.2817 1.24543 88.2926C1.50021 88.3151 1.81444 88.3438 2.11132 88.3729C2.45619 88.4067 2.57351 88.4212 2.5079 88.4132C2.49809 88.412 2.17447 88.3731 1.68402 88.295C1.44333 88.2566 0.934475 88.1728 0.276432 88.0384C-0.105755 87.9603 -1.79573 87.6196 -3.90473 86.9166L19.4962 16.7141Z" fill="white" mask="url(#path-7-inside-4_489_38)"/>
<path d="M82.5892 97.9915C81.293 94.8762 79.7148 71.2079 84.4398 67.5284C85.7191 66.5321 88.0386 66.682 90.1338 67.1013C92.2676 67.5284 93.6719 68.3521 94.5452 70.5182C95.1192 71.9421 90.9864 84.4687 91.6997 88.454C91.9451 89.8253 92.0155 91.631 93.4079 91.5857C94.6416 91.5456 94.8685 90.1945 95.2585 89.0234C96.5381 85.1804 95.9687 69.6642 98.6749 68.0978C99.6586 67.5284 103.011 66.5614 105.508 67.5284C107.527 68.3103 110.466 69.2296 109.636 71.2295C107.214 77.0664 106.076 92.298 108.355 91.5857C109.969 91.0814 111.457 88.9158 112.447 90.2862C113.977 92.4031 112.111 95.7283 111.629 96.8527C110.348 99.8426 109.207 103.401 103.371 103.401C99.2798 103.401 97.8193 96.2833 97.109 96.2833C96.3988 96.2833 96.2534 102.832 89.9915 103.401C86.4258 103.725 84.011 101.408 82.5892 97.9915Z" fill="white"/>
<path d="M151.606 68.1762C157.87 68.1762 159.008 73.1585 159.008 73.1585C159.008 73.1585 162.326 67.2995 165.983 66.7527C169 66.3016 170.854 67.5754 173.364 69.3003L173.386 69.315C173.671 69.511 167.977 75.4298 169.97 93.2268C170.537 98.2918 174.241 103.906 177.941 103.906C181.252 103.906 183.558 101.93 183.92 98.6391C184.225 95.8696 182.408 93.1933 179.65 92.8027C177.45 92.4913 176.736 96.2029 176.233 95.9346C169.827 92.5182 171.417 86.0585 174.24 82.4111C177.657 77.9982 181.532 76.6541 187.478 77.5714C194.698 78.685 198.924 84.7045 199.864 91.9486C201.254 102.678 191.834 112.753 181.073 113.871C172.863 114.723 166.792 111.294 162.14 104.476C158.727 99.4746 158.739 89.9557 158.439 89.9557C158.297 89.9557 157.728 105.187 148.047 105.187C144.194 105.187 141.784 102.625 140.218 99.2087C137.044 92.2854 138.532 82.1264 140.218 78.4253C142.842 72.6659 145.277 68.1762 151.606 68.1762Z" fill="white"/>
<mask id="path-11-inside-5_489_38" fill="white">
<path d="M150.9 81.8412C151.468 78.7091 151.771 73.8477 155.028 74.4389C156.593 74.723 155.901 79.2658 155.313 82.2683C154.591 85.9526 153.461 91.5601 150.9 91.0942C149.334 90.8093 150.274 85.2872 150.9 81.8412Z"/>
</mask>
<path d="M155.028 74.4389L153.599 82.3103L155.028 74.4389ZM150.9 81.8412L143.028 80.4129L150.9 81.8412ZM150.9 91.0942L152.332 83.2234L152.332 83.2234L150.9 91.0942ZM155.313 82.2683L147.462 80.7297L147.462 80.7297L155.313 82.2683ZM156.457 66.5676C153.417 66.0156 150.327 66.7513 147.904 68.8136C145.867 70.547 144.906 72.712 144.432 74.0251C143.574 76.3987 143.146 79.766 143.028 80.4129L158.771 83.2695C158.86 82.7805 158.94 82.2756 159.006 81.8635C159.077 81.4212 159.137 81.0506 159.201 80.6937C159.337 79.9318 159.437 79.5814 159.48 79.4625C159.559 79.2426 159.32 80.1074 158.274 80.9977C157.679 81.5038 156.886 81.9614 155.929 82.2073C154.985 82.4498 154.167 82.4134 153.599 82.3103L156.457 66.5676ZM143.028 80.4129C142.727 82.0752 142.246 84.763 142.094 87.1448C142.023 88.2568 141.975 89.9225 142.306 91.581C142.471 92.4043 143.635 97.9039 149.468 98.965L152.332 83.2234C154.735 83.6607 156.293 85.1331 157.087 86.3285C157.77 87.3555 157.954 88.2341 157.996 88.4447C158.083 88.88 158.015 88.8964 158.062 88.1614C158.145 86.8495 158.447 85.0532 158.771 83.2695L143.028 80.4129ZM149.468 98.965C153.619 99.7202 156.756 97.6901 158.45 95.8524C159.947 94.2288 160.788 92.3451 161.264 91.1056C162.252 88.5336 162.832 85.4956 163.163 83.8068L147.462 80.7297C147.28 81.6582 147.102 82.5513 146.897 83.4093C146.688 84.2849 146.494 84.9348 146.327 85.3695C146.111 85.9342 146.144 85.5953 146.686 85.0072C147.008 84.6585 147.661 84.057 148.71 83.6186C149.844 83.1444 151.115 83.002 152.332 83.2234L149.468 98.965ZM163.163 83.8068C163.466 82.2622 163.9 79.8348 163.973 77.5973C164.007 76.5603 163.998 74.8841 163.509 73.1689C163.082 71.669 161.424 67.4694 156.457 66.5676L153.599 82.3103C151.711 81.9676 150.262 80.9397 149.341 79.8236C148.532 78.8417 148.228 77.925 148.121 77.5509C147.925 76.8612 147.999 76.5617 147.982 77.0712C147.954 77.9267 147.748 79.2719 147.462 80.7297L163.163 83.8068Z" fill="#1E1E1E" mask="url(#path-11-inside-5_489_38)"/>
<path d="M116.444 75.5318C116.888 78.5472 117.759 83.9682 110.739 90.2939C110.218 90.7639 103.866 101.916 104.618 102.109C105.369 102.301 105.653 103.592 108.746 101.825C110.739 100.686 120.214 96.5158 122.124 76.2861C122.138 76.1307 123.698 76.328 124.648 76.6213C125.162 76.7799 122.316 86.006 121.959 91.5487C121.65 96.347 123.183 101.337 127.706 102.969C131.79 104.443 135.467 102.029 138.736 99.1712C143.734 94.8023 144.004 80.345 141.226 82.3551C138.824 84.0935 138.721 88.1754 136.423 87.6225C132.819 86.7557 135.504 80.5618 135.096 76.3362C134.798 73.2494 133.335 71.2216 130.307 70.7583C127.386 70.3112 122.841 71.3723 122.748 71.1029C122.006 68.9478 121.956 66.3045 119.683 66.1362C118.601 66.0561 114.417 67.3528 113.752 71.1885C112.945 75.8401 116.299 74.5463 116.444 75.5318Z" fill="white"/>
<path d="M23.5078 94.7115C20.5279 90.9729 25.2264 83.7493 23.5078 82.4692C23.5078 82.4692 11.3634 97.2006 28.0734 101.828C37.3263 104.39 44.3767 94.865 47.5757 84.7458C50.0061 77.0577 54.1722 66.43 59.3909 60.6893C63.6615 55.9917 68.6334 52.7176 68.6334 52.7176C68.6334 52.7176 49.5582 48.446 43.4475 52.0048C40.2769 53.8513 39.2691 59.1144 42.5829 60.6893C45.204 61.935 49.5582 58.127 49.5582 58.127C49.5582 58.127 59.0956 63.393 49.5582 73.927C45.6574 78.2354 37.0311 76.7751 33.7571 71.2234C28.9072 62.9992 30.4447 54.6214 36.0347 46.8812C40.8404 40.227 47.1984 38.0713 55.3945 37.6282C66.2284 37.0425 70.3201 49.9822 81.1602 50.4391C85.1977 50.6093 87.3859 47.0321 89.559 50.4391C90.8444 52.4545 90.9531 55.9917 88.5627 55.9917C84.1496 55.9917 74.612 70.3682 77.7439 94.7115C78.6176 101.503 83.4378 106.527 90.6979 106.527C93.2601 106.527 88.9896 124.177 72.4769 119.054C62.8896 116.079 64.2205 94.7115 64.2205 94.7115H58.0993C58.0993 94.7115 53.5417 115.02 42.5829 119.054C33.5883 122.365 23.8378 121.955 16.3901 115.922C11.5598 112.009 7.32419 105.206 7.70667 97.1315C8.18282 87.0792 13.5068 77.1829 23.5078 76.0623C29.8186 75.3551 36.3925 76.8335 39.3193 82.4692C42.0027 87.6365 41.0861 94.2357 36.0347 97.1315C31.7121 99.6095 26.6133 98.6078 23.5078 94.7115Z" fill="white"/>
<mask id="path-15-inside-6_489_38" fill="white">
<path d="M68.365 64.1015C70.4881 61.8844 74.3438 58.8345 74.3438 58.8345L66.2298 85.1694H59.9663C59.9663 85.1694 61.7496 79.2632 62.8133 75.6319C64.2956 70.5718 66.2419 66.3185 68.365 64.1015Z"/>
</mask>
<path d="M74.3438 58.8345L88.6788 63.2512L102.89 17.1278L65.0378 47.0702L74.3438 58.8345ZM68.365 64.1015L57.5314 53.7268L57.5314 53.7268L68.365 64.1015ZM62.8133 75.6319L48.4182 71.4152L48.4182 71.4152L62.8133 75.6319ZM59.9663 85.1694L45.6066 80.8337L39.7684 100.169H59.9663V85.1694ZM66.2298 85.1694V100.169H77.304L80.5648 89.5862L66.2298 85.1694ZM74.3438 58.8345C65.0378 47.0702 65.0373 47.0706 65.0367 47.071C65.0365 47.0712 65.036 47.0716 65.0356 47.0719C65.0348 47.0725 65.034 47.0732 65.0331 47.0739C65.0313 47.0753 65.0293 47.0769 65.027 47.0787C65.0225 47.0823 65.017 47.0867 65.0105 47.0918C64.9977 47.1019 64.9811 47.1151 64.961 47.1311C64.9208 47.1631 64.8664 47.2065 64.7991 47.2604C64.6647 47.368 64.478 47.5181 64.2505 47.7029C63.798 48.0705 63.1712 48.5856 62.4644 49.1832C61.1694 50.2785 59.1686 52.0172 57.5314 53.7268L79.1986 74.4761C79.6845 73.9687 80.6732 73.0739 81.8367 72.0899C82.3592 71.648 82.829 71.262 83.1658 70.9884C83.3329 70.8526 83.4641 70.7472 83.5488 70.6793C83.5911 70.6455 83.6215 70.6212 83.6389 70.6074C83.6475 70.6006 83.6529 70.5963 83.6547 70.5948C83.6557 70.5941 83.6557 70.594 83.6549 70.5947C83.6545 70.595 83.6539 70.5955 83.653 70.5962C83.6526 70.5965 83.6521 70.5969 83.6516 70.5973C83.6513 70.5975 83.6508 70.5979 83.6507 70.598C83.6502 70.5984 83.6498 70.5988 74.3438 58.8345ZM57.5314 53.7268C52.785 58.6833 50.0317 65.9071 48.4182 71.4152L77.2084 79.8486C77.7834 77.8859 78.3777 76.3317 78.8978 75.2369C79.1534 74.6988 79.3469 74.3654 79.4527 74.1996C79.5699 74.0161 79.5027 74.1586 79.1986 74.4761L57.5314 53.7268ZM48.4182 71.4152C47.9005 73.1824 47.2003 75.5286 46.6228 77.4546C46.3355 78.4129 46.0811 79.2589 45.8985 79.8651C45.8073 80.1681 45.7341 80.411 45.6838 80.5778C45.6586 80.6612 45.6392 80.7255 45.6262 80.7689C45.6196 80.7905 45.6147 80.8069 45.6114 80.8178C45.6097 80.8232 45.6085 80.8273 45.6077 80.83C45.6073 80.8313 45.607 80.8323 45.6068 80.8329C45.6067 80.8332 45.6067 80.8334 45.6066 80.8336C45.6066 80.8336 45.6066 80.8337 45.6066 80.8337C45.6066 80.8337 45.6066 80.8337 59.9663 85.1694C74.326 89.5052 74.326 89.5051 74.3261 89.505C74.3261 89.505 74.3261 89.5049 74.3261 89.5047C74.3262 89.5045 74.3263 89.5042 74.3264 89.5038C74.3267 89.503 74.327 89.5018 74.3275 89.5003C74.3284 89.4972 74.3298 89.4928 74.3315 89.4869C74.3351 89.4753 74.3402 89.458 74.347 89.4356C74.3606 89.3906 74.3805 89.3245 74.4062 89.2393C74.4576 89.0689 74.532 88.822 74.6246 88.5145C74.8097 87.8999 75.0676 87.0423 75.359 86.0702C75.9392 84.1353 76.6624 81.7127 77.2084 79.8486L48.4182 71.4152ZM59.9663 100.169H66.2298V70.1694H59.9663V100.169ZM80.5648 89.5862L88.6788 63.2512L60.0088 54.4177L51.8947 80.7527L80.5648 89.5862Z" fill="#1E1E1E" mask="url(#path-15-inside-6_489_38)"/>
<path d="M12.7181 23.3963L13.1993 24.277C13.1823 23.7553 13.2362 23.3137 13.3613 22.9521C13.4931 22.5862 13.642 22.2915 13.8078 22.0683C13.9737 21.845 14.1262 21.6836 14.2654 21.5841C14.4114 21.4802 14.4913 21.4238 14.5049 21.415C15.0109 21.0885 15.527 20.9201 16.0531 20.9098C16.5792 20.8996 17.1087 21.0373 17.6417 21.3229C18.1703 21.6016 18.6979 22.0215 19.2246 22.5823C19.7536 23.132 20.2763 23.8068 20.7926 24.6068C21.1721 25.1949 21.5502 25.8032 21.9268 26.4318C22.3059 27.0492 22.6644 27.6798 23.0025 28.3237C23.3429 28.9563 23.6541 29.5885 23.9359 30.2202C24.2245 30.8475 24.4647 31.4674 24.6565 32.0797L22.0814 33.3348C21.7135 32.4196 21.3467 31.5812 20.9811 30.8195C20.6155 30.0579 20.2833 29.4006 19.9845 28.8476C19.6352 28.2013 19.2985 27.6196 18.9744 27.1023C18.5552 26.4527 18.1706 25.9019 17.8207 25.4497C17.4663 24.9907 17.133 24.6392 16.8206 24.3953C16.5106 24.1401 16.2126 23.9935 15.9265 23.9554C15.6403 23.9172 15.3537 23.9908 15.0665 24.1762C14.9015 24.3408 14.7983 24.6011 14.7569 24.9571C14.7208 25.2613 14.7516 25.6918 14.8494 26.2486C14.9428 26.7985 15.1749 27.5107 15.5456 28.3853C15.8693 28.9319 16.1976 29.4707 16.5306 30.0016C16.8659 30.5212 17.2234 31.0751 17.6029 31.6631C17.925 32.1623 18.2714 32.6991 18.6421 33.2734C19.0128 33.8478 19.4388 34.493 19.9203 35.2089L17.5589 36.6602C17.1293 35.9495 16.6664 35.2022 16.1702 34.4183C15.6764 33.6232 15.1206 32.7469 14.5028 31.7897C13.8894 30.8392 13.2184 29.8146 12.4899 28.7157C11.7613 27.6168 10.9397 26.4037 10.0249 25.0763L12.7181 23.3963Z" fill="white"/>
<path d="M34.3872 27.0938C34.2478 26.8779 34.1107 26.6568 33.9758 26.4303C33.8409 26.2038 33.7106 25.9668 33.5848 25.7192C33.4438 26.3722 33.1863 26.9318 32.8122 27.3978C32.4412 27.8714 31.9688 28.2236 31.3949 28.4542C31.1004 28.5725 30.7787 28.6448 30.4296 28.6711C30.0836 28.7049 29.7352 28.6563 29.3844 28.5254C29.0411 28.3915 28.706 28.1578 28.3791 27.8243C28.0566 27.4803 27.771 26.9987 27.5222 26.3795C27.3158 25.866 27.2123 25.3902 27.2116 24.9519C27.2078 24.5061 27.2691 24.0912 27.3955 23.7072C27.5218 23.3231 27.6935 22.9647 27.9106 22.6319C28.1276 22.2991 28.35 21.9904 28.5778 21.7059C28.813 21.4184 29.0378 21.1483 29.252 20.8956C29.4661 20.6429 29.6312 20.4099 29.7473 20.1966C29.9733 19.7988 30.148 19.4041 30.2713 19.0125C30.3991 18.6104 30.4732 18.2166 30.4938 17.8312C30.2542 17.3223 30.0261 16.9184 29.8095 16.6196C29.5974 16.3101 29.3878 16.083 29.1805 15.9383C28.9702 15.786 28.7555 15.71 28.5364 15.7104C28.3218 15.7001 28.0974 15.742 27.8633 15.8361C27.516 15.9757 27.2518 16.1696 27.0709 16.4177C26.8975 16.6628 26.7778 16.9214 26.7117 17.1935C26.9491 17.2385 27.1441 17.3092 27.2969 17.4056C27.4572 17.4991 27.5896 17.5994 27.6941 17.7065C27.8121 17.8257 27.9053 17.9593 27.9735 18.1073C28.1799 18.6207 28.1904 19.0726 28.0052 19.4627C27.8275 19.8499 27.5121 20.1345 27.059 20.3166C26.825 20.4107 26.5885 20.4443 26.3497 20.4175C26.1079 20.3831 25.872 20.2981 25.642 20.1625C25.4197 20.0238 25.2123 19.8352 25.02 19.5968C24.8277 19.3583 24.6679 19.0805 24.5404 18.7634C24.4129 18.4462 24.3496 18.0814 24.3505 17.6688C24.3513 17.2563 24.4496 16.8352 24.6454 16.4057C24.8381 15.9687 25.1442 15.5519 25.5637 15.1552C25.9801 14.7511 26.5433 14.4064 27.2531 14.1211C27.9629 13.8359 28.6269 13.7313 29.2451 13.8074C29.8602 13.8759 30.4227 14.0752 30.9325 14.4054C31.4393 14.7279 31.8843 15.1587 32.2675 15.6975C32.6582 16.2334 32.9811 16.8184 33.236 17.4527C33.4271 17.9285 33.6312 18.4472 33.8482 19.009C34.0652 19.5709 34.2921 20.1463 34.5288 20.7352C34.726 21.2261 34.9271 21.7154 35.1319 22.2031C35.3367 22.6909 35.5429 23.1606 35.7507 23.6121C35.9554 24.0561 36.1586 24.4743 36.3602 24.8669C36.5588 25.2519 36.752 25.5909 36.9399 25.8838L34.3872 27.0938ZM31.5499 20.5247C31.4131 20.948 31.2391 21.3337 31.0281 21.6816C30.8653 21.9312 30.6912 22.2073 30.5058 22.5098C30.328 22.8093 30.1698 23.1141 30.0313 23.4241C29.9003 23.7311 29.8079 24.0357 29.7539 24.3381C29.7045 24.6298 29.7299 24.9003 29.8301 25.1495C29.9666 25.4893 30.1665 25.7466 30.4297 25.9215C30.693 26.0963 30.9756 26.1231 31.2776 26.0017C31.557 25.8894 31.7759 25.7138 31.9342 25.4747C32.0924 25.2357 32.2107 24.9733 32.2888 24.6876C32.3714 24.3913 32.4178 24.092 32.4279 23.7897C32.4455 23.4844 32.4458 23.2124 32.4288 22.9737L31.5499 20.5247Z" fill="white"/>
<path d="M41.3236 6.54337C41.3863 6.79613 41.3987 7.04879 41.3608 7.30136C41.3209 7.54604 41.2386 7.77189 41.1138 7.97892C40.9891 8.18594 40.825 8.36921 40.6214 8.52872C40.4238 8.67838 40.1986 8.78456 39.9458 8.84728C39.6931 8.90999 39.4404 8.92237 39.1878 8.88442C38.9412 8.83662 38.7144 8.75036 38.5073 8.62564C38.3003 8.50093 38.118 8.34073 37.9605 8.14505C37.8088 7.93951 37.7017 7.71036 37.639 7.45761C37.5763 7.20486 37.5649 6.95614 37.6048 6.71147C37.6506 6.45693 37.7359 6.22615 37.8606 6.01913C37.9853 5.81211 38.1465 5.63377 38.3441 5.48411C38.5477 5.3246 38.7759 5.21348 39.0286 5.15077C39.2814 5.08806 39.5311 5.0806 39.7777 5.12841C40.0303 5.16636 40.2601 5.24769 40.4671 5.3724C40.6741 5.49712 40.8535 5.66224 41.0051 5.86778C41.1547 6.06542 41.2609 6.29062 41.3236 6.54337ZM42.2143 10.1333C42.306 10.7729 42.4183 11.462 42.5512 12.2004C42.69 12.9289 42.8377 13.6763 42.9943 14.4424C43.1587 15.2065 43.3281 15.9736 43.5024 16.7437C43.6767 17.5138 43.8461 18.2473 44.0107 18.9443C44.1752 19.6414 44.329 20.295 44.472 20.9051C44.621 21.5054 44.7493 22.0228 44.8571 22.4572L45.1893 23.796L42.5234 24.5581C42.4039 24.0091 42.2805 23.478 42.1531 22.9646C42.0258 22.4512 41.8984 21.9378 41.771 21.4244C41.5495 20.5318 41.3261 19.665 41.1006 18.8237C40.8731 17.9746 40.6338 17.1284 40.3827 16.2852C40.1394 15.44 39.8814 14.5859 39.6085 13.7229C39.3357 12.8598 39.0432 11.9682 38.731 11.0478L42.2143 10.1333Z" fill="white"/>
<path d="M54.9778 3.82812C54.97 4.82213 54.9633 5.74279 54.9576 6.5901C54.9519 7.43741 54.9483 8.23577 54.9467 8.98517C54.9533 9.73424 54.9624 10.4465 54.974 11.1221C54.9857 11.7977 54.997 12.4651 55.008 13.1244C55.0271 13.7833 55.0464 14.4463 55.0658 15.1134C55.0934 15.7802 55.1223 16.4794 55.1526 17.2112C55.1862 18.0243 55.2222 18.8944 55.2605 19.8213C55.2989 20.7482 55.3495 21.7765 55.4125 22.906L52.6414 22.9596C52.6394 21.7298 52.622 20.5209 52.5891 19.3331C52.556 18.1372 52.5135 16.9131 52.4617 15.661C52.4271 14.8235 52.3875 13.9658 52.3431 13.088C52.2983 12.202 52.2479 11.2797 52.192 10.3209C52.1357 9.35393 52.0733 8.33839 52.0049 7.27423C51.9445 6.20973 51.8775 5.08036 51.8036 3.8861L54.9778 3.82812Z" fill="white"/>
<path d="M70.9694 13.1622C70.9159 13.5327 70.802 13.8369 70.6278 14.0748C70.4536 14.3128 70.2583 14.4983 70.0417 14.6315C69.8251 14.7646 69.6068 14.8523 69.387 14.8945C69.1671 14.9367 68.9846 14.9474 68.8396 14.9264C68.6947 14.9054 68.525 14.8562 68.3306 14.7788C68.1374 14.6933 67.9581 14.5687 67.7926 14.405C67.6352 14.2425 67.5084 14.0391 67.4121 13.795C67.317 13.5428 67.2951 13.2395 67.3463 12.8851C67.3823 12.693 67.4459 12.5089 67.5371 12.333C67.6168 12.1801 67.7252 12.0272 67.8625 11.8743C68.0089 11.7146 68.2007 11.582 68.438 11.4765C68.3233 11.2461 68.2016 11.0641 68.0729 10.9304C67.9442 10.7967 67.8276 10.6935 67.723 10.6208C67.5954 10.5366 67.4764 10.4782 67.3659 10.4458C67.1162 10.4097 66.8832 10.4295 66.6667 10.5051C66.4513 10.5726 66.2589 10.6805 66.0895 10.8287C65.9293 10.97 65.7932 11.1435 65.6812 11.3493C65.5773 11.5563 65.5085 11.7766 65.4747 12.0102C65.4316 12.3082 65.4128 12.5809 65.4181 12.8284C65.4234 13.0758 65.4805 13.3349 65.5894 13.6055C65.6983 13.8762 65.8768 14.1774 66.1248 14.5093C66.3729 14.8412 66.7186 15.2365 67.1621 15.6953C67.6056 16.1541 67.9858 16.5955 68.3027 17.0196C68.6208 17.4356 68.8751 17.8382 69.0655 18.2275C69.2559 18.6169 69.3853 19.0015 69.4537 19.3814C69.5233 19.7532 69.5301 20.1325 69.4742 20.5191C69.437 20.7768 69.368 21.0546 69.2674 21.3525C69.176 21.6436 69.0432 21.9368 68.8689 22.2323C68.7038 22.5209 68.4956 22.795 68.2443 23.0547C68.0022 23.3075 67.7118 23.5246 67.3732 23.7058C67.0426 23.8883 66.6625 24.0142 66.2331 24.0837C65.8106 24.1624 65.3376 24.1639 64.8141 24.0883C64.0248 23.9742 63.3691 23.7602 62.8471 23.4462C62.3252 23.1323 61.9068 22.7841 61.5921 22.4014C61.2866 22.0119 61.0761 21.6197 60.9605 21.2248C60.853 20.831 60.8196 20.4931 60.8603 20.2112C60.9034 19.9132 60.9798 19.6406 61.0896 19.3933C61.1993 19.1461 61.3447 18.9368 61.5257 18.7657C61.7147 18.5956 61.9376 18.4758 62.1944 18.406C62.4603 18.3293 62.7665 18.316 63.1128 18.3661C63.4028 18.408 63.6581 18.4901 63.8789 18.6125C64.1077 18.736 64.2939 18.8986 64.4374 19.1003C64.5902 19.295 64.6968 19.5242 64.7574 19.7879C64.8179 20.0515 64.8255 20.3404 64.7801 20.6545C64.7523 20.7903 64.7037 20.9272 64.6344 21.0652C64.5767 21.1801 64.489 21.3031 64.3714 21.4341C64.2538 21.5652 64.1011 21.6829 63.9133 21.7873C64.0133 21.8922 64.1121 21.9764 64.2098 22.0398C64.3168 22.0964 64.4134 22.1391 64.4996 22.1681C64.5928 22.2062 64.6877 22.2322 64.7844 22.2462C64.8891 22.2614 65.014 22.2506 65.159 22.214C65.3133 22.1706 65.4642 22.0937 65.6117 21.9835C65.7592 21.8732 65.8907 21.7319 66.006 21.5594C66.1214 21.387 66.1977 21.1719 66.235 20.9142C66.2722 20.6564 66.2818 20.4194 66.2638 20.203C66.255 19.9797 66.1943 19.7448 66.082 19.4983C65.9788 19.245 65.8141 18.9621 65.5879 18.6499C65.3617 18.3376 65.0591 17.9567 64.6801 17.5072C64.301 17.0578 63.9685 16.6274 63.6827 16.216C63.3979 15.7966 63.1673 15.3727 62.9908 14.9443C62.8223 14.517 62.7091 14.0772 62.6512 13.6248C62.5932 13.1724 62.6021 12.6844 62.6778 12.1609C62.7523 11.6454 62.9252 11.1606 63.1964 10.7065C63.4757 10.2535 63.8313 9.86909 64.2635 9.55332C64.6967 9.22949 65.1989 8.99784 65.77 8.85839C66.3422 8.71088 66.9626 8.68544 67.6311 8.78208C68.3077 8.87988 68.8765 9.069 69.3375 9.34944C69.7985 9.62987 70.1605 9.96999 70.4234 10.3698C70.6874 10.7615 70.8628 11.198 70.9495 11.6792C71.0361 12.1604 71.0428 12.6548 70.9694 13.1622Z" fill="white"/>
</svg>
