<svg width="70" height="101" viewBox="0 0 80 111" fill="none" xmlns="http://www.w3.org/2000/svg">
<mask id="path-1-inside-1_496_131" fill="white">
<path d="M0.11917 31.1199C2.03843 7.06254 27.1109 0 27.1109 0C27.1109 0 2.70658 26.2857 38.5508 39.0587C70.6314 50.4905 82.1024 61.9223 79.5148 81.9279C77.6089 96.6627 55.6993 110.19 55.6993 110.19C55.6993 110.19 62.0781 97.8208 60.7788 86.6912C57.9244 62.2398 -3.04753 70.8137 0.11917 31.1199Z"/>
</mask>
<path d="M27.1109 0L47.6306 19.051L115.421 -53.9652L19.5192 -26.9512L27.1109 0ZM0.11917 31.1199L-27.7921 28.8932L0.11917 31.1199ZM60.7788 86.6912L32.9677 89.9378L32.9677 89.9378L60.7788 86.6912ZM55.6993 110.19L30.8136 97.3562L-15.4194 187.006L70.4089 134.015L55.6993 110.19ZM79.5148 81.9279L51.7461 78.3361L51.7461 78.3362L79.5148 81.9279ZM38.5508 39.0587L29.152 65.4341L29.152 65.4341L38.5508 39.0587ZM27.1109 0C19.5192 -26.9512 19.5077 -26.9479 19.496 -26.9446C19.492 -26.9435 19.4802 -26.9402 19.4722 -26.9379C19.4561 -26.9333 19.4396 -26.9286 19.4226 -26.9238C19.3887 -26.9141 19.3531 -26.9039 19.3158 -26.8931C19.2413 -26.8715 19.16 -26.8478 19.0722 -26.8217C18.8967 -26.7696 18.6948 -26.7083 18.4682 -26.6374C18.0155 -26.4958 17.4614 -26.3149 16.8197 -26.0914C15.5411 -25.6461 13.8865 -25.0216 11.9719 -24.1867C8.20471 -22.5441 3.09599 -19.942 -2.22396 -16.0405C-12.9524 -8.17255 -25.9856 6.24835 -27.7921 28.8932L28.0305 33.3466C28.1432 31.9341 28.6059 30.795 30.8935 29.1174C32.0816 28.2461 33.361 27.5789 34.3548 27.1456C34.8208 26.9424 35.1399 26.8272 35.24 26.7923C35.2876 26.7758 35.2741 26.7814 35.1896 26.8078C35.1471 26.8211 35.0862 26.8398 35.0057 26.8637C34.9654 26.8757 34.9201 26.8889 34.8697 26.9035C34.8445 26.9108 34.818 26.9184 34.7901 26.9264C34.7762 26.9303 34.762 26.9344 34.7474 26.9385C34.7401 26.9406 34.7289 26.9438 34.7253 26.9448C34.714 26.948 34.7027 26.9512 27.1109 0ZM-27.7921 28.8932C-29.2546 47.2249 -22.8842 62.288 -11.6436 73.2004C-1.93771 82.6229 10.1948 87.6854 18.0992 90.7395C28.2552 94.6637 32.3756 95.7819 36.4159 97.9491C39.7173 99.72 33.8616 97.5953 32.9677 89.9378L88.5899 83.4445C86.2688 63.5614 71.7212 53.3392 62.8865 48.6003C54.7907 44.2577 43.3309 40.4539 38.2829 38.5033C30.9833 35.6829 28.2883 33.918 27.3634 33.0201C27.2313 32.8919 27.6023 33.2405 27.8803 33.9736C28.156 34.7008 27.9221 34.7058 28.0305 33.3466L-27.7921 28.8932ZM32.9677 89.9378C32.9435 89.7309 32.9904 91.163 32.0542 94.0935C31.6775 95.2726 31.2732 96.283 30.9831 96.9526C30.8428 97.2766 30.7422 97.4907 30.7037 97.5713C30.6848 97.6108 30.6825 97.615 30.6995 97.5807C30.7081 97.5634 30.7216 97.5364 30.7404 97.4992C30.7499 97.4806 30.7607 97.4594 30.7728 97.4356C30.7789 97.4237 30.7854 97.4111 30.7922 97.3979C30.7955 97.3913 30.799 97.3845 30.8026 97.3775C30.8044 97.3741 30.8071 97.3687 30.808 97.367C30.8108 97.3616 30.8136 97.3562 55.6993 110.19C80.5849 123.024 80.5878 123.018 80.5906 123.013C80.5916 123.011 80.5945 123.005 80.5965 123.001C80.6005 122.993 80.6045 122.986 80.6087 122.977C80.617 122.961 80.6258 122.944 80.6349 122.926C80.6532 122.89 80.6731 122.851 80.6946 122.809C80.7375 122.724 80.7867 122.626 80.8417 122.516C80.9515 122.295 81.0849 122.022 81.2379 121.702C81.5432 121.063 81.9308 120.224 82.3682 119.214C83.2335 117.217 84.3427 114.439 85.3983 111.135C87.3267 105.098 89.9134 94.7812 88.5899 83.4445L32.9677 89.9378ZM55.6993 110.19C70.4089 134.015 70.4142 134.012 70.4196 134.008C70.4215 134.007 70.427 134.004 70.4308 134.001C70.4385 133.997 70.4465 133.992 70.4549 133.986C70.4716 133.976 70.4897 133.965 70.5092 133.953C70.5482 133.928 70.5927 133.901 70.6426 133.869C70.7424 133.807 70.8638 133.73 71.0054 133.64C71.2884 133.459 71.6535 133.223 72.0897 132.935C72.9597 132.359 74.1266 131.566 75.499 130.579C78.2033 128.634 81.9066 125.795 85.7817 122.253C91.9805 116.588 104.945 103.601 107.283 85.5197L51.7461 78.3362C52.0496 75.9901 52.8521 75.3506 51.999 76.5778C51.2508 77.6541 49.9182 79.1655 48.0029 80.9159C46.1624 82.598 44.2692 84.0608 42.8058 85.1131C42.0944 85.6246 41.5347 86.0032 41.1991 86.2252C41.0325 86.3353 40.9251 86.4043 40.8862 86.4291C40.8669 86.4414 40.865 86.4425 40.8817 86.432C40.8901 86.4268 40.9032 86.4186 40.9211 86.4074C40.9301 86.4019 40.9402 86.3956 40.9516 86.3885C40.9573 86.3849 40.9634 86.3812 40.9697 86.3773C40.9728 86.3754 40.9778 86.3723 40.9794 86.3713C40.9844 86.3682 40.9896 86.365 55.6993 110.19ZM107.283 85.5197C109.507 68.3303 105.468 51.5934 92.1755 37.8282C80.8936 26.1449 64.779 18.6803 47.9496 12.6832L29.152 65.4341C44.4032 70.8688 50.0644 74.8361 51.8913 76.728C52.3806 77.2347 52.083 77.0628 51.8866 76.4048C51.7349 75.8965 52.0117 76.283 51.7461 78.3361L107.283 85.5197ZM47.9496 12.6832C42.4905 10.7379 43.4433 9.7154 45.1598 12.3721C47.2225 15.5646 47.1131 18.8823 46.854 20.1885C46.7081 20.9235 46.6431 20.632 47.349 19.5436C47.6085 19.1436 47.8441 18.8359 47.9631 18.6877C48.0171 18.6205 48.0284 18.6094 47.9816 18.6633C47.9577 18.6908 47.9181 18.7359 47.8606 18.7997C47.8319 18.8317 47.7985 18.8685 47.7603 18.9103C47.7412 18.9312 47.7209 18.9534 47.6993 18.9768C47.6885 18.9885 47.6774 19.0006 47.6659 19.013C47.6602 19.0191 47.6514 19.0287 47.6485 19.0318C47.6396 19.0413 47.6306 19.051 27.1109 0C6.59124 -19.051 6.58206 -19.0411 6.5728 -19.0312C6.56958 -19.0277 6.56018 -19.0175 6.55373 -19.0106C6.54081 -18.9966 6.52748 -18.9821 6.51374 -18.9672C6.48627 -18.9374 6.45716 -18.9057 6.42646 -18.8721C6.36507 -18.8049 6.29726 -18.7302 6.22341 -18.6481C6.07581 -18.484 5.90354 -18.2898 5.70969 -18.0667C5.32288 -17.6215 4.84487 -17.0554 4.30156 -16.3789C3.22598 -15.0397 1.835 -13.194 0.366635 -10.9302C-2.38309 -6.69088 -6.309 0.387438 -8.07538 9.29041C-9.9551 18.7647 -9.44477 31.0488 -1.87673 42.7622C5.3451 53.9399 16.689 60.9929 29.152 65.4341L47.9496 12.6832Z" fill="white" mask="url(#path-1-inside-1_496_131)"/>
<path d="M73.3504 13.3371C73.3504 17.0303 70.3565 20.0242 66.6633 20.0242C62.9701 20.0242 59.9762 17.0303 59.9762 13.3371C59.9762 9.64392 62.9701 6.65 66.6633 6.65C70.3565 6.65 73.3504 9.64392 73.3504 13.3371Z" stroke="white" stroke-width="13.3"/>
<path d="M20.0501 97.0173C20.0501 100.71 17.0562 103.704 13.363 103.704C9.6698 103.704 6.67588 100.71 6.67588 97.0173C6.67588 93.3241 9.6698 90.3302 13.363 90.3302C17.0562 90.3302 20.0501 93.3241 20.0501 97.0173Z" stroke="white" stroke-width="13.3"/>
</svg>
