<svg width="150" height="150" viewBox="0 0 150 150" fill="none" xmlns="http://www.w3.org/2000/svg">
<mask id="path-1-inside-1_548_21" fill="white">
<path d="M42.0998 55.0631C43.7072 34.9149 64.7056 29 64.7056 29C64.7056 29 44.2668 51.0144 74.2865 61.7118C101.154 71.286 110.761 80.8602 108.594 97.6151C106.998 109.956 88.6484 121.285 88.6484 121.285C88.6484 121.285 93.9907 110.925 92.9026 101.604C90.512 81.1262 39.4477 88.3069 42.0998 55.0631Z"/>
</mask>
<path d="M64.7056 29L85.2253 48.051L153.015 -24.9652L57.1138 2.04883L64.7056 29ZM42.0998 55.0631L14.1885 52.8364L42.0998 55.0631ZM92.9026 101.604L120.714 98.3577L120.714 98.3577L92.9026 101.604ZM88.6484 121.285L63.7628 108.451L17.5298 198.101L103.358 145.11L88.6484 121.285ZM108.594 97.6151L136.363 101.207L136.363 101.207L108.594 97.6151ZM74.2865 61.7118L64.8877 88.0873L64.8877 88.0873L74.2865 61.7118ZM64.7056 29C57.1138 2.04883 57.1023 2.05208 57.0907 2.05536C57.0867 2.05649 57.075 2.0598 57.067 2.06207C57.051 2.0666 57.0347 2.07125 57.018 2.07601C56.9845 2.08555 56.9497 2.09556 56.9134 2.10605C56.8408 2.12704 56.7624 2.14997 56.6785 2.17488C56.5107 2.22468 56.3203 2.28251 56.1086 2.34872C55.6858 2.481 55.1757 2.64761 54.59 2.85163C53.4234 3.25796 51.9292 3.82237 50.208 4.57288C46.8276 6.04685 42.2379 8.38332 37.4467 11.8971C27.7758 18.9894 15.8391 32.1461 14.1885 52.8364L70.0111 57.2898C70.0195 57.185 69.9718 57.4644 69.8102 57.7139C69.7514 57.8047 69.9066 57.5372 70.5642 57.0549C71.2235 56.5714 71.9839 56.1699 72.5909 55.9052C72.8634 55.7863 73.0222 55.7312 73.0103 55.7354C73.0019 55.7383 72.9445 55.7582 72.8301 55.794C72.7726 55.8119 72.7003 55.8341 72.612 55.8603C72.5679 55.8734 72.5197 55.8875 72.4673 55.9027C72.4411 55.9102 72.4138 55.9181 72.3855 55.9262C72.3713 55.9302 72.3569 55.9343 72.3422 55.9385C72.3349 55.9406 72.3236 55.9437 72.32 55.9448C72.3087 55.948 72.2973 55.9512 64.7056 29ZM14.1885 52.8364C12.8547 69.5556 18.7023 83.4964 29.0792 93.5703C37.9214 102.154 48.8492 106.662 55.5183 109.239C64.439 112.686 67.2936 113.404 70.3478 115.042C72.6632 116.284 66.1013 113.502 65.0914 104.851L120.714 98.3577C118.509 79.4678 104.667 69.9036 96.8185 65.6936C89.7087 61.8799 79.5147 58.4759 75.702 57.0027C72.9684 55.9465 71.0576 55.1009 69.6429 54.3399C68.2351 53.5826 67.9079 53.2169 68.0862 53.39C68.386 53.681 69.1036 54.5198 69.6041 55.8398C70.1025 57.154 69.967 57.8428 70.0111 57.2898L14.1885 52.8364ZM65.0914 104.851C64.9617 103.74 65.2149 104.217 64.5115 106.419C64.2512 107.234 63.9698 107.937 63.7736 108.39C63.6802 108.605 63.6193 108.734 63.6088 108.756C63.6038 108.766 63.6125 108.748 63.6371 108.698C63.6494 108.674 63.6658 108.641 63.6867 108.6C63.6971 108.579 63.7086 108.557 63.7213 108.532C63.7276 108.519 63.7342 108.506 63.7411 108.493C63.7446 108.486 63.7481 108.479 63.7517 108.472C63.7535 108.469 63.7563 108.464 63.7572 108.462C63.76 108.456 63.7628 108.451 88.6484 121.285C113.534 134.118 113.537 134.113 113.54 134.107C113.541 134.105 113.544 134.1 113.546 134.096C113.55 134.088 113.554 134.081 113.558 134.073C113.566 134.057 113.574 134.04 113.583 134.022C113.601 133.988 113.62 133.95 113.641 133.91C113.682 133.829 113.728 133.737 113.779 133.634C113.882 133.428 114.004 133.178 114.143 132.887C114.42 132.306 114.768 131.552 115.159 130.651C115.93 128.87 116.916 126.401 117.856 123.461C119.551 118.153 121.932 108.79 120.714 98.3577L65.0914 104.851ZM88.6484 121.285C103.358 145.11 103.363 145.106 103.369 145.103C103.371 145.102 103.376 145.098 103.38 145.096C103.387 145.091 103.395 145.087 103.403 145.082C103.42 145.071 103.437 145.061 103.456 145.049C103.493 145.026 103.535 145 103.582 144.97C103.675 144.912 103.786 144.842 103.914 144.76C104.171 144.596 104.498 144.385 104.885 144.128C105.657 143.618 106.684 142.92 107.887 142.055C110.253 140.354 113.501 137.863 116.912 134.746C122.182 129.93 134.179 118.091 136.363 101.207L80.8254 94.0233C81.2063 91.0787 82.2894 89.8529 81.8136 90.5373C81.4427 91.0708 80.5841 92.083 79.1333 93.409C77.7571 94.6666 76.3186 95.7799 75.1939 96.5887C74.6518 96.9785 74.2324 97.2619 73.9947 97.419C73.8771 97.4968 73.808 97.541 73.7953 97.5491C73.7891 97.5531 73.7972 97.5479 73.8207 97.5332C73.8324 97.5258 73.8481 97.516 73.8677 97.5038C73.8775 97.4977 73.8883 97.491 73.9002 97.4836C73.9061 97.48 73.9123 97.4761 73.9187 97.4722C73.9219 97.4702 73.9269 97.4671 73.9285 97.4661C73.9336 97.4629 73.9388 97.4598 88.6484 121.285ZM136.363 101.207C138.376 85.6428 134.697 70.183 122.47 57.5209C112.254 46.9405 97.9082 40.4047 83.6853 35.3364L64.8877 88.0873C70.8118 90.1983 75.0249 92.0466 77.9931 93.6478C80.983 95.2607 82.0373 96.2663 82.1863 96.4206C82.2228 96.4584 82.0327 96.2669 81.7722 95.8332C81.5033 95.3854 81.2628 94.8513 81.0955 94.2906C80.7467 93.122 80.9858 92.7828 80.8254 94.0233L136.363 101.207ZM83.6853 35.3364C79.6823 33.91 81.4794 33.5436 83.6432 36.8926C86.1531 40.7774 86.0941 44.8236 85.7033 46.7935C85.4258 48.192 85.0471 48.4994 85.4722 47.8438C85.5913 47.6602 85.6948 47.5275 85.7167 47.5002C85.7222 47.4934 85.6937 47.5291 85.6193 47.6148C85.5816 47.6582 85.5312 47.7154 85.4665 47.7874C85.434 47.8235 85.3979 47.8634 85.3578 47.9072C85.3377 47.9291 85.3167 47.9521 85.2946 47.976C85.2836 47.988 85.2723 48.0003 85.2607 48.0128C85.255 48.019 85.2461 48.0286 85.2432 48.0317C85.2343 48.0413 85.2253 48.051 64.7056 29C44.1859 9.94896 44.1767 9.95884 44.1675 9.9688C44.1643 9.97225 44.1549 9.98234 44.1485 9.98925C44.1357 10.0031 44.1226 10.0173 44.1091 10.032C44.0821 10.0613 44.0537 10.0922 44.0239 10.1248C43.9644 10.1899 43.8994 10.2615 43.8292 10.3396C43.689 10.4955 43.5275 10.6777 43.3474 10.8849C42.9882 11.2983 42.55 11.8174 42.0552 12.4335C41.0767 13.6518 39.8178 15.3226 38.4899 17.37C36.0209 21.1764 32.4087 27.656 30.774 35.8953C29.0259 44.706 29.4859 56.2616 36.6066 67.2827C43.3812 77.7681 53.8808 84.165 64.8877 88.0873L83.6853 35.3364Z" fill="white" mask="url(#path-1-inside-1_548_21)"/>
<path d="M103.425 40.1699C103.425 43.2599 100.92 45.7648 97.8301 45.7648C94.7401 45.7648 92.2352 43.2599 92.2352 40.1699C92.2352 37.0799 94.7401 34.575 97.8301 34.575C100.92 34.575 103.425 37.0799 103.425 40.1699Z" stroke="white" stroke-width="11.15"/>
<path d="M58.7892 110.251C58.7892 113.341 56.2843 115.846 53.1943 115.846C50.1043 115.846 47.5994 113.341 47.5994 110.251C47.5994 107.161 50.1043 104.656 53.1943 104.656C56.2843 104.656 58.7892 107.161 58.7892 110.251Z" stroke="white" stroke-width="11.15"/>
</svg>
